<?xml version="1.0" encoding="utf-8"?>
<!-- Generator: Adobe Illustrator 15.0.0, SVG Export Plug-In . SVG Version: 6.00 Build 0)  -->
<!DOCTYPE svg PUBLIC "-//W3C//DTD SVG 1.1//EN" "http://www.w3.org/Graphics/SVG/1.1/DTD/svg11.dtd">
<svg version="1.1" id="Calque_1" xmlns="http://www.w3.org/2000/svg" xmlns:xlink="http://www.w3.org/1999/xlink" x="0px" y="0px"
	 width="500px" height="350px" viewBox="0 25 500 350" enable-background="new 0 25 500 350" xml:space="preserve">
<g id="Calque_2" display="none">
	<rect x="-216.5" y="-118.5" display="inline" width="487.334" height="395.166"/>
</g>
<g id="svg2876" sodipodi:docname="lightning_rod.svg" inkscape:version="0.48.2 r9819" xmlns:sodipodi="http://sodipodi.sourceforge.net/DTD/sodipodi-0.dtd" xmlns:inkscape="http://www.inkscape.org/namespaces/inkscape" xmlns:svg="http://www.w3.org/2000/svg" xmlns:rdf="http://www.w3.org/1999/02/22-rdf-syntax-ns#" xmlns:cc="http://creativecommons.org/ns#" xmlns:dc="http://purl.org/dc/elements/1.1/">
	
		<sodipodi:namedview  showgrid="false" inkscape:zoom="1.8838581" id="namedview2888" guidetolerance="10" inkscape:window-height="690" inkscape:pageshadow="2" inkscape:pageopacity="0" gridtolerance="10" inkscape:window-width="667" bordercolor="#666666" pagecolor="#ffffff" borderopacity="1" objecttolerance="10" inkscape:cx="52.726636" inkscape:current-layer="g3015" inkscape:window-maximized="0" inkscape:window-y="0" inkscape:window-x="683" inkscape:cy="44.29134">
		</sodipodi:namedview>
	<defs>
		
		
			<inkscape:perspective  id="perspective2892" inkscape:vp_z="88.58268 : 44.29134 : 1" inkscape:vp_y="0 : 1000 : 0" inkscape:persp3d-origin="44.29134 : 29.52756 : 1" sodipodi:type="inkscape:persp3d" inkscape:vp_x="0 : 44.29134 : 1">
			</inkscape:perspective>
		
			<inkscape:perspective  id="perspective3682" inkscape:vp_z="90 : 50 : 1" inkscape:vp_y="0 : 1000 : 0" inkscape:persp3d-origin="45 : 33.333333 : 1" sodipodi:type="inkscape:persp3d" inkscape:vp_x="0 : 50 : 1">
			</inkscape:perspective>
		
			<inkscape:perspective  id="perspective3743" inkscape:vp_z="88.58268 : 44.29134 : 1" inkscape:vp_y="0 : 1000 : 0" inkscape:persp3d-origin="44.29134 : 29.52756 : 1" sodipodi:type="inkscape:persp3d" inkscape:vp_x="0 : 44.29134 : 1">
			</inkscape:perspective>
		
			<inkscape:perspective  id="perspective3769" inkscape:vp_z="88.58268 : 44.29134 : 1" inkscape:vp_y="0 : 1000 : 0" inkscape:persp3d-origin="44.29134 : 29.52756 : 1" sodipodi:type="inkscape:persp3d" inkscape:vp_x="0 : 44.29134 : 1">
			</inkscape:perspective>
	</defs>
	<g>
		<path id="path6503" fill="#FFFFFF" d="M112.092,102.741v0.703l0.003,27.882v0.702h0.704l50.095-0.005h0.703l-0.001-0.704
			l-0.001-27.881l-0.001-0.703h-0.703l-50.095,0.006H112.092z M112.796,103.444l50.095-0.005l0.001,27.881l-50.094,0.006
			L112.796,103.444z M137.834,105.082c-0.254,0-0.424,0.149-0.557,0.337c-0.026,0.039-0.047,0.073-0.072,0.118
			c-0.002,0.003-0.013,0.011-0.014,0.015c-0.046,0.08-0.08,0.183-0.118,0.278c-0.03,0.075-0.06,0.148-0.087,0.233
			c-0.011,0.031-0.021,0.057-0.03,0.088c-0.178,0.596-0.277,1.397-0.277,2.284c0,0.033,0,0.07,0,0.104
			c-0.355-0.253-0.66-0.51-0.894-0.747c0.012-0.039,0.015-0.073,0.015-0.117c0-0.226-0.169-0.425-0.395-0.425
			c-0.012,0-0.032,0-0.044,0c-0.016-0.026-0.033-0.049-0.045-0.072c-0.069-0.149-0.047-0.213-0.044-0.22
			c0.003-0.005,0.056-0.059,0.22-0.073c0.153-0.013,0.372,0.002,0.63,0.06c0.12,0.021,0.245,0.071,0.351,0.102
			c0.022-0.157,0.03-0.309,0.06-0.453c-0.021-0.005-0.039-0.009-0.06-0.014c-0.057-0.018-0.105-0.031-0.16-0.043
			c-0.304-0.072-0.563-0.124-0.791-0.104c-0.227,0.021-0.459,0.117-0.586,0.337c-0.127,0.219-0.08,0.451,0.016,0.658
			c0.016,0.036,0.038,0.066,0.058,0.103c-0.015,0.043-0.029,0.099-0.029,0.147c0,0.227,0.198,0.395,0.425,0.395
			c0.013,0,0.017,0,0.03,0c0.315,0.331,0.747,0.687,1.259,1.025c0.014,0.221,0.032,0.442,0.06,0.645
			c-0.098,0.034-0.188,0.06-0.279,0.087c-0.074-0.083-0.188-0.132-0.308-0.132c-0.182,0-0.327,0.126-0.38,0.292h-0.016
			c-0.11,0.012-0.198,0.008-0.277,0c-0.163-0.015-0.216-0.053-0.22-0.059s-0.025-0.086,0.044-0.234
			c0.065-0.141,0.199-0.315,0.379-0.512c0.012-0.012,0.02-0.018,0.03-0.03c0.066-0.069,0.141-0.146,0.221-0.22
			c0.015-0.013,0.027-0.03,0.043-0.043l-0.352-0.294c-0.018,0.019-0.026,0.042-0.044,0.061c-0.057,0.054-0.124,0.106-0.176,0.16
			c-0.044,0.048-0.077,0.086-0.117,0.133c-0.152,0.175-0.275,0.349-0.351,0.513c-0.096,0.207-0.143,0.438-0.017,0.659
			c0.128,0.22,0.358,0.302,0.586,0.321c0.044,0.004,0.086,0,0.132,0c0.077,0,0.164-0.003,0.249-0.015
			c0.071,0.062,0.162,0.088,0.264,0.088c0.165,0,0.314-0.095,0.381-0.234c0.094-0.027,0.179-0.055,0.277-0.088
			c0.034,0.176,0.088,0.347,0.132,0.498c0.003,0.012-0.003,0.019,0,0.029c0.019,0.062,0.04,0.118,0.06,0.175
			c0.075,0.221,0.158,0.409,0.263,0.557c0.133,0.187,0.303,0.337,0.557,0.337c0.255,0,0.439-0.151,0.571-0.337
			c0.025-0.037,0.048-0.076,0.073-0.118c0.006-0.011,0.023-0.02,0.029-0.03c0.037-0.069,0.068-0.14,0.102-0.219
			c0.004-0.008-0.001-0.022,0-0.03c0.03-0.073,0.063-0.153,0.089-0.234c0.011-0.031,0.02-0.067,0.029-0.103
			c0.021-0.071,0.039-0.143,0.059-0.22c-0.138-0.046-0.28-0.117-0.426-0.175c-0.011,0.045-0.019,0.087-0.028,0.132
			c-0.011,0.041-0.021,0.092-0.03,0.132c-0.003,0.014-0.01,0.031-0.015,0.043c-0.028,0.094-0.058,0.185-0.087,0.264
			c-0.037,0.093-0.079,0.179-0.117,0.249c-0.024,0.044-0.034,0.083-0.059,0.117c-0.095,0.134-0.183,0.146-0.19,0.146
			c-0.006,0-0.065-0.013-0.161-0.146c-0.088-0.126-0.185-0.332-0.264-0.585c-0.004-0.015-0.01-0.03-0.014-0.043
			c-0.011-0.032-0.021-0.069-0.031-0.104c-0.04-0.152-0.07-0.33-0.102-0.513c0.189-0.079,0.385-0.148,0.584-0.249
			c0.49,0.245,0.953,0.414,1.187,0.483c0.233,0.067,0.282,0.089,0.337,0.103c0.062,0.016,0.131,0.018,0.19,0.029
			c0.227,0.043,0.435,0.061,0.614,0.044c0.228-0.021,0.445-0.087,0.571-0.308c0.127-0.222,0.082-0.452-0.015-0.66
			c-0.02-0.041-0.033-0.09-0.058-0.131s-0.06-0.076-0.09-0.118c-0.01-0.016-0.018-0.044-0.028-0.06
			c-0.019-0.026-0.052-0.047-0.073-0.071c-0.058-0.072-0.121-0.146-0.189-0.221c-0.014-0.014-0.016-0.028-0.03-0.044
			c-0.051-0.054-0.118-0.104-0.175-0.161c-0.109,0.097-0.212,0.183-0.337,0.278c0.075,0.068,0.142,0.124,0.206,0.19
			c0.002,0.003-0.004,0.011,0,0.014c0.068,0.073,0.136,0.151,0.19,0.22c0.101,0.127,0.175,0.255,0.22,0.352
			c0.068,0.148,0.048,0.214,0.043,0.219c-0.002,0.006-0.042,0.044-0.205,0.059c-0.154,0.015-0.38,0.001-0.643-0.059
			c-0.059-0.01-0.117-0.028-0.177-0.043c-0.31-0.084-0.663-0.209-1.039-0.381c0.03-0.018,0.058-0.04,0.088-0.059
			c0.647-0.374,1.195-0.77,1.611-1.156c0.077-0.072,0.152-0.15,0.219-0.221c0.002-0.001-0.001-0.014,0.001-0.015
			c0.043-0.048,0.092-0.085,0.131-0.132c0.101-0.118,0.196-0.24,0.265-0.352c0.031-0.053,0.048-0.095,0.072-0.146
			c0.097-0.207,0.141-0.438,0.015-0.659c-0.127-0.22-0.344-0.301-0.571-0.322c-0.044-0.004-0.099,0-0.147,0l0.001-0.015
			c-0.021,0-0.05,0.014-0.073,0.015c-0.076,0.004-0.151,0.002-0.234,0.015c-0.034,0.005-0.07,0.01-0.104,0.015
			c-0.002,0.004,0.003,0.011,0.001,0.015c-0.078,0.015-0.164,0.024-0.249,0.044c-0.161,0.039-0.331,0.084-0.512,0.146
			c-0.014-0.069-0.029-0.139-0.044-0.205c0.073-0.074,0.116-0.164,0.115-0.279c0.001-0.193-0.138-0.354-0.322-0.395
			c0,0-0.014,0.001-0.014,0c-0.06-0.141-0.117-0.274-0.191-0.38c-0.13-0.188-0.302-0.337-0.556-0.337h-0.015V105.082z
			 M114.67,105.317v1.904h1.904v-1.904H114.67z M159.111,105.313v1.903h1.903v-1.903H159.111z M137.835,105.462
			c0.007,0,0.096,0.026,0.19,0.161c0.059,0.083,0.105,0.196,0.161,0.336c-0.048,0.066-0.074,0.146-0.073,0.233
			c-0.001,0.173,0.113,0.32,0.263,0.382c0.021,0.091,0.042,0.182,0.059,0.277c-0.19,0.079-0.4,0.149-0.6,0.249
			c-0.099-0.049-0.182-0.086-0.278-0.132c-0.046,0.267-0.096,0.563-0.117,0.879c0.012-0.007,0.03-0.021,0.044-0.03
			c0.12-0.068,0.232-0.128,0.35-0.189c0.12,0.062,0.247,0.121,0.367,0.188c0.122,0.071,0.224,0.148,0.337,0.221
			c0.005,0.133,0.03,0.258,0.03,0.395c0,0.012-0.016,0.019-0.017,0.03c0.257-0.171,0.501-0.345,0.704-0.513
			c-0.087-0.062-0.173-0.115-0.264-0.176c-0.014-0.221-0.033-0.441-0.06-0.645c0.208-0.075,0.408-0.133,0.586-0.175
			c0.097-0.024,0.192-0.032,0.278-0.044l0.015-0.016c0.157-0.022,0.291-0.024,0.395-0.015c0.163,0.015,0.201,0.067,0.205,0.072
			c0.004,0.007,0.024,0.07-0.044,0.221c-0.065,0.14-0.186,0.315-0.366,0.513c-0.009,0.011-0.017,0.034-0.028,0.044
			c-0.395,0.417-1.025,0.888-1.771,1.319c-0.121,0.07-0.247,0.141-0.366,0.205c-0.117-0.062-0.232-0.136-0.352-0.206
			c-0.121-0.07-0.222-0.133-0.336-0.205c-0.006-0.134-0.017-0.273-0.015-0.411c-0.001-0.862,0.099-1.646,0.264-2.196
			c0.02-0.068,0.05-0.129,0.071-0.189c0.068-0.187,0.136-0.324,0.205-0.424C137.769,105.49,137.828,105.462,137.835,105.462z
			 M138.494,107.309c0.007,0.054,0.01,0.12,0.015,0.175c-0.028-0.017-0.059-0.027-0.086-0.043c-0.03-0.017-0.059-0.041-0.089-0.058
			C138.386,107.355,138.441,107.331,138.494,107.309z M114.67,107.939v1.903h1.903v-1.903H114.67z M117.292,107.938v1.904h1.902
			v-1.903L117.292,107.938L117.292,107.938z M146.051,107.937v1.904h1.902v-1.903L146.051,107.937L146.051,107.937z
			 M148.656,107.937v1.903h1.903l0.001-1.904L148.656,107.937z M151.278,107.937v1.903h1.903l-0.001-1.903H151.278z
			 M153.883,107.936v1.904h1.904v-1.904H153.883z M156.506,107.935v1.904h1.903v-1.904H156.506z M159.112,107.935v1.904h1.903
			v-1.904H159.112z M137.834,108.024c-0.227,0-0.395,0.185-0.395,0.41c0,0.228,0.169,0.411,0.395,0.411
			c0.228,0,0.426-0.184,0.426-0.412C138.26,108.208,138.062,108.024,137.834,108.024z M137.176,109.401
			c0.028,0.018,0.06,0.027,0.089,0.043c0.027,0.017,0.046,0.028,0.072,0.044c-0.048,0.021-0.098,0.053-0.146,0.073
			C137.185,109.51,137.181,109.456,137.176,109.401z M114.67,110.546v1.904h1.904v-1.904H114.67z M117.292,110.546v1.903h1.902
			v-1.903H117.292z M146.051,110.543v1.903l1.903-0.001v-1.902H146.051z M148.656,110.543l0.001,1.902h1.903v-1.903L148.656,110.543
			z M151.278,110.543v1.903h1.902v-1.903H151.278z M153.885,110.543v1.902h1.904v-1.902H153.885z M156.506,110.542v1.902h1.903
			v-1.902H156.506z M159.112,110.542v1.903h1.904v-1.903H159.112z M114.67,113.168v1.902h1.903v-1.903L114.67,113.168z
			 M117.292,113.167v1.903h1.902v-1.902L117.292,113.167L117.292,113.167z M119.896,113.167v1.902h1.904v-1.903L119.896,113.167z
			 M122.52,113.167v1.903h1.903v-1.903H122.52z M125.126,113.167v1.902h1.918l-0.001-1.902H125.126z M127.746,113.166v1.903h1.904
			v-1.902L127.746,113.166L127.746,113.166z M130.354,113.165v1.903h1.918v-1.903H130.354z M132.974,113.166v1.902h1.903v-1.903
			L132.974,113.166z M135.58,113.165v1.902h1.918v-1.903L135.58,113.165z M138.202,113.165v1.903h1.903v-1.902L138.202,113.165
			L138.202,113.165z M140.822,113.165v1.903h1.904v-1.902L140.822,113.165L140.822,113.165z M143.43,113.165v1.903h1.903v-1.903
			H143.43z M146.051,113.165v1.903h1.903v-1.903H146.051z M148.656,113.165v1.902h1.905l-0.001-1.902H148.656z M151.278,113.164
			v1.903h1.903v-1.903H151.278z M153.883,113.164l0.002,1.903h1.904l-0.001-1.902L153.883,113.164L153.883,113.164z
			 M156.507,113.163v1.903h1.902v-1.902L156.507,113.163L156.507,113.163z M159.112,113.163v1.903h1.904v-1.903H159.112z
			 M114.67,115.772v1.919h1.904v-1.919H114.67z M117.292,115.772v1.919h1.902v-1.918L117.292,115.772z M119.896,115.772v1.918h1.905
			v-1.919L119.896,115.772z M122.52,115.771v1.918h1.903v-1.919L122.52,115.771z M125.126,115.771v1.919h1.918v-1.918
			L125.126,115.771z M127.746,115.771v1.919h1.904v-1.919H127.746z M130.354,115.771v1.919h1.918l-0.001-1.919H130.354z
			 M132.975,115.771v1.918h1.903v-1.919L132.975,115.771z M135.581,115.771v1.919h1.919l-0.001-1.919H135.581z M138.202,115.771
			v1.919h1.903v-1.919H138.202z M140.822,115.771v1.919h1.905v-1.919H140.822z M143.43,115.771v1.919h1.903v-1.919H143.43z
			 M146.052,115.771l0.001,1.919h1.902v-1.919H146.052z M148.657,115.77v1.919h1.904v-1.918L148.657,115.77L148.657,115.77z
			 M151.278,115.77v1.919h1.902v-1.919H151.278z M153.885,115.769v1.919h1.905l-0.001-1.919H153.885z M156.506,115.769v1.919h1.903
			v-1.919H156.506z M159.113,115.769v1.918h1.904v-1.919L159.113,115.769z M114.67,118.395v1.903h1.905v-1.903H114.67z
			 M117.292,118.394l0.001,1.904h1.902v-1.904H117.292z M119.897,118.394v1.904h1.905v-1.904H119.897z M122.52,118.394v1.904h1.903
			v-1.904H122.52z M125.126,118.394v1.904h1.917v-1.904H125.126z M127.746,118.394v1.904h1.904v-1.904H127.746L127.746,118.394z
			 M130.354,118.394v1.903h1.918v-1.904L130.354,118.394z M132.975,118.394v1.904h1.904v-1.904H132.975z M135.581,118.394v1.903
			h1.918v-1.903H135.581z M138.202,118.393v1.904h1.904v-1.904H138.202z M140.822,118.393v1.903h1.904l-0.001-1.903H140.822z
			 M143.43,118.393v1.903h1.903v-1.904L143.43,118.393z M146.053,118.392v1.904h1.902v-1.904H146.053z M148.657,118.392v1.904h1.903
			v-1.904H148.657z M151.279,118.392v1.904h1.903v-1.904H151.279z M153.886,118.391l-0.001,1.904h1.905v-1.904H153.886z
			 M156.507,118.391l0.001,1.903h1.902l-0.001-1.904L156.507,118.391z M159.112,118.391v1.903h1.905v-1.903H159.112z
			 M114.67,121.002v1.918h1.904v-1.918H114.67z M117.293,121.002v1.918h1.902l-0.001-1.919L117.293,121.002z M119.897,121.002v1.918
			h1.905v-1.918H119.897z M122.52,121.001v1.918h1.904v-1.918H122.52z M125.127,121.001v1.918h1.917v-1.918H125.127z
			 M127.746,121.001l0.001,1.917h1.904v-1.917H127.746z M130.354,121.001v1.917h1.918v-1.917H130.354z M132.975,121.001v1.917h1.903
			v-1.917H132.975z M135.582,121v1.918h1.918V121H135.582z M138.203,121v1.918h1.903v-1.919L138.203,121L138.203,121z
			 M140.823,120.999v1.919h1.904V121L140.823,120.999z M143.43,121l0.001,1.918h1.903V121H143.43z M146.053,120.999v1.917h1.902
			v-1.917H146.053z M148.657,120.999v1.918h1.904v-1.918H148.657z M151.279,120.998v1.917h1.902v-1.917H151.279z M153.885,120.998
			v1.917h1.905v-1.918L153.885,120.998z M156.507,120.998v1.917h1.903l-0.001-1.917H156.507z M159.113,120.997v1.918h1.904v-1.918
			H159.113z M122.52,124.925l0.001,1.904h1.903v-1.904H122.52z M125.127,124.925v1.904h1.917v-1.904H125.127L125.127,124.925z
			 M127.747,124.925v1.903h1.904v-1.904L127.747,124.925z M130.355,124.924v1.904h1.918v-1.904H130.355z M132.976,124.924v1.903
			h1.903v-1.903H132.976z M135.582,124.924v1.903h1.918v-1.904L135.582,124.924z M138.203,124.923v1.904h1.903v-1.904H138.203z
			 M140.823,124.923v1.904h1.904l-0.001-1.904H140.823z M143.431,124.923v1.904h1.903v-1.904H143.431L143.431,124.923z
			 M146.053,124.923v1.904h1.902v-1.903L146.053,124.923L146.053,124.923z M148.658,124.922v1.904h1.904v-1.904H148.658
			L148.658,124.922z M151.28,124.922v1.904h1.902v-1.904H151.28z M153.886,124.922v1.903h1.905v-1.904L153.886,124.922z
			 M156.508,124.922v1.903h1.903l-0.001-1.903H156.508z M159.113,124.921v1.904h1.904v-1.904H159.113z M122.52,127.546l0.001,1.904
			h1.903v-1.905L122.52,127.546z M125.127,127.546v1.904h1.917v-1.904H125.127L125.127,127.546z M127.747,127.546l0.001,1.903h1.904
			v-1.904L127.747,127.546z M130.355,127.545v1.904h1.918v-1.904H130.355z M132.976,127.545v1.905h1.903v-1.904L132.976,127.545z
			 M135.582,127.545v1.904h1.919v-1.904H135.582z M138.203,127.545v1.904h1.903v-1.904H138.203z M140.824,127.545v1.904h1.904
			v-1.904H140.824z M143.431,127.544v1.904h1.903v-1.904H143.431z M146.053,127.544v1.905h1.902v-1.904L146.053,127.544
			L146.053,127.544z M148.658,127.544v1.904h1.903v-1.904H148.658z M151.281,127.544v1.904h1.901v-1.904H151.281z M153.886,127.543
			v1.903h1.905v-1.903H153.886z M156.508,127.543v1.903h1.904l-0.001-1.903H156.508z M159.113,127.542v1.903h1.904v-1.904
			L159.113,127.542L159.113,127.542z"/>
		<g id="Your_Icon_2_">
			<path fill="#FFFFFF" d="M319.521,198.919l26.872,4.634l0.296,7.217l4.462,0.812c1.793,0.225,2.038-0.896,2.038-0.896l1.73-8.865
				l3.338-16.557c0,0,0.493-1.606-1.885-2.009l-27.956-4.727l-11.985-2.04c0,0-2.285-0.761-2.803,2.08l-2.511,15.65l-1.298,8.279
				c0,0-0.433,2.285,1.545,2.471l4.801,0.729L319.521,198.919z M313.045,196.13l3.061-17.237l39.595,7.029l-3.062,17.236
				L313.045,196.13z"/>
			<path fill="#FFFFFF" d="M308.335,227.271c3.297,5.627,5.623,4.312,6.692,3.084c1.229,1.424,2.451,1.984,2.451,1.984
				c7.105,4.449,11.124-6.057,11.124-6.057c2.097-8.588-2.597-11.555-2.597-11.555c-1.505-2.607,2.668-5.375,4.665-6.51l-0.74-0.125
				l-2.812,2.189c-3.273,2.717-1.668,5.127-1.668,5.127c3.338,1.791,2.781,4.951,2.781,4.951
				c-0.31,10.062-6.797,11.729-6.797,11.729c-2.512,0.111-4.468-1.52-5.639-2.852c1.607-1.902,3.969,0.812,3.969,0.812
				c2.352,1.297,7.848-2.781,3.091-5.807c-0.088-0.057-0.174-0.113-0.26-0.168c-0.766-0.504-1.431-1.01-2.01-1.498
				c2.938-2.748,2.27-4.943,2.27-4.943c-0.929-2.596-6.364-1.916-6.364-1.916c-2.78-0.742-1.669-4.389-1.669-4.389
				c1.359-2.717,4.514-0.615,4.514-0.615c4.51,3.521,6.239,0.959,6.239,0.959c1.062-1.037,1.349-3.428,1.406-4.072l-1.035-0.172
				l-0.311,1.863c-1.36,4.758-6.243,0.188-6.243,0.188c-6.855-3.09-5.929,4.57-5.929,4.57c1.299,4.018,6.306,2.719,6.306,2.719
				c3.34,0.74,1.729,2.408,1.729,2.408c-0.562,0.861-1.279,1.682-1.989,2.398c-1.942-1.965-2.457-3.51-2.457-3.51
				c-3.339-2.041-4.514,4.879-4.514,4.879c-0.008,0.979,0.083,1.861,0.24,2.662c-0.953,0.107-1.66,0.059-1.66,0.059
				C307.349,226.164,308.335,227.271,308.335,227.271z M318.791,222.27c-1.206,1.119-2.239,1.855-2.239,1.855
				c-0.777,0.73-1.826,1.121-2.792,1.326c-0.461-2.57,0.632-5.088,0.632-5.088c1.176-2.338,2.223-0.875,2.223-0.875
				C317.094,220.453,317.923,221.42,318.791,222.27z M314.576,227.584c-0.254-0.396-0.444-0.811-0.585-1.23
				c0.719-0.207,1.203-0.377,1.203-0.377c2.03-0.922,3.531-1.855,4.644-2.748c1.222,1.053,2.278,1.76,2.278,1.76
				c2.159,1.176,1.048,2.906,1.048,2.906c-1.42,3.211-3.396,0.432-3.396,0.432c-2.837-2.162-4.448-0.248-4.448-0.248
				c-0.07,0.111-0.136,0.217-0.203,0.318C314.764,227.914,314.576,227.584,314.576,227.584z M310.438,227.09
				c0.841-0.074,1.771-0.266,2.582-0.471c0.323,1.102,0.773,2.016,1.271,2.766c-2.104,1.926-3.853-0.873-3.853-0.873
				C308.296,226.688,310.438,227.09,310.438,227.09z"/>
			<path fill="#FFFFFF" d="M319.396,186.359l-1.264,7.451l29.889,5.062l1.263-7.453L319.396,186.359z M341.143,194.501
				c0-1.313,1.118-2.379,2.501-2.379s2.503,1.064,2.503,2.379c0,1.313-1.12,2.378-2.503,2.378
				C342.262,196.879,341.143,195.813,341.143,194.501z M329.09,192.556l0.471-2.501l9.971,1.877l-0.471,2.5L329.09,192.556z
				 M322.116,191.164c0-1.382,1.159-2.502,2.592-2.502s2.596,1.12,2.596,2.502s-1.164,2.501-2.596,2.501
				C323.277,193.665,322.116,192.545,322.116,191.164z"/>
			<polygon fill="#FFFFFF" points="316.525,205.729 346.379,210.494 346.086,203.645 319.845,199.328 			"/>
		</g>
		<path fill="#FFFFFF" d="M431.131,61.256H69.521c-4.453,0-9.582,2.467-9.582,7.512v219.807c0,5.029,5.129,8.357,9.582,8.357
			h148.974l-7.377,30.41H192.98v11.402h117.839v-11.402h-21.286l-7.379-30.41h148.975c4.461,0,8.934-3.328,8.934-8.357V68.768
			C440.062,63.724,435.591,61.256,431.131,61.256z M421.055,258.92H75.143V80.262h345.912V258.92z"/>
		<g id="Your_Icon">
			<g>
				<path fill="#FFFFFF" d="M219.381,207.977c1.31,0,2.372,1.062,2.372,2.373c0,1.309-1.062,2.371-2.372,2.371
					s-2.371-1.062-2.371-2.371C217.01,209.037,218.07,207.977,219.381,207.977z"/>
				<circle fill="#FFFFFF" cx="231.705" cy="212.72" r="4.743"/>
				<circle fill="#FFFFFF" cx="206.031" cy="220.581" r="3.118"/>
				<path fill="#FFFFFF" d="M230.161,162.932V142.74h0.673c1.347,0,2.439-0.929,2.439-2.275c0-1.349-1.093-2.275-2.439-2.275h-0.633
					h-18.793h-0.633c-1.348,0-2.44,0.928-2.44,2.275c0,1.347,1.093,2.275,2.44,2.275h1.187v20.104
					c-15.926,4.4-27.023,19.068-27.023,35.917c0,20.358,16.366,36.864,36.729,36.864c20.36,0,36.775-16.506,36.775-36.864
					C258.441,181.391,246.086,166.833,230.161,162.932z M232.822,173.686c2.217,0,4.019,1.801,4.019,4.021
					c0,2.22-1.802,4.021-4.019,4.021c-2.224,0-4.021-1.8-4.021-4.021C228.801,175.485,230.6,173.686,232.822,173.686z
					 M228.802,182.698c0,1.16-0.942,2.103-2.101,2.103c-1.162,0-2.103-0.941-2.103-2.103c0-1.159,0.94-2.1,2.103-2.1
					C227.859,180.6,228.802,181.539,228.802,182.698z M226.123,159.461c0,0.842-0.683,1.524-1.525,1.524
					c-0.841,0-1.524-0.683-1.524-1.524s0.684-1.524,1.524-1.524C225.44,157.938,226.123,158.619,226.123,159.461z M223.776,145.195
					c0.842,0,1.524,0.683,1.524,1.525c0,0.842-0.682,1.526-1.524,1.526c-0.842,0-1.525-0.685-1.525-1.526
					C222.251,145.878,222.933,145.195,223.776,145.195z M221.528,154.887c0.842,0,1.524,0.682,1.524,1.526
					c0,0.841-0.683,1.521-1.524,1.521c-0.843,0-1.527-0.682-1.527-1.521C220.002,155.569,220.686,154.887,221.528,154.887z
					 M219.381,163.883c1.584,0,2.869,1.282,2.869,2.868c0,1.585-1.285,2.868-2.869,2.868c-1.585,0-2.867-1.284-2.867-2.868
					S217.796,163.883,219.381,163.883z M221.527,231.059c-17.601,0-31.928-13.244-32.501-31.442h9.067
					c-0.024,0-0.06-0.283-0.06-0.483c0-2.697,2.185-4.777,4.88-4.777c2.695,0,4.879,2.116,4.879,4.812
					c0,0.201-0.034,0.451-0.059,0.451h46.294C253.456,217.812,239.128,231.059,221.527,231.059z"/>
			</g>
			<circle fill="#FFFFFF" cx="217.438" cy="134.248" r="2.372"/>
			<circle fill="#FFFFFF" cx="220.767" cy="128.656" r="1.61"/>
			<circle fill="#FFFFFF" cx="217.438" cy="126.362" r="0.685"/>
		</g>
		<g id="Your_Icon_1_">
			<path fill="#FFFFFF" d="M266.387,145.407c-0.313-1.964,0.012-3.951,1.399-5.775c2.168-2.853,5.93-3.434,8.969-4.769
				c4.14-1.818,4.749-7.49,7.858-10.492c0.929-0.895,2.287-1.541,3.593-1.291c3.229,0.619-1.478,5.138-1.062,6.866
				c0.196,0.81,1.164,1.035,1.828,1.234c0.78-0.807,1.563-1.61,2.346-2.414c1.935-1.986,3.867-3.971,5.802-5.957
				c2.273-2.335,4.545-4.671,6.816-7.006c2.017-2.068,4.03-4.139,6.042-6.207c1.517-1.558,3.813-3.026,3.144-5.54
				c-0.338-1.259,0.104-1.57,1.099-2.105c0.735-0.399,1.451-0.859,2.18-1.275c1.82-1.04,3.613-2.135,5.425-3.196
				c1.371-0.805,2.773-1.632,3.764,0.097c0.545,0.957,0.574,2.293-0.331,3.029c-0.908,0.735-2.423,0.089-3.173,1.186
				c-0.414,0.6-0.74,1.271-1.076,1.92c-0.674,1.302-1.382,2.562-2.422,3.59c-1.157-0.75-2.626,0.093-3.459,0.962
				c-1.913,1.985-25.676,28.575-25.938,28.867c-0.186,0.208,1.188,1.314,1.352,1.396c0.775,0.379,1.618,0.243,2.325-0.231
				c0.587-0.394,0.805-0.769,1.54-0.605c1.322,0.293,1.285,1.767,0.855,2.803c-0.646,1.571-1.791,3.008-3.091,4.055
				c-1.415,1.137-3.177,1.642-4.646,2.688c-4.192,2.992-1.933,12.889-8.998,12.317c-2.947-0.239-5.643-3.615-7.523-5.714
				C269.007,151.604,266.886,148.541,266.387,145.407z"/>
		</g>
		<path fill="#FFFFFF" d="M367.922,100.825c0.824-0.375,1.647-0.751,2.472-1.126l-3.007-6.598l-21.482,57.463l6.596-3.005
			c-0.375-0.824-0.75-1.647-1.126-2.473c-0.162-0.356,0.392-0.608,0.555-0.253c0.375,0.825,0.751,1.648,1.126,2.472l3.46-1.577
			c-0.375-0.824-0.751-1.647-1.127-2.473c-0.162-0.356,0.395-0.608,0.556-0.252c0.376,0.824,0.751,1.647,1.127,2.472l3.459-1.577
			c-0.376-0.822-0.751-1.646-1.126-2.471c-0.163-0.357,0.393-0.61,0.555-0.253c0.375,0.824,0.751,1.647,1.127,2.472l3.459-1.577
			c-0.375-0.823-0.75-1.646-1.126-2.472c-0.162-0.355,0.392-0.606,0.554-0.252c0.376,0.824,0.751,1.648,1.127,2.472l3.459-1.576
			c-0.375-0.822-0.75-1.647-1.125-2.472c-0.163-0.355,0.393-0.607,0.555-0.252c0.375,0.824,0.75,1.648,1.126,2.473l3.459-1.578
			c-0.375-0.823-0.75-1.647-1.125-2.472c-0.163-0.355,0.391-0.607,0.554-0.253c0.375,0.825,0.751,1.648,1.126,2.474l3.46-1.578
			c-0.376-0.823-0.751-1.647-1.126-2.472c-0.163-0.355,0.392-0.608,0.554-0.253c0.375,0.825,0.75,1.649,1.126,2.473l3.46-1.577
			c-0.375-0.824-0.75-1.647-1.126-2.472c-0.163-0.356,0.393-0.608,0.555-0.253c0.376,0.824,0.751,1.648,1.127,2.472l4.223-1.925
			l-1.924-4.225c-0.824,0.376-1.648,0.751-2.472,1.126c-0.356,0.163-0.61-0.392-0.253-0.554c0.823-0.375,1.646-0.751,2.472-1.125
			l-1.576-3.461c-0.825,0.376-1.649,0.751-2.473,1.127c-0.356,0.162-0.608-0.394-0.253-0.555c0.823-0.375,1.646-0.751,2.472-1.126
			l-1.576-3.459c-0.824,0.375-1.648,0.75-2.473,1.125c-0.356,0.162-0.608-0.392-0.253-0.555c0.823-0.375,1.647-0.751,2.472-1.126
			l-1.576-3.46c-0.824,0.376-1.646,0.751-2.472,1.127c-0.357,0.163-0.609-0.391-0.252-0.553c0.823-0.375,1.647-0.751,2.471-1.127
			l-1.576-3.46c-0.823,0.376-1.647,0.751-2.472,1.126c-0.356,0.163-0.609-0.391-0.252-0.554c0.823-0.375,1.646-0.751,2.471-1.126
			l-1.577-3.46c-0.822,0.376-1.646,0.751-2.473,1.127c-0.354,0.161-0.607-0.394-0.252-0.556c0.823-0.375,1.648-0.75,2.472-1.127
			l-1.575-3.46c-0.823,0.375-1.648,0.751-2.473,1.126c-0.356,0.163-0.609-0.392-0.253-0.554c0.823-0.375,1.647-0.751,2.472-1.127
			l-1.576-3.459c-0.824,0.376-1.647,0.751-2.473,1.126C367.817,101.542,367.565,100.986,367.922,100.825z M376.736,129.344
			l-19.277,8.788l10.491-28.065L376.736,129.344z"/>
		<g>
			<polygon fill="#FFFFFF" points="114.289,213.139 115.322,213.482 111.302,186.81 110.257,186.389 			"/>
			<polygon fill="#FFFFFF" points="123.284,179.799 127.363,206.475 127.988,206.064 128.563,206.066 124.55,179.438 
				124.067,179.351 			"/>
			<polygon fill="#FFFFFF" points="139.706,181.396 138.573,182.254 142.665,209.398 143.79,208.482 			"/>
			<g>
				<polyline fill="none" points="127.512,179.25 123.921,178.377 111.159,185.988 100.934,182.284 105.2,210.588 115.595,214.354 
					128.115,206.906 128.324,206.875 131.767,207.693 142.48,210.301 151.305,203.639 147.038,175.334 138.356,181.89 
					134.751,181.012 				"/>
				<polygon fill="#FFFFFF" points="137.765,179.023 135.348,178.437 134.751,181.012 138.356,181.89 147.038,175.334 
					151.305,203.639 142.48,210.301 131.767,207.693 128.324,206.875 128.115,206.906 115.595,214.354 105.2,210.588 
					100.934,182.284 111.159,185.988 123.921,178.377 127.512,179.25 125.649,176.075 123.495,175.552 110.881,183.078 
					97.657,178.283 102.82,212.537 115.874,217.268 128.637,209.652 143.07,213.168 154.151,204.799 148.988,170.545 				"/>
			</g>
			<path fill="#FFFFFF" d="M129.634,166.345c-2.929,0.441-4.949,3.176-4.507,6.105c0.082,0.546,0.267,1.045,0.493,1.517
				l-0.022,0.003l6.978,11.892l3.221-13.877l-0.01,0.002c0.022-0.371,0.012-0.752-0.046-1.136
				C135.298,167.92,132.563,165.902,129.634,166.345z M130.813,174.175c-1.253,0.188-2.427-0.676-2.616-1.929
				c-0.189-1.254,0.678-2.429,1.931-2.617c1.254-0.189,2.427,0.677,2.615,1.932C132.932,172.813,132.069,173.984,130.813,174.175z"
				/>
		</g>
	</g>
</g>
</svg>
