<?xml version="1.0" encoding="utf-8"?>
<!-- Generator: Adobe Illustrator 15.0.0, SVG Export Plug-In . SVG Version: 6.00 Build 0)  -->
<!DOCTYPE svg PUBLIC "-//W3C//DTD SVG 1.1//EN" "http://www.w3.org/Graphics/SVG/1.1/DTD/svg11.dtd">
<svg version="1.1" id="Calque_1" xmlns="http://www.w3.org/2000/svg" xmlns:xlink="http://www.w3.org/1999/xlink" x="0px" y="0px"
	 width="500px" height="400px" viewBox="0 0 500 400" enable-background="new 0 0 500 400" xml:space="preserve">
<g id="Calque_2">
	<rect display="none" fill="#1B2820" width="500" height="400.164"/>
</g>
<g id="Calque_1_1_">
	<g>
		<g>
			<polygon fill="#FFFFFF" points="75.612,57.008 89.449,57.008 89.471,57.008 97.077,57.008 96.357,65.04 89.449,66.904 
				89.449,66.905 89.445,66.906 82.547,65.043 82.105,60.104 78.754,60.104 75.889,60.104 76.756,69.829 89.443,73.351 
				89.471,73.343 89.471,73.341 102.146,69.829 102.24,68.783 103.694,52.478 103.845,50.814 102.177,50.814 89.471,50.814 
				89.449,50.814 81.276,50.814 80.709,44.472 89.449,44.472 89.471,44.472 104.39,44.472 104.409,44.472 104.534,43.081 
				104.816,39.94 104.965,38.279 89.471,38.279 89.449,38.279 73.941,38.279 74.09,39.94 			"/>
			<path fill="#FFFFFF" d="M89.471,15.18c-22.254,0-40.294,18.04-40.294,40.294c0,22.253,18.041,40.294,40.294,40.294
				c22.253,0,40.294-18.041,40.294-40.294C129.765,33.22,111.725,15.18,89.471,15.18z M109.7,78.445l-20.259,5.617l-20.203-5.608
				l-4.502-50.496h49.471L109.7,78.445z"/>
		</g>
		<g enable-background="new    ">
			<path fill="#FFFFFF" d="M75.446,108.541h-3.068v5.698h-1.753v-12.272h1.753v5.26h3.068v-5.26h1.753v12.272h-1.753V108.541z"/>
			<path fill="#FFFFFF" d="M84.651,101.967v1.438h-2.191v10.835h-1.753v-10.835h-2.191v-1.438H84.651z"/>
			<path fill="#FFFFFF" d="M89.472,114.239l-1.753-9.684v9.684h-1.753v-12.272h2.377l1.746,9.407l1.745-9.407h2.46v12.272H92.54
				v-9.684l-1.753,9.684H89.472z"/>
			<path fill="#FFFFFF" d="M96.047,114.239v-12.272H97.8v10.957h3.068v1.315H96.047z"/>
			<path fill="#FFFFFF" d="M107.882,103.72h-3.671l-0.274,2.973c0.137-0.083,0.297-0.155,0.48-0.22
				c0.156-0.055,0.345-0.104,0.566-0.15s0.476-0.068,0.764-0.068c0.478,0,0.881,0.087,1.209,0.262
				c0.328,0.176,0.593,0.422,0.794,0.74c0.201,0.317,0.347,0.696,0.436,1.135c0.09,0.438,0.134,0.921,0.134,1.448
				c0,0.334-0.014,0.678-0.041,1.031c-0.027,0.353-0.078,0.696-0.154,1.031c-0.075,0.334-0.182,0.651-0.318,0.952
				c-0.138,0.3-0.318,0.562-0.542,0.784c-0.225,0.222-0.496,0.398-0.814,0.529c-0.319,0.13-0.701,0.195-1.144,0.195
				c-0.64,0-1.161-0.096-1.565-0.287c-0.403-0.192-0.721-0.452-0.951-0.781c-0.229-0.328-0.389-0.713-0.476-1.153
				c-0.087-0.441-0.13-0.91-0.13-1.408h1.753v0.27c0,0.232,0.013,0.464,0.037,0.692s0.08,0.434,0.166,0.615
				c0.087,0.181,0.215,0.329,0.385,0.443s0.4,0.171,0.691,0.171c0.281,0,0.51-0.059,0.685-0.176c0.175-0.118,0.312-0.293,0.41-0.523
				c0.098-0.231,0.165-0.521,0.201-0.867s0.055-0.751,0.055-1.213c0-0.345-0.003-0.673-0.01-0.985
				c-0.006-0.312-0.045-0.587-0.115-0.822c-0.07-0.236-0.189-0.423-0.358-0.561c-0.169-0.139-0.415-0.208-0.739-0.208
				c-0.175,0-0.338,0.033-0.489,0.1c-0.15,0.066-0.285,0.149-0.404,0.25s-0.222,0.21-0.307,0.329
				c-0.085,0.118-0.149,0.23-0.193,0.335h-1.493v-6.615h5.425V103.72z"/>
		</g>
	</g>
	<g>
		<g>
			<path fill="#FFFFFF" d="M246.531,15.18c-22.254,0-40.294,18.04-40.294,40.294c0,22.253,18.041,40.294,40.294,40.294
				c22.253,0,40.294-18.041,40.294-40.294C286.825,33.22,268.785,15.18,246.531,15.18z M266.543,78.054l-20.042,5.555l-19.984-5.547
				l-4.454-49.952h48.936L266.543,78.054z"/>
			<polygon fill="#FFFFFF" points="231.631,42.642 231.754,44.019 231.774,44.019 246.532,44.019 246.553,44.019 255.197,44.019 
				254.639,50.291 246.532,50.291 246.532,50.293 239.245,50.293 239.393,51.936 239.672,55.042 239.794,56.419 239.815,56.419 
				246.532,56.419 246.532,56.418 254.096,56.418 253.381,64.363 246.547,66.207 246.547,66.208 246.541,66.21 239.717,64.367 
				239.281,59.481 235.967,59.481 233.132,59.481 233.99,69.101 246.54,72.584 246.568,72.577 246.568,72.575 259.107,69.101 
				259.199,68.065 260.266,56.158 260.266,56.158 261.747,39.536 261.895,37.892 246.553,37.892 246.532,37.892 231.206,37.892 
				231.353,39.536 			"/>
		</g>
		<g enable-background="new    ">
			<path fill="#FFFFFF" d="M238.416,109.856v0.438c0,0.549-0.059,1.069-0.178,1.562c-0.119,0.493-0.315,0.925-0.589,1.295
				s-0.635,0.664-1.082,0.884c-0.447,0.219-1,0.328-1.657,0.328c-0.658,0-1.21-0.111-1.657-0.335
				c-0.448-0.224-0.809-0.536-1.083-0.936s-0.47-0.875-0.589-1.428s-0.178-1.157-0.178-1.814v-3.5c0-0.657,0.059-1.263,0.178-1.814
				c0.119-0.553,0.315-1.027,0.589-1.425s0.635-0.708,1.083-0.932c0.447-0.224,1-0.336,1.657-0.336c0.621,0,1.154,0.1,1.599,0.298
				c0.445,0.199,0.808,0.477,1.089,0.833c0.281,0.355,0.487,0.784,0.62,1.283c0.133,0.5,0.199,1.052,0.199,1.654h-1.753
				c0-0.438-0.03-0.821-0.089-1.15c-0.059-0.329-0.157-0.603-0.294-0.822c-0.137-0.219-0.317-0.383-0.541-0.493
				c-0.224-0.109-0.5-0.164-0.829-0.164s-0.605,0.055-0.829,0.164c-0.224,0.11-0.404,0.274-0.541,0.493
				c-0.137,0.22-0.235,0.493-0.294,0.822c-0.06,0.329-0.089,0.712-0.089,1.15v4.383c0,0.329,0.03,0.651,0.089,0.966
				c0.059,0.315,0.157,0.596,0.294,0.843c0.137,0.246,0.317,0.445,0.541,0.596c0.224,0.15,0.5,0.226,0.829,0.226
				s0.605-0.075,0.829-0.226s0.404-0.35,0.541-0.596c0.137-0.247,0.235-0.527,0.294-0.843c0.06-0.314,0.089-0.637,0.089-0.966
				v-0.438H238.416z"/>
			<path fill="#FFFFFF" d="M243.241,114.362c-0.438,0-0.824-0.051-1.157-0.154c-0.333-0.103-0.623-0.239-0.869-0.41
				c-0.246-0.172-0.454-0.365-0.623-0.582s-0.308-0.439-0.417-0.668c-0.255-0.53-0.401-1.135-0.438-1.815l1.746-0.438
				c0.019,0.493,0.092,0.932,0.22,1.315c0.055,0.164,0.125,0.325,0.209,0.482c0.084,0.158,0.188,0.298,0.312,0.422
				c0.124,0.123,0.269,0.223,0.436,0.298s0.36,0.112,0.58,0.112c0.878,0,1.318-0.438,1.318-1.314c0-0.219-0.027-0.424-0.082-0.613
				c-0.055-0.189-0.137-0.372-0.247-0.548c-0.11-0.176-0.247-0.347-0.411-0.514c-0.165-0.166-0.356-0.339-0.575-0.517l-2.191-1.754
				c-0.224-0.178-0.419-0.38-0.586-0.605c-0.167-0.227-0.305-0.465-0.414-0.716c-0.11-0.251-0.191-0.507-0.243-0.768
				c-0.053-0.26-0.079-0.518-0.079-0.773c0-0.393,0.066-0.769,0.198-1.127c0.132-0.358,0.327-0.673,0.584-0.944
				c0.258-0.272,0.578-0.487,0.961-0.647c0.383-0.16,0.825-0.24,1.327-0.24c0.439,0,0.825,0.046,1.159,0.138
				c0.333,0.091,0.624,0.212,0.871,0.362c0.247,0.151,0.455,0.322,0.624,0.514c0.169,0.192,0.309,0.386,0.418,0.582
				c0.256,0.471,0.402,1.003,0.439,1.596l-1.753,0.438c-0.019-0.41-0.092-0.775-0.22-1.096c-0.055-0.137-0.125-0.271-0.209-0.4
				c-0.084-0.13-0.189-0.247-0.312-0.35c-0.124-0.103-0.269-0.186-0.436-0.25c-0.167-0.063-0.36-0.096-0.58-0.096
				c-0.229,0-0.427,0.035-0.594,0.106c-0.167,0.07-0.304,0.165-0.412,0.284c-0.108,0.118-0.187,0.258-0.237,0.418
				c-0.05,0.159-0.076,0.328-0.076,0.507c0,0.302,0.071,0.61,0.213,0.927c0.142,0.315,0.364,0.593,0.667,0.831l2.191,1.753
				c0.279,0.224,0.527,0.469,0.745,0.735s0.402,0.546,0.553,0.838s0.265,0.592,0.343,0.899c0.078,0.308,0.117,0.612,0.117,0.913
				c0,0.379-0.062,0.74-0.186,1.085c-0.123,0.345-0.312,0.649-0.565,0.915c-0.253,0.265-0.572,0.476-0.956,0.633
				C244.221,114.284,243.767,114.362,243.241,114.362z"/>
			<path fill="#FFFFFF" d="M251.138,114.362c-0.438,0-0.824-0.051-1.157-0.154c-0.333-0.103-0.623-0.239-0.869-0.41
				c-0.246-0.172-0.454-0.365-0.623-0.582s-0.308-0.439-0.417-0.668c-0.255-0.53-0.401-1.135-0.438-1.815l1.746-0.438
				c0.019,0.493,0.092,0.932,0.22,1.315c0.055,0.164,0.125,0.325,0.209,0.482c0.084,0.158,0.188,0.298,0.312,0.422
				c0.124,0.123,0.269,0.223,0.436,0.298s0.36,0.112,0.58,0.112c0.878,0,1.317-0.438,1.317-1.314c0-0.219-0.027-0.424-0.082-0.613
				s-0.137-0.372-0.246-0.548s-0.246-0.347-0.411-0.514c-0.165-0.166-0.356-0.339-0.575-0.517l-2.191-1.754
				c-0.224-0.178-0.419-0.38-0.586-0.605c-0.167-0.227-0.305-0.465-0.414-0.716c-0.11-0.251-0.191-0.507-0.243-0.768
				c-0.053-0.26-0.079-0.518-0.079-0.773c0-0.393,0.066-0.769,0.198-1.127c0.132-0.358,0.327-0.673,0.584-0.944
				c0.258-0.272,0.578-0.487,0.961-0.647c0.383-0.16,0.825-0.24,1.327-0.24c0.438,0,0.825,0.046,1.159,0.138
				c0.333,0.091,0.623,0.212,0.871,0.362c0.246,0.151,0.454,0.322,0.623,0.514c0.17,0.192,0.309,0.386,0.418,0.582
				c0.256,0.471,0.402,1.003,0.439,1.596l-1.754,0.438c-0.018-0.41-0.092-0.775-0.219-1.096c-0.055-0.137-0.125-0.271-0.21-0.4
				s-0.188-0.247-0.312-0.35c-0.124-0.103-0.27-0.186-0.437-0.25c-0.167-0.063-0.36-0.096-0.58-0.096
				c-0.229,0-0.427,0.035-0.594,0.106c-0.167,0.07-0.304,0.165-0.412,0.284c-0.108,0.118-0.187,0.258-0.237,0.418
				c-0.05,0.159-0.076,0.328-0.076,0.507c0,0.302,0.071,0.61,0.213,0.927c0.142,0.315,0.364,0.593,0.667,0.831l2.191,1.753
				c0.279,0.224,0.527,0.469,0.745,0.735s0.401,0.546,0.553,0.838s0.265,0.592,0.343,0.899s0.117,0.612,0.117,0.913
				c0,0.379-0.062,0.74-0.186,1.085s-0.312,0.649-0.565,0.915c-0.253,0.265-0.572,0.476-0.956,0.633
				C252.117,114.284,251.663,114.362,251.138,114.362z"/>
			<path fill="#FFFFFF" d="M258.592,114.362c-0.548,0-1.016-0.084-1.404-0.253c-0.388-0.169-0.705-0.397-0.951-0.686
				c-0.247-0.287-0.427-0.625-0.541-1.013c-0.115-0.389-0.172-0.802-0.172-1.24v-0.438h1.754c0,0.438,0.027,0.8,0.082,1.082
				c0.055,0.283,0.137,0.507,0.246,0.672c0.109,0.164,0.247,0.278,0.411,0.342c0.164,0.064,0.356,0.096,0.575,0.096
				c0.22,0,0.411-0.031,0.575-0.096c0.165-0.063,0.302-0.178,0.411-0.342c0.109-0.165,0.191-0.389,0.246-0.672
				c0.056-0.282,0.083-0.644,0.083-1.082c0-0.328-0.03-0.627-0.09-0.896c-0.059-0.27-0.157-0.5-0.294-0.692
				c-0.137-0.191-0.317-0.34-0.541-0.445c-0.224-0.104-0.5-0.157-0.829-0.157v-1.753c0.329,0,0.605-0.03,0.829-0.089
				c0.224-0.06,0.404-0.158,0.541-0.295s0.235-0.317,0.294-0.541c0.06-0.224,0.09-0.5,0.09-0.829c0-0.328-0.027-0.604-0.083-0.828
				c-0.055-0.224-0.137-0.404-0.246-0.541s-0.246-0.235-0.411-0.295c-0.164-0.059-0.355-0.089-0.575-0.089
				c-0.219,0-0.411,0.032-0.575,0.096c-0.164,0.064-0.302,0.179-0.411,0.343s-0.191,0.388-0.246,0.671s-0.082,0.644-0.082,1.082
				h-1.754v-0.438c0-0.438,0.057-0.851,0.172-1.239c0.114-0.388,0.294-0.726,0.541-1.014c0.246-0.287,0.563-0.516,0.951-0.685
				c0.389-0.169,0.856-0.254,1.404-0.254s1.016,0.085,1.404,0.254c0.388,0.169,0.705,0.397,0.952,0.685
				c0.246,0.288,0.427,0.626,0.541,1.014c0.113,0.389,0.171,0.802,0.171,1.239c0,0.274-0.025,0.522-0.075,0.743
				c-0.051,0.222-0.116,0.419-0.199,0.593c-0.082,0.174-0.176,0.326-0.28,0.459c-0.105,0.133-0.213,0.246-0.322,0.343
				c-0.256,0.224-0.548,0.388-0.876,0.492c0.328,0.11,0.62,0.293,0.876,0.549c0.109,0.109,0.217,0.24,0.322,0.394
				c0.104,0.152,0.198,0.332,0.28,0.537c0.083,0.206,0.148,0.439,0.199,0.702c0.05,0.263,0.075,0.559,0.075,0.887
				c0,0.548-0.058,1.046-0.171,1.493c-0.114,0.447-0.295,0.829-0.541,1.144c-0.247,0.315-0.564,0.56-0.952,0.733
				C259.607,114.275,259.14,114.362,258.592,114.362z"/>
		</g>
	</g>
	<g>
		<g>
			<path fill="#FFFFFF" d="M416.069,20.408c-19.335,0-35.064,15.731-35.064,35.066c0,19.336,15.729,35.067,35.064,35.067
				c19.337,0,35.066-15.731,35.064-35.067C451.135,36.139,435.405,20.408,416.069,20.408z M384.54,55.474
				c0-4.569,0.981-8.916,2.729-12.831l15.041,41.209C391.794,78.74,384.54,67.955,384.54,55.474z M416.069,87.003
				c-3.096,0-6.08-0.453-8.906-1.284l9.463-27.486l9.694,26.55c0.059,0.15,0.14,0.298,0.224,0.431
				C423.262,86.364,419.74,87.003,416.069,87.003z M420.405,40.693c1.895-0.103,3.608-0.303,3.608-0.303
				c1.699-0.2,1.497-2.693-0.196-2.596c0,0-5.104,0.4-8.403,0.4c-3.102,0-8.308-0.4-8.308-0.4c-1.698-0.104-1.899,2.499-0.2,2.596
				c0,0,1.608,0.207,3.306,0.303l4.911,13.462l-6.896,20.69l-11.479-34.153c1.905-0.103,3.61-0.304,3.61-0.304
				c1.695-0.2,1.495-2.693-0.199-2.596c0,0-5.105,0.4-8.404,0.4c-0.594,0-1.29-0.016-2.032-0.038
				c5.64-8.559,15.331-14.209,26.349-14.209c8.209,0,15.68,3.135,21.294,8.269c-0.138-0.008-0.27-0.023-0.409-0.023
				c-3.102,0-5.298,2.701-5.298,5.601c0,2.596,1.5,4.798,3.104,7.394c1.196,2.1,2.6,4.8,2.6,8.695c0,2.698-1.04,5.835-2.412,10.198
				L431.8,74.588L420.405,40.693z M431.919,82.723l9.634-27.843c1.795-4.503,2.396-8.099,2.396-11.295
				c0-1.157-0.079-2.24-0.214-3.241c2.466,4.495,3.865,9.648,3.863,15.122C447.599,67.102,441.292,77.257,431.919,82.723z"/>
			<path fill="#FFFFFF" d="M416.07,15.181c-22.254,0-40.293,18.04-40.293,40.293s18.039,40.293,40.293,40.293
				c22.253,0,40.293-18.04,40.293-40.293S438.323,15.181,416.07,15.181z M416.069,92.233c-20.272,0-36.757-16.488-36.757-36.759
				s16.485-36.759,36.757-36.759c20.264,0,36.758,16.488,36.758,36.759S436.333,92.233,416.069,92.233z"/>
		</g>
		<g enable-background="new    ">
			<path fill="#FFFFFF" d="M386.876,101.494l0.812,5.707l0.496,3.497l0.627-3.475l0.695-5.729h1.754l-2.197,12.272h-1.748
				l-0.817-5.724l-0.501-3.507l-0.501,3.507l-0.817,5.724h-1.895l-2.043-12.272h1.76l0.87,5.697l0.445,3.507l0.497-3.497
				l0.811-5.707H386.876z"/>
			<path fill="#FFFFFF" d="M399.368,109.821c0,0.549-0.058,1.069-0.171,1.562c-0.114,0.493-0.307,0.925-0.576,1.295
				c-0.269,0.37-0.629,0.664-1.078,0.884c-0.449,0.219-1.01,0.328-1.682,0.328c-0.456,0-0.86-0.05-1.212-0.15
				s-0.656-0.24-0.914-0.418c-0.259-0.178-0.476-0.393-0.654-0.644c-0.178-0.251-0.321-0.527-0.428-0.829
				c-0.107-0.301-0.185-0.623-0.229-0.965c-0.046-0.343-0.068-0.696-0.068-1.062v-4.383c0-0.365,0.022-0.719,0.068-1.062
				c0.045-0.343,0.122-0.664,0.229-0.966c0.106-0.301,0.25-0.577,0.428-0.828c0.179-0.251,0.396-0.466,0.654-0.645
				c0.258-0.178,0.562-0.316,0.914-0.417s0.756-0.151,1.212-0.151c0.672,0,1.232,0.11,1.682,0.329s0.81,0.514,1.078,0.884
				c0.27,0.369,0.462,0.801,0.576,1.294c0.113,0.493,0.171,1.014,0.171,1.562V109.821z M394.108,110.26
				c0,0.329,0.03,0.628,0.089,0.897c0.06,0.27,0.158,0.5,0.295,0.691c0.137,0.192,0.316,0.341,0.541,0.445
				c0.224,0.105,0.5,0.157,0.828,0.157c0.329,0,0.605-0.052,0.829-0.157c0.224-0.104,0.404-0.253,0.541-0.445
				c0.138-0.191,0.235-0.422,0.294-0.691c0.061-0.27,0.09-0.568,0.09-0.897V105c0-0.328-0.029-0.627-0.09-0.896
				c-0.059-0.27-0.156-0.5-0.294-0.692c-0.137-0.191-0.317-0.34-0.541-0.445c-0.224-0.104-0.5-0.157-0.829-0.157
				c-0.328,0-0.604,0.053-0.828,0.157c-0.225,0.105-0.404,0.254-0.541,0.445c-0.137,0.192-0.235,0.423-0.295,0.692
				c-0.059,0.27-0.089,0.568-0.089,0.896V110.26z"/>
			<path fill="#FFFFFF" d="M405.808,113.767l-1.837-5.698h-1.314v5.698h-1.754v-12.272h2.191c0.768,0,1.404,0.078,1.911,0.236
				c0.507,0.157,0.91,0.38,1.213,0.667c0.301,0.288,0.514,0.634,0.637,1.038s0.184,0.853,0.184,1.346
				c0,0.302-0.021,0.573-0.064,0.815s-0.102,0.458-0.176,0.647c-0.072,0.189-0.156,0.356-0.246,0.5
				c-0.092,0.145-0.186,0.267-0.283,0.367c-0.225,0.242-0.48,0.415-0.77,0.521l1.979,6.135H405.808z M402.656,106.754h0.438
				c0.329,0,0.628-0.031,0.897-0.093s0.5-0.168,0.692-0.318c0.191-0.15,0.34-0.353,0.444-0.606c0.104-0.253,0.157-0.571,0.157-0.955
				s-0.053-0.702-0.157-0.955c-0.104-0.254-0.253-0.456-0.444-0.606c-0.192-0.15-0.423-0.257-0.692-0.318s-0.568-0.093-0.897-0.093
				h-0.438V106.754z"/>
			<path fill="#FFFFFF" d="M408.793,113.767v-12.272h2.63c0.657,0,1.21,0.059,1.657,0.178s0.808,0.315,1.082,0.589
				c0.273,0.274,0.47,0.635,0.589,1.082s0.178,1,0.178,1.657v4.821c0,0.658-0.059,1.233-0.178,1.727s-0.315,0.903-0.589,1.232
				c-0.274,0.329-0.636,0.575-1.086,0.74c-0.449,0.164-1.005,0.246-1.667,0.246H408.793z M411.423,112.451
				c0.438,0,0.775-0.057,1.014-0.171c0.237-0.114,0.41-0.294,0.521-0.541c0.109-0.246,0.173-0.563,0.191-0.952
				c0.019-0.388,0.027-0.855,0.027-1.403v-3.945c0-0.438-0.009-0.821-0.027-1.15s-0.083-0.603-0.195-0.822
				c-0.112-0.219-0.289-0.383-0.53-0.493c-0.242-0.109-0.587-0.164-1.034-0.164h-0.843v9.643H411.423z"/>
			<path fill="#FFFFFF" d="M419.531,101.494c0.548,0,1.016,0.079,1.403,0.239c0.389,0.16,0.706,0.391,0.952,0.691
				c0.246,0.302,0.427,0.669,0.541,1.103c0.114,0.435,0.171,0.925,0.171,1.473s-0.077,1.017-0.232,1.404s-0.37,0.705-0.644,0.952
				c-0.274,0.246-0.599,0.427-0.973,0.541c-0.375,0.114-0.781,0.171-1.219,0.171h-1.315v5.698h-1.753v-12.272H419.531z
				 M418.654,106.754c0.438,0,0.799-0.03,1.082-0.09c0.283-0.059,0.507-0.157,0.671-0.294c0.165-0.137,0.278-0.317,0.343-0.541
				c0.063-0.224,0.096-0.5,0.096-0.829c0-0.328-0.012-0.627-0.034-0.896s-0.103-0.5-0.239-0.692
				c-0.138-0.191-0.354-0.34-0.651-0.445c-0.297-0.104-0.719-0.157-1.267-0.157h-0.438v3.945H418.654z"/>
			<path fill="#FFFFFF" d="M428.819,113.767l-1.837-5.698h-1.315v5.698h-1.753v-12.272h2.191c0.767,0,1.404,0.078,1.91,0.236
				c0.507,0.157,0.911,0.38,1.213,0.667c0.301,0.288,0.514,0.634,0.637,1.038s0.185,0.853,0.185,1.346
				c0,0.302-0.021,0.573-0.064,0.815c-0.044,0.242-0.103,0.458-0.176,0.647s-0.156,0.356-0.247,0.5
				c-0.092,0.145-0.186,0.267-0.282,0.367c-0.225,0.242-0.481,0.415-0.77,0.521l1.978,6.135H428.819z M425.667,106.754h0.438
				c0.328,0,0.628-0.031,0.897-0.093c0.269-0.062,0.5-0.168,0.691-0.318s0.34-0.353,0.445-0.606
				c0.104-0.253,0.157-0.571,0.157-0.955s-0.053-0.702-0.157-0.955c-0.105-0.254-0.254-0.456-0.445-0.606s-0.423-0.257-0.691-0.318
				c-0.27-0.062-0.569-0.093-0.897-0.093h-0.438V106.754z"/>
			<path fill="#FFFFFF" d="M435.748,108.068h-2.191v4.383h3.068v1.315h-4.821v-12.272h4.821v1.314h-3.068v3.945h2.191V108.068z"/>
			<path fill="#FFFFFF" d="M441.231,113.89c-0.438,0-0.823-0.051-1.156-0.154c-0.333-0.103-0.623-0.239-0.869-0.41
				c-0.247-0.172-0.454-0.365-0.623-0.582s-0.308-0.439-0.417-0.668c-0.256-0.53-0.401-1.135-0.438-1.815l1.747-0.438
				c0.018,0.493,0.091,0.932,0.22,1.315c0.055,0.164,0.124,0.325,0.209,0.482c0.085,0.158,0.188,0.298,0.312,0.422
				c0.123,0.123,0.269,0.223,0.436,0.298s0.36,0.112,0.58,0.112c0.879,0,1.317-0.438,1.317-1.314c0-0.219-0.027-0.424-0.082-0.613
				s-0.137-0.372-0.246-0.548s-0.247-0.347-0.411-0.514c-0.164-0.166-0.356-0.339-0.575-0.517l-2.191-1.754
				c-0.224-0.178-0.419-0.38-0.586-0.605c-0.167-0.227-0.305-0.465-0.414-0.716s-0.19-0.507-0.243-0.768
				c-0.053-0.26-0.079-0.518-0.079-0.773c0-0.393,0.066-0.769,0.198-1.127c0.133-0.358,0.327-0.673,0.585-0.944
				c0.258-0.272,0.578-0.487,0.961-0.647s0.825-0.24,1.327-0.24c0.438,0,0.825,0.046,1.159,0.138
				c0.333,0.091,0.624,0.212,0.87,0.362c0.247,0.151,0.455,0.322,0.624,0.514c0.169,0.192,0.309,0.386,0.419,0.582
				c0.256,0.471,0.401,1.003,0.438,1.596L442.549,105c-0.018-0.41-0.091-0.775-0.22-1.096c-0.055-0.137-0.124-0.271-0.209-0.4
				s-0.188-0.247-0.312-0.35c-0.123-0.103-0.269-0.186-0.436-0.25c-0.167-0.063-0.36-0.096-0.58-0.096
				c-0.229,0-0.427,0.035-0.594,0.106c-0.167,0.07-0.305,0.165-0.412,0.284c-0.107,0.118-0.187,0.258-0.236,0.418
				c-0.051,0.159-0.075,0.328-0.075,0.507c0,0.302,0.07,0.61,0.213,0.927c0.142,0.315,0.364,0.593,0.667,0.831l2.191,1.753
				c0.279,0.224,0.527,0.469,0.744,0.735c0.218,0.267,0.401,0.546,0.553,0.838c0.15,0.292,0.266,0.592,0.343,0.899
				c0.078,0.308,0.117,0.612,0.117,0.913c0,0.379-0.062,0.74-0.186,1.085c-0.123,0.345-0.312,0.649-0.565,0.915
				c-0.254,0.265-0.572,0.476-0.956,0.633C442.212,113.812,441.757,113.89,441.231,113.89z"/>
			<path fill="#FFFFFF" d="M449.128,113.89c-0.438,0-0.823-0.051-1.156-0.154c-0.333-0.103-0.623-0.239-0.869-0.41
				c-0.247-0.172-0.454-0.365-0.623-0.582s-0.308-0.439-0.417-0.668c-0.256-0.53-0.401-1.135-0.438-1.815l1.747-0.438
				c0.018,0.493,0.091,0.932,0.22,1.315c0.055,0.164,0.124,0.325,0.209,0.482c0.085,0.158,0.188,0.298,0.312,0.422
				c0.123,0.123,0.269,0.223,0.436,0.298s0.36,0.112,0.58,0.112c0.879,0,1.317-0.438,1.317-1.314c0-0.219-0.027-0.424-0.082-0.613
				s-0.137-0.372-0.246-0.548s-0.247-0.347-0.411-0.514c-0.164-0.166-0.356-0.339-0.575-0.517l-2.191-1.754
				c-0.224-0.178-0.419-0.38-0.586-0.605c-0.167-0.227-0.305-0.465-0.414-0.716s-0.19-0.507-0.243-0.768
				c-0.053-0.26-0.079-0.518-0.079-0.773c0-0.393,0.066-0.769,0.198-1.127c0.133-0.358,0.327-0.673,0.585-0.944
				c0.258-0.272,0.578-0.487,0.961-0.647s0.825-0.24,1.327-0.24c0.438,0,0.825,0.046,1.159,0.138
				c0.333,0.091,0.624,0.212,0.87,0.362c0.247,0.151,0.455,0.322,0.624,0.514c0.169,0.192,0.309,0.386,0.419,0.582
				c0.256,0.471,0.401,1.003,0.438,1.596L450.445,105c-0.018-0.41-0.091-0.775-0.22-1.096c-0.055-0.137-0.124-0.271-0.209-0.4
				s-0.188-0.247-0.312-0.35c-0.123-0.103-0.269-0.186-0.436-0.25c-0.167-0.063-0.36-0.096-0.58-0.096
				c-0.229,0-0.427,0.035-0.594,0.106c-0.167,0.07-0.305,0.165-0.412,0.284c-0.107,0.118-0.187,0.258-0.236,0.418
				c-0.051,0.159-0.075,0.328-0.075,0.507c0,0.302,0.07,0.61,0.213,0.927c0.142,0.315,0.364,0.593,0.667,0.831l2.191,1.753
				c0.279,0.224,0.527,0.469,0.744,0.735c0.218,0.267,0.401,0.546,0.553,0.838c0.15,0.292,0.266,0.592,0.343,0.899
				c0.078,0.308,0.117,0.612,0.117,0.913c0,0.379-0.062,0.74-0.186,1.085c-0.123,0.345-0.312,0.649-0.565,0.915
				c-0.254,0.265-0.572,0.476-0.956,0.633C450.108,113.812,449.653,113.89,449.128,113.89z"/>
		</g>
	</g>
	<g>
		<path fill="#FFFFFF" d="M89.471,276.365c-22.254,0-40.294,18.039-40.294,40.294c0,22.253,18.041,40.294,40.294,40.294
			c22.253,0,40.294-18.041,40.294-40.294C129.765,294.404,111.725,276.365,89.471,276.365z M94.129,286.628l1.911-2.63
			c-3.533,6.393-0.173,14.234,5.25,18.343c0.951,0.72,1.971,1.349,3.05,1.862c0.576,0.275,1.158,0.511,1.743,0.721
			c0.457,0.165,0.986,0.329,1.461,0.448c6.053,1.468,10.993,0.457,13.924-3.771c-0.886,1.275-4.237,10.017-16.6,7.625
			c-0.274-0.047-0.539-0.147-0.803-0.229c-0.073-0.028-0.155-0.056-0.238-0.082c-0.193-0.063-0.374-0.128-0.558-0.19
			c-4.474-1.646-8.299-5.104-10.171-9.516C91.327,295.055,91.573,290.391,94.129,286.628z M78.782,291.923l3.606-4.952
			c-2.95,4.84-3.379,10.825-1.772,16.195c1.535,5.166,4.822,9.75,8.995,13.127c0.09,0.076,0.18,0.148,0.273,0.223
			c0.384,0.301,0.787,0.61,1.196,0.894c0.183,0.13,0.375,0.266,0.576,0.396c0.092,0.063,0.182,0.127,0.264,0.184
			c0.292,0.191,0.594,0.373,0.895,0.557c0.053,0.029,0.118,0.066,0.173,0.102c0.248,0.138,0.485,0.283,0.741,0.42
			c0.109,0.065,0.219,0.129,0.328,0.186c0.2,0.102,0.392,0.209,0.593,0.3c0.375,0.195,0.766,0.386,1.16,0.562
			c0.082,0.035,0.164,0.07,0.255,0.104c0.312,0.14,0.63,0.277,0.949,0.394c0.13,0.056,0.258,0.101,0.394,0.156
			c0.291,0.103,0.584,0.211,0.876,0.312c0.129,0.046,0.255,0.093,0.385,0.128c0.41,0.137,0.84,0.266,1.26,0.383
			c9.603,2.613,18.653-0.484,23.392-7.142c0,0-5.36,17.178-27.701,13.215c-0.44-0.082-0.851-0.247-1.262-0.386
			c-0.137-0.035-0.264-0.082-0.393-0.129c-0.301-0.102-0.592-0.2-0.876-0.311c-0.126-0.045-0.264-0.1-0.401-0.154
			c-0.32-0.129-0.638-0.256-0.948-0.395c-0.084-0.035-0.174-0.072-0.256-0.109c-0.384-0.173-0.768-0.363-1.151-0.557
			c-0.027-0.01-0.055-0.016-0.083-0.036c-0.181-0.091-0.364-0.192-0.547-0.291c-0.092-0.047-0.192-0.091-0.284-0.146
			c-0.263-0.155-0.529-0.301-0.792-0.457c-0.047-0.018-0.083-0.049-0.13-0.072c-0.302-0.172-0.602-0.367-0.894-0.559
			c-0.093-0.056-0.174-0.117-0.265-0.174c-0.184-0.117-0.367-0.244-0.548-0.371c-0.01-0.011-0.028-0.021-0.037-0.027
			c-0.41-0.285-0.812-0.596-1.205-0.896c-0.083-0.072-0.174-0.146-0.265-0.209c-0.383-0.32-0.775-0.64-1.141-0.979
			c0,0,0-0.01-0.009-0.01c-0.01-0.011-0.019-0.025-0.038-0.037c-0.337-0.31-0.666-0.618-0.986-0.938
			c-0.091-0.092-0.163-0.173-0.255-0.256c-0.328-0.336-0.639-0.674-0.95-1.021c-0.868-0.758-1.57-1.875-2.209-2.812
			c-0.704-1.034-1.325-2.109-1.881-3.223C74.508,306.469,74.372,298.113,78.782,291.923z M83.859,348.355
			c-0.456-0.096-0.886-0.26-1.323-0.396c-0.11-0.029-0.211-0.064-0.31-0.093c-0.431-0.138-0.858-0.283-1.287-0.438
			c-0.047-0.021-0.093-0.037-0.146-0.057c-0.375-0.145-0.767-0.292-1.15-0.447c-0.101-0.037-0.203-0.072-0.301-0.119
			c-0.412-0.17-0.823-0.344-1.224-0.529c-0.083-0.025-0.155-0.062-0.228-0.1c-0.348-0.164-0.695-0.328-1.042-0.504
			c-0.091-0.042-0.183-0.089-0.265-0.135c-0.055-0.027-0.11-0.045-0.155-0.073c-0.228-0.118-0.437-0.235-0.665-0.356
			c-0.155-0.086-0.33-0.18-0.504-0.272c-0.309-0.172-0.62-0.344-0.921-0.526c-0.118-0.07-0.228-0.139-0.338-0.199
			c-0.42-0.256-0.83-0.514-1.232-0.776c-0.109-0.074-0.219-0.155-0.338-0.228c-0.265-0.178-0.53-0.351-0.786-0.531
			c-0.027-0.02-0.054-0.037-0.082-0.057c-0.092-0.072-0.182-0.146-0.282-0.22c-0.266-0.2-0.55-0.393-0.814-0.593
			c-0.127-0.104-0.255-0.2-0.374-0.303c-0.246-0.19-0.484-0.385-0.721-0.574c-0.128-0.104-0.247-0.191-0.357-0.291
			c-0.301-0.246-0.592-0.495-0.876-0.749c-0.046-0.045-0.1-0.092-0.155-0.14c-0.009-0.01-0.009-0.01-0.019-0.018
			c-0.321-0.294-0.639-0.586-0.949-0.888c-0.093-0.091-0.183-0.181-0.284-0.272c-0.237-0.228-0.465-0.457-0.694-0.693
			c-0.091-0.092-0.191-0.19-0.283-0.282c-0.293-0.312-0.585-0.621-0.867-0.933c-0.009-0.01-0.028-0.018-0.038-0.037
			c0-0.01-0.009-0.01-0.009-0.021c-0.301-0.327-0.584-0.657-0.858-0.995c-0.081-0.092-0.163-0.191-0.237-0.281
			c-0.211-0.256-0.411-0.513-0.612-0.771c-0.081-0.108-0.155-0.208-0.248-0.319c-0.218-0.291-0.437-0.593-0.656-0.894
			c-0.037-0.054-0.082-0.108-0.12-0.166c0-0.005-0.019-0.015-0.019-0.024c-0.255-0.355-0.492-0.713-0.721-1.066
			c-0.072-0.11-0.145-0.221-0.218-0.34c-0.156-0.266-0.329-0.527-0.494-0.795c-0.083-0.137-0.164-0.271-0.238-0.409
			c-0.145-0.244-0.292-0.503-0.429-0.759c-0.082-0.146-0.166-0.282-0.229-0.43c-0.044-0.082-0.1-0.154-0.135-0.236
			c-0.073-0.139-0.137-0.284-0.21-0.422c-0.11-0.218-0.22-0.438-0.329-0.656c-4.473-9.2-5.095-20.426,0.996-28.971l4.73-5.888
			c-5.388,10.132-3.16,22.587,3.342,31.673c0.229,0.338,0.466,0.656,0.72,0.984c0.073,0.102,0.146,0.199,0.228,0.291
			c0.211,0.268,0.422,0.529,0.622,0.795c0.082,0.091,0.155,0.182,0.237,0.273c0.283,0.348,0.567,0.687,0.868,1.014
			c0,0.021,0.018,0.027,0.037,0.046c0.283,0.312,0.574,0.622,0.859,0.923c0.091,0.1,0.183,0.191,0.282,0.281
			c0.219,0.24,0.457,0.477,0.694,0.705c0.093,0.091,0.183,0.182,0.275,0.271c0.328,0.301,0.649,0.602,0.976,0.904
			c0.037,0.036,0.073,0.064,0.1,0.092c0.31,0.274,0.622,0.539,0.932,0.807c0.11,0.088,0.229,0.18,0.338,0.271
			c0.238,0.203,0.484,0.403,0.741,0.604c0.117,0.102,0.237,0.191,0.364,0.281c0.275,0.202,0.548,0.411,0.831,0.612
			c0.082,0.063,0.174,0.138,0.274,0.201c0.293,0.198,0.585,0.401,0.876,0.594c0.11,0.072,0.22,0.154,0.329,0.229
			c0.41,0.254,0.822,0.521,1.241,0.767c0.102,0.067,0.211,0.122,0.311,0.187c0.319,0.181,0.63,0.363,0.95,0.537
			c0.173,0.098,0.347,0.18,0.519,0.284c0.265,0.134,0.529,0.28,0.794,0.418c0.1,0.056,0.202,0.101,0.301,0.146
			c0.338,0.175,0.676,0.328,1.023,0.494c0.082,0.035,0.155,0.072,0.248,0.108c0.392,0.183,0.792,0.356,1.204,0.521
			c0.11,0.045,0.202,0.082,0.311,0.132c0.374,0.145,0.748,0.291,1.122,0.428c0.054,0.026,0.119,0.044,0.173,0.062
			c0.421,0.146,0.851,0.293,1.269,0.431c0.112,0.03,0.22,0.063,0.329,0.103c0.438,0.139,0.877,0.283,1.324,0.395
			c11.861,2.84,24.443,0.549,31.618-8.582C121.475,331.363,112.793,353.98,83.859,348.355z"/>
		<g enable-background="new    ">
			<path fill="#FFFFFF" d="M71.282,365.929v9.204c0,0.548-0.034,1.016-0.103,1.404c-0.068,0.388-0.199,0.705-0.391,0.952
				c-0.191,0.246-0.458,0.427-0.801,0.541c-0.342,0.114-0.788,0.171-1.335,0.171h-0.876v-1.315c0.329,0,0.605-0.009,0.829-0.027
				c0.224-0.018,0.404-0.082,0.541-0.191c0.137-0.109,0.235-0.283,0.294-0.521c0.06-0.237,0.089-0.575,0.089-1.014v-9.204H71.282z"
				/>
			<path fill="#FFFFFF" d="M79.829,374.256c0,0.549-0.057,1.069-0.171,1.562c-0.114,0.493-0.306,0.925-0.576,1.295
				c-0.183,0.251-0.409,0.468-0.678,0.65c0.109,0.109,0.247,0.21,0.411,0.302c0.165,0.091,0.356,0.137,0.576,0.137v1.315
				c-0.219,0-0.426-0.032-0.62-0.097c-0.194-0.063-0.38-0.152-0.558-0.267s-0.352-0.254-0.521-0.418
				c-0.155-0.15-0.308-0.315-0.459-0.493c-0.278,0.055-0.582,0.082-0.911,0.082c-0.457,0-0.861-0.05-1.212-0.15
				s-0.656-0.24-0.914-0.418c-0.258-0.178-0.476-0.393-0.654-0.644c-0.178-0.251-0.321-0.527-0.428-0.829
				c-0.107-0.301-0.184-0.623-0.229-0.965c-0.046-0.343-0.068-0.696-0.068-1.062v-4.383c0-0.365,0.022-0.719,0.068-1.062
				c0.045-0.343,0.122-0.664,0.229-0.966c0.107-0.301,0.25-0.577,0.428-0.828c0.178-0.251,0.396-0.466,0.654-0.645
				c0.258-0.178,0.562-0.316,0.914-0.417s0.756-0.151,1.212-0.151c0.671,0,1.231,0.11,1.681,0.329s0.81,0.514,1.079,0.884
				c0.27,0.369,0.461,0.801,0.576,1.294c0.114,0.493,0.171,1.014,0.171,1.562V374.256z M74.569,374.694
				c0,0.329,0.03,0.628,0.089,0.897c0.059,0.27,0.157,0.5,0.294,0.691c0.137,0.192,0.317,0.341,0.541,0.445
				c0.224,0.105,0.5,0.157,0.829,0.157s0.605-0.052,0.829-0.157c0.224-0.104,0.404-0.253,0.541-0.445
				c0.137-0.191,0.235-0.422,0.294-0.691c0.06-0.27,0.089-0.568,0.089-0.897v-5.26c0-0.328-0.03-0.627-0.089-0.896
				c-0.059-0.27-0.157-0.5-0.294-0.692c-0.137-0.191-0.317-0.34-0.541-0.445c-0.224-0.104-0.5-0.157-0.829-0.157
				s-0.605,0.053-0.829,0.157c-0.224,0.105-0.404,0.254-0.541,0.445c-0.137,0.192-0.235,0.423-0.294,0.692
				c-0.06,0.27-0.089,0.568-0.089,0.896V374.694z"/>
			<path fill="#FFFFFF" d="M84.87,378.331c-0.512,0-0.953-0.061-1.325-0.182c-0.373-0.12-0.688-0.287-0.949-0.5
				c-0.26-0.212-0.47-0.463-0.63-0.753c-0.16-0.29-0.284-0.602-0.374-0.935c-0.089-0.333-0.149-0.683-0.181-1.048
				c-0.032-0.365-0.048-0.73-0.048-1.096v-7.89h1.753v7.895c0,0.219,0.002,0.447,0.007,0.685c0.004,0.238,0.024,0.47,0.058,0.696
				c0.034,0.226,0.086,0.441,0.154,0.647c0.068,0.205,0.167,0.385,0.298,0.538c0.13,0.152,0.295,0.275,0.497,0.366
				c0.201,0.092,0.447,0.138,0.74,0.138c0.292,0,0.539-0.046,0.74-0.138c0.201-0.091,0.366-0.214,0.496-0.366
				c0.13-0.153,0.229-0.333,0.298-0.538c0.068-0.206,0.12-0.422,0.154-0.647c0.034-0.227,0.054-0.458,0.058-0.696
				c0.005-0.237,0.007-0.466,0.007-0.685v-7.895h1.753v7.89c0,0.365-0.016,0.73-0.048,1.096c-0.032,0.365-0.092,0.715-0.182,1.048
				c-0.089,0.333-0.213,0.645-0.373,0.935c-0.16,0.29-0.37,0.541-0.63,0.753c-0.26,0.213-0.576,0.38-0.948,0.5
				C85.823,378.271,85.381,378.331,84.87,378.331z"/>
			<path fill="#FFFFFF" d="M94.074,372.503h-2.191v4.383h3.068v1.315h-4.822v-12.272h4.822v1.314h-3.068v3.945h2.191V372.503z"/>
			<path fill="#FFFFFF" d="M101.172,378.201l-1.837-5.698H98.02v5.698h-1.753v-12.272h2.191c0.767,0,1.404,0.078,1.91,0.236
				c0.507,0.157,0.911,0.38,1.213,0.667c0.301,0.288,0.514,0.634,0.637,1.038s0.185,0.853,0.185,1.346
				c0,0.302-0.021,0.573-0.064,0.815c-0.044,0.242-0.103,0.458-0.176,0.647s-0.156,0.356-0.247,0.5
				c-0.092,0.145-0.186,0.267-0.282,0.367c-0.225,0.242-0.481,0.415-0.77,0.521l1.978,6.135H101.172z M98.02,371.188h0.438
				c0.328,0,0.628-0.031,0.897-0.093c0.269-0.062,0.5-0.168,0.691-0.318s0.34-0.353,0.445-0.606
				c0.104-0.253,0.157-0.571,0.157-0.955s-0.053-0.702-0.157-0.955c-0.105-0.254-0.254-0.456-0.445-0.606s-0.423-0.257-0.691-0.318
				c-0.27-0.062-0.569-0.093-0.897-0.093H98.02V371.188z"/>
			<path fill="#FFFFFF" d="M106.348,378.201v-3.945l-2.63-8.327h1.753l1.756,6.136l1.751-6.136h1.565l-2.442,8.327v3.945H106.348z"
				/>
		</g>
	</g>
	<g>
		<g>
			<path fill="#FFFFFF" d="M262.136,196.294c0.712,0,1.255-0.542,1.255-1.255c0-0.71-0.543-1.252-1.255-1.252
				c-0.71,0-1.27,0.559-1.27,1.252C260.866,195.734,261.426,196.294,262.136,196.294z"/>
			<path fill="#FFFFFF" d="M245.962,195.393c0.897,0.627,1.693,0.899,2.709,0.899c2.048,0,3.235-1.017,3.235-2.592
				c0-1.39-0.916-2.168-2.845-2.625l-1.541-0.355c-0.644-0.153-0.949-0.425-0.949-0.864c0-0.575,0.474-0.948,1.287-0.948
				c1.203,0,2.134,0.711,2.473,1.947h1.151v-2.964h-0.965l-0.374,0.626c-0.745-0.541-1.524-0.812-2.42-0.812
				c-1.88,0-3.101,1.034-3.101,2.507c0,1.254,0.847,2.051,2.593,2.474l1.251,0.304c0.967,0.238,1.426,0.49,1.426,1.05
				c0,0.611-0.527,1.051-1.426,1.051c-1.405,0-2.371-0.797-2.693-2.253h-1.235v3.267h1.118L245.962,195.393z"/>
			<path fill="#FFFFFF" d="M243.976,165.178c-2.012,2.076-3.413,3.765-3.236,3.939c0.171,0.174,1.859-1.226,3.936-3.238
				c0.046,2.892,0.251,5.076,0.498,5.076c0.244,0,0.45-2.185,0.493-5.076c2.077,2.013,3.768,3.413,3.94,3.24
				c0.176-0.176-1.228-1.865-3.238-3.941c2.892-0.044,5.074-0.248,5.074-0.495s-2.186-0.451-5.074-0.495
				c2.012-2.076,3.412-3.766,3.238-3.94c-0.174-0.172-1.863,1.226-3.94,3.238c-0.044-2.89-0.249-5.075-0.493-5.075
				c-0.246,0-0.451,2.185-0.498,5.075c-2.076-2.012-3.765-3.412-3.936-3.238c-0.177,0.175,1.224,1.864,3.236,3.94
				c-2.892,0.044-5.075,0.25-5.075,0.495C238.901,164.929,241.085,165.134,243.976,165.178z"/>
			<path fill="#FFFFFF" d="M253.7,195.393c0.897,0.627,1.694,0.899,2.71,0.899c2.049,0,3.236-1.017,3.236-2.592
				c0-1.39-0.916-2.168-2.849-2.625l-1.541-0.355c-0.642-0.153-0.946-0.425-0.946-0.864c0-0.575,0.475-0.948,1.287-0.948
				c1.201,0,2.133,0.711,2.473,1.947h1.152v-2.964h-0.969l-0.372,0.626c-0.743-0.541-1.524-0.812-2.421-0.812
				c-1.881,0-3.104,1.034-3.104,2.507c0,1.254,0.849,2.051,2.595,2.474l1.252,0.304c0.967,0.238,1.423,0.49,1.423,1.05
				c0,0.611-0.523,1.051-1.423,1.051c-1.405,0-2.369-0.797-2.69-2.253h-1.234l-0.002,3.267h1.117L253.7,195.393z"/>
			<path fill="#FFFFFF" d="M246.531,140.743c-22.253,0-40.293,18.04-40.293,40.293s18.04,40.293,40.293,40.293
				c22.253,0,40.293-18.04,40.293-40.293S268.784,140.743,246.531,140.743z M237.757,157.112c4.124-4.124,20.64-5.602,20.64-5.602
				s-1.582,16.411-5.707,20.536c-4.123,4.123-10.809,4.123-14.933,0C233.634,167.921,233.634,161.236,237.757,157.112z
				 M272.988,200.417h-52.914v-20.896h52.914V200.417z"/>
			<path fill="#FFFFFF" d="M228.922,191.211l1.847,0.423c1.321,0.305,1.931,0.813,1.931,1.693c0,0.95-0.812,1.475-2.337,1.475
				c-2.083,0-3.437-1.219-3.811-3.49h-1.322l-0.001,4.692h1.169l0.373-1.067c1.254,0.932,2.49,1.406,3.778,1.406
				c2.54,0,4.251-1.524,4.251-3.657c0-1.814-1.203-2.982-3.625-3.541l-2.287-0.525c-1.134-0.254-1.676-0.677-1.676-1.475
				c0-0.897,0.761-1.455,2.151-1.455c1.846,0,3.167,1.151,3.556,3.252h1.287v-4.303h-1.016l-0.592,0.83
				c-1.016-0.795-2.067-1.168-3.303-1.168c-2.507,0-4.099,1.423-4.099,3.538C225.196,189.668,226.382,190.618,228.922,191.211z"/>
			<path fill="#FFFFFF" d="M239.457,191.009c-0.389,0.255-1.118,0.338-2.065,0.627c-1.711,0.526-2.558,1.168-2.558,2.489
				c0,1.253,0.965,2.187,2.422,2.187c1.185,0,2.066-0.392,2.742-1.271c0.254,0.866,0.848,1.272,1.847,1.272
				c1.525,0,2.101-0.915,2.101-2.932c0-0.118,0-0.236,0-0.356h-1.034c0,1.322-0.034,1.864-0.525,1.864
				c-0.254,0-0.39-0.17-0.39-0.575v-3.558c0-1.168-0.067-1.932-0.88-2.474c-0.558-0.372-1.439-0.575-2.591-0.575
				c-2.066,0-3.286,0.897-3.286,2.117c0,0.78,0.559,1.322,1.355,1.322c0.711,0,1.186-0.442,1.186-1.084
				c0-0.578-0.39-0.933-1.067-0.933c-0.016,0-0.034,0-0.05,0c0.406-0.357,0.914-0.49,1.609-0.49c1.118,0,1.744,0.455,1.744,1.286
				C240.017,190.433,239.865,190.738,239.457,191.009z M239.967,192.788c0,1.355-0.73,2.1-1.796,2.1
				c-0.677,0-1.051-0.357-1.051-0.966c0-1.068,1.068-1.271,2.847-2.1V192.788z"/>
		</g>
		<g enable-background="new    ">
			<path fill="#FFFFFF" d="M228.469,241.825c-0.438,0-0.824-0.051-1.157-0.154c-0.333-0.103-0.623-0.239-0.869-0.41
				c-0.246-0.172-0.454-0.365-0.623-0.582s-0.308-0.439-0.417-0.668c-0.255-0.53-0.401-1.135-0.438-1.815l1.746-0.438
				c0.019,0.493,0.092,0.932,0.22,1.315c0.055,0.164,0.125,0.325,0.209,0.482c0.084,0.158,0.188,0.298,0.312,0.422
				c0.124,0.123,0.269,0.223,0.436,0.298s0.36,0.112,0.58,0.112c0.878,0,1.318-0.438,1.318-1.314c0-0.219-0.027-0.424-0.082-0.613
				c-0.055-0.189-0.137-0.372-0.247-0.548c-0.11-0.176-0.247-0.347-0.411-0.514c-0.165-0.166-0.356-0.339-0.575-0.517l-2.191-1.754
				c-0.224-0.178-0.419-0.38-0.586-0.605c-0.167-0.227-0.305-0.465-0.414-0.716c-0.11-0.251-0.191-0.507-0.243-0.768
				c-0.053-0.26-0.079-0.518-0.079-0.773c0-0.393,0.066-0.769,0.198-1.127c0.132-0.358,0.327-0.673,0.584-0.944
				c0.258-0.272,0.578-0.487,0.961-0.647c0.383-0.16,0.825-0.24,1.327-0.24c0.439,0,0.825,0.046,1.159,0.138
				c0.333,0.091,0.624,0.212,0.871,0.362c0.247,0.151,0.455,0.322,0.624,0.514c0.169,0.192,0.309,0.386,0.418,0.582
				c0.256,0.471,0.402,1.003,0.439,1.596l-1.753,0.438c-0.019-0.41-0.092-0.775-0.22-1.096c-0.055-0.137-0.125-0.271-0.209-0.4
				c-0.084-0.13-0.189-0.247-0.312-0.35c-0.124-0.103-0.269-0.186-0.436-0.25c-0.167-0.063-0.36-0.096-0.58-0.096
				c-0.229,0-0.427,0.035-0.594,0.106c-0.167,0.07-0.304,0.165-0.412,0.284c-0.108,0.118-0.187,0.258-0.237,0.418
				c-0.05,0.159-0.076,0.328-0.076,0.507c0,0.302,0.071,0.61,0.213,0.927c0.142,0.315,0.364,0.593,0.667,0.831l2.191,1.753
				c0.279,0.224,0.527,0.469,0.745,0.735s0.402,0.546,0.553,0.838s0.265,0.592,0.343,0.899c0.078,0.308,0.117,0.612,0.117,0.913
				c0,0.379-0.062,0.74-0.186,1.085c-0.123,0.345-0.312,0.649-0.565,0.915c-0.253,0.265-0.572,0.476-0.956,0.633
				C229.449,241.747,228.994,241.825,228.469,241.825z"/>
			<path fill="#FFFFFF" d="M235.002,238.634l-0.615,3.068h-1.751l2.569-12.272h1.811l2.632,12.272h-1.688l-0.659-3.068H235.002z
				 M237.019,237.319l-0.876-5.26l-0.876,5.26H237.019z"/>
			<path fill="#FFFFFF" d="M244.255,241.825c-0.438,0-0.824-0.051-1.157-0.154c-0.333-0.103-0.623-0.239-0.869-0.41
				c-0.246-0.172-0.454-0.365-0.623-0.582s-0.308-0.439-0.417-0.668c-0.255-0.53-0.401-1.135-0.438-1.815l1.746-0.438
				c0.019,0.493,0.092,0.932,0.22,1.315c0.055,0.164,0.125,0.325,0.209,0.482c0.084,0.158,0.188,0.298,0.312,0.422
				c0.124,0.123,0.269,0.223,0.436,0.298s0.36,0.112,0.58,0.112c0.878,0,1.318-0.438,1.318-1.314c0-0.219-0.027-0.424-0.082-0.613
				c-0.055-0.189-0.137-0.372-0.247-0.548c-0.11-0.176-0.247-0.347-0.411-0.514c-0.165-0.166-0.356-0.339-0.575-0.517l-2.191-1.754
				c-0.224-0.178-0.419-0.38-0.586-0.605c-0.167-0.227-0.305-0.465-0.414-0.716c-0.11-0.251-0.191-0.507-0.243-0.768
				c-0.053-0.26-0.079-0.518-0.079-0.773c0-0.393,0.066-0.769,0.198-1.127c0.132-0.358,0.327-0.673,0.584-0.944
				c0.258-0.272,0.578-0.487,0.961-0.647c0.383-0.16,0.825-0.24,1.327-0.24c0.439,0,0.825,0.046,1.159,0.138
				c0.333,0.091,0.624,0.212,0.871,0.362c0.247,0.151,0.455,0.322,0.624,0.514c0.169,0.192,0.309,0.386,0.418,0.582
				c0.256,0.471,0.402,1.003,0.439,1.596l-1.753,0.438c-0.019-0.41-0.092-0.775-0.22-1.096c-0.055-0.137-0.125-0.271-0.209-0.4
				c-0.084-0.13-0.189-0.247-0.312-0.35c-0.124-0.103-0.269-0.186-0.436-0.25c-0.167-0.063-0.36-0.096-0.58-0.096
				c-0.229,0-0.427,0.035-0.594,0.106c-0.167,0.07-0.304,0.165-0.412,0.284c-0.108,0.118-0.187,0.258-0.237,0.418
				c-0.05,0.159-0.076,0.328-0.076,0.507c0,0.302,0.071,0.61,0.213,0.927c0.142,0.315,0.364,0.593,0.667,0.831l2.191,1.753
				c0.279,0.224,0.527,0.469,0.745,0.735s0.402,0.546,0.553,0.838s0.265,0.592,0.343,0.899c0.078,0.308,0.117,0.612,0.117,0.913
				c0,0.379-0.062,0.74-0.186,1.085c-0.123,0.345-0.312,0.649-0.565,0.915c-0.253,0.265-0.572,0.476-0.956,0.633
				C245.235,241.747,244.78,241.825,244.255,241.825z"/>
			<path fill="#FFFFFF" d="M252.151,241.825c-0.438,0-0.823-0.051-1.156-0.154c-0.333-0.103-0.623-0.239-0.869-0.41
				c-0.247-0.172-0.454-0.365-0.623-0.582s-0.308-0.439-0.417-0.668c-0.255-0.53-0.401-1.135-0.438-1.815l1.747-0.438
				c0.018,0.493,0.091,0.932,0.22,1.315c0.055,0.164,0.124,0.325,0.209,0.482c0.085,0.158,0.188,0.298,0.312,0.422
				c0.123,0.123,0.269,0.223,0.436,0.298s0.36,0.112,0.58,0.112c0.879,0,1.317-0.438,1.317-1.314c0-0.219-0.027-0.424-0.082-0.613
				s-0.137-0.372-0.246-0.548s-0.247-0.347-0.411-0.514c-0.164-0.166-0.356-0.339-0.575-0.517l-2.191-1.754
				c-0.225-0.178-0.419-0.38-0.586-0.605c-0.167-0.227-0.305-0.465-0.414-0.716c-0.11-0.251-0.191-0.507-0.243-0.768
				c-0.053-0.26-0.079-0.518-0.079-0.773c0-0.393,0.066-0.769,0.198-1.127c0.132-0.358,0.327-0.673,0.584-0.944
				c0.258-0.272,0.578-0.487,0.961-0.647s0.825-0.24,1.327-0.24c0.438,0,0.825,0.046,1.159,0.138
				c0.333,0.091,0.624,0.212,0.87,0.362c0.247,0.151,0.455,0.322,0.624,0.514c0.169,0.192,0.309,0.386,0.419,0.582
				c0.256,0.471,0.401,1.003,0.438,1.596l-1.754,0.438c-0.018-0.41-0.091-0.775-0.22-1.096c-0.055-0.137-0.124-0.271-0.209-0.4
				s-0.188-0.247-0.312-0.35c-0.123-0.103-0.269-0.186-0.436-0.25c-0.167-0.063-0.36-0.096-0.58-0.096
				c-0.229,0-0.427,0.035-0.594,0.106c-0.167,0.07-0.305,0.165-0.412,0.284c-0.107,0.118-0.187,0.258-0.236,0.418
				c-0.051,0.159-0.075,0.328-0.075,0.507c0,0.302,0.07,0.61,0.213,0.927c0.142,0.315,0.364,0.593,0.667,0.831l2.191,1.753
				c0.279,0.224,0.527,0.469,0.744,0.735c0.218,0.267,0.401,0.546,0.553,0.838c0.15,0.292,0.266,0.592,0.343,0.899
				c0.078,0.308,0.117,0.612,0.117,0.913c0,0.379-0.062,0.74-0.186,1.085c-0.123,0.345-0.312,0.649-0.565,0.915
				c-0.254,0.265-0.572,0.476-0.956,0.633C253.132,241.747,252.677,241.825,252.151,241.825z"/>
			<path fill="#FFFFFF" d="M263.064,241.825c-0.421,0-0.794-0.071-1.12-0.216c-0.326-0.144-0.602-0.339-0.825-0.585
				c-0.224-0.247-0.394-0.538-0.51-0.873c-0.117-0.336-0.175-0.695-0.175-1.079c0-0.283,0.034-0.575,0.103-0.877
				c0.068-0.301,0.175-0.603,0.318-0.903c0.144-0.302,0.326-0.599,0.548-0.891s0.482-0.57,0.784-0.836
				c-0.137-0.278-0.283-0.57-0.438-0.876c-0.155-0.307-0.298-0.611-0.428-0.915c-0.13-0.303-0.237-0.602-0.322-0.894
				c-0.084-0.292-0.126-0.565-0.126-0.821c0-0.379,0.059-0.735,0.178-1.068c0.118-0.334,0.29-0.626,0.514-0.877
				s0.499-0.448,0.825-0.593c0.326-0.144,0.697-0.216,1.113-0.216c0.36,0,0.7,0.057,1.02,0.168c0.32,0.112,0.6,0.269,0.84,0.47
				c0.239,0.2,0.428,0.443,0.564,0.729c0.137,0.286,0.206,0.603,0.206,0.949c0,0.319-0.07,0.66-0.21,1.021
				c-0.14,0.36-0.315,0.719-0.528,1.072c-0.213,0.354-0.45,0.692-0.711,1.015s-0.51,0.603-0.748,0.84l1.754,2.63
				c0.092-0.206,0.173-0.488,0.242-0.848c0.069-0.358,0.136-0.808,0.201-1.348h1.753c0,0.224-0.033,0.486-0.1,0.788
				c-0.066,0.301-0.153,0.605-0.26,0.914c-0.107,0.308-0.226,0.604-0.353,0.891c-0.128,0.285-0.254,0.521-0.377,0.708
				c0.045,0.06,0.107,0.127,0.185,0.202c0.078,0.075,0.166,0.146,0.264,0.209c0.099,0.064,0.202,0.119,0.312,0.165
				c0.109,0.045,0.22,0.068,0.329,0.068v1.876c-0.22,0-0.426-0.033-0.62-0.099c-0.194-0.066-0.38-0.154-0.558-0.264
				c-0.179-0.11-0.351-0.236-0.518-0.381c-0.167-0.144-0.332-0.295-0.496-0.455c-0.151,0.191-0.324,0.363-0.521,0.514
				s-0.408,0.276-0.634,0.377s-0.465,0.177-0.716,0.229C263.573,241.799,263.319,241.825,263.064,241.825z M262.852,236.881
				c-0.096,0.128-0.185,0.278-0.267,0.452c-0.082,0.173-0.153,0.358-0.213,0.555c-0.059,0.196-0.104,0.396-0.137,0.599
				s-0.048,0.398-0.048,0.586c0,0.178,0.016,0.346,0.048,0.503c0.032,0.158,0.082,0.297,0.15,0.418
				c0.069,0.121,0.159,0.217,0.271,0.288c0.112,0.07,0.248,0.105,0.408,0.105c0.22,0,0.423-0.045,0.61-0.137
				c0.188-0.092,0.351-0.192,0.488-0.303c0.16-0.128,0.307-0.274,0.439-0.439c-0.311-0.462-0.591-0.881-0.842-1.257
				c-0.104-0.155-0.209-0.312-0.314-0.469s-0.2-0.299-0.283-0.424c-0.084-0.125-0.154-0.23-0.212-0.315
				C262.895,236.958,262.861,236.903,262.852,236.881z M263.29,234.689c0.073-0.092,0.151-0.21,0.236-0.356s0.167-0.31,0.247-0.489
				c0.079-0.181,0.156-0.371,0.229-0.572c0.073-0.201,0.139-0.399,0.195-0.596c0.058-0.196,0.102-0.386,0.134-0.568
				s0.048-0.345,0.048-0.486c0-0.261-0.077-0.472-0.232-0.634s-0.37-0.243-0.644-0.243c-0.146,0-0.274,0.037-0.384,0.109
				c-0.109,0.073-0.201,0.171-0.274,0.291c-0.073,0.121-0.128,0.262-0.164,0.422c-0.037,0.159-0.055,0.324-0.055,0.493
				c0,0.159,0.02,0.348,0.058,0.564c0.039,0.217,0.09,0.445,0.151,0.686c0.062,0.239,0.132,0.479,0.212,0.719
				C263.127,234.268,263.208,234.488,263.29,234.689z"/>
		</g>
		<g enable-background="new    ">
			<path fill="#FFFFFF" d="M225.266,251.346v0.438c0,0.549-0.059,1.069-0.178,1.562c-0.119,0.493-0.315,0.925-0.589,1.295
				s-0.635,0.664-1.082,0.884c-0.447,0.219-1,0.328-1.657,0.328c-0.658,0-1.21-0.111-1.657-0.335
				c-0.448-0.224-0.809-0.536-1.083-0.936s-0.47-0.875-0.589-1.428s-0.178-1.157-0.178-1.814v-3.5c0-0.657,0.059-1.263,0.178-1.814
				c0.119-0.553,0.315-1.027,0.589-1.425s0.635-0.708,1.083-0.932c0.447-0.224,1-0.336,1.657-0.336c0.621,0,1.154,0.1,1.599,0.298
				c0.445,0.199,0.808,0.477,1.089,0.833c0.281,0.355,0.487,0.784,0.62,1.283c0.133,0.5,0.199,1.052,0.199,1.654h-1.753
				c0-0.438-0.03-0.821-0.089-1.15c-0.059-0.329-0.157-0.603-0.294-0.822c-0.137-0.219-0.317-0.383-0.541-0.493
				c-0.224-0.109-0.5-0.164-0.829-0.164s-0.605,0.055-0.829,0.164c-0.224,0.11-0.404,0.274-0.541,0.493
				c-0.137,0.22-0.235,0.493-0.294,0.822c-0.06,0.329-0.089,0.712-0.089,1.15v4.383c0,0.329,0.03,0.651,0.089,0.966
				c0.059,0.315,0.157,0.596,0.294,0.843c0.137,0.246,0.317,0.445,0.541,0.596c0.224,0.15,0.5,0.226,0.829,0.226
				s0.605-0.075,0.829-0.226s0.404-0.35,0.541-0.596c0.137-0.247,0.235-0.527,0.294-0.843c0.06-0.314,0.089-0.637,0.089-0.966
				v-0.438H225.266z"/>
			<path fill="#FFFFFF" d="M233.594,251.783c0,0.549-0.057,1.069-0.171,1.562c-0.114,0.493-0.306,0.925-0.576,1.295
				c-0.269,0.37-0.629,0.664-1.079,0.884c-0.45,0.219-1.01,0.328-1.681,0.328c-0.457,0-0.861-0.05-1.212-0.15
				s-0.656-0.24-0.914-0.418c-0.258-0.178-0.476-0.393-0.654-0.644c-0.178-0.251-0.321-0.527-0.428-0.829
				c-0.107-0.301-0.184-0.623-0.229-0.965c-0.046-0.343-0.068-0.696-0.068-1.062V247.4c0-0.365,0.022-0.719,0.068-1.062
				c0.045-0.343,0.122-0.664,0.229-0.966c0.107-0.301,0.25-0.577,0.428-0.828c0.178-0.251,0.396-0.466,0.654-0.645
				c0.258-0.178,0.562-0.316,0.914-0.417s0.756-0.151,1.212-0.151c0.671,0,1.231,0.11,1.681,0.329s0.81,0.514,1.079,0.884
				c0.27,0.369,0.461,0.801,0.576,1.294c0.114,0.493,0.171,1.014,0.171,1.562V251.783z M228.334,252.222
				c0,0.329,0.03,0.628,0.089,0.897c0.059,0.27,0.157,0.5,0.294,0.691c0.137,0.192,0.317,0.341,0.541,0.445
				c0.224,0.105,0.5,0.157,0.829,0.157s0.605-0.052,0.829-0.157c0.224-0.104,0.404-0.253,0.541-0.445
				c0.137-0.191,0.235-0.422,0.294-0.691c0.06-0.27,0.089-0.568,0.089-0.897v-5.26c0-0.328-0.03-0.627-0.089-0.896
				c-0.059-0.27-0.157-0.5-0.294-0.692c-0.137-0.191-0.317-0.34-0.541-0.445c-0.224-0.104-0.5-0.157-0.829-0.157
				s-0.605,0.053-0.829,0.157c-0.224,0.105-0.404,0.254-0.541,0.445c-0.137,0.192-0.235,0.423-0.294,0.692
				c-0.06,0.27-0.089,0.568-0.089,0.896V252.222z"/>
			<path fill="#FFFFFF" d="M238.635,255.729l-1.753-9.684v9.684h-1.753v-12.272h2.377l1.746,9.407l1.745-9.407h2.461v12.272h-1.754
				v-9.684l-1.753,9.684H238.635z"/>
			<path fill="#FFFFFF" d="M248.278,243.456c0.548,0,1.016,0.079,1.403,0.239c0.389,0.16,0.706,0.391,0.952,0.691
				c0.246,0.302,0.427,0.669,0.541,1.103c0.114,0.435,0.171,0.925,0.171,1.473s-0.077,1.017-0.232,1.404s-0.37,0.705-0.644,0.952
				c-0.274,0.246-0.599,0.427-0.973,0.541c-0.375,0.114-0.781,0.171-1.219,0.171h-1.315v5.698h-1.753v-12.272H248.278z
				 M247.401,248.716c0.438,0,0.799-0.03,1.082-0.09c0.283-0.059,0.507-0.157,0.671-0.294c0.165-0.137,0.278-0.317,0.343-0.541
				c0.063-0.224,0.096-0.5,0.096-0.829c0-0.328-0.012-0.627-0.034-0.896s-0.103-0.5-0.239-0.692
				c-0.138-0.191-0.354-0.34-0.651-0.445c-0.297-0.104-0.719-0.157-1.267-0.157h-0.438v3.945H247.401z"/>
			<path fill="#FFFFFF" d="M254.589,252.66l-0.615,3.068h-1.751l2.569-12.272h1.811l2.633,12.272h-1.688l-0.659-3.068H254.589z
				 M256.605,251.346l-0.876-5.26l-0.877,5.26H256.605z"/>
			<path fill="#FFFFFF" d="M263.842,255.852c-0.438,0-0.823-0.051-1.156-0.154c-0.333-0.103-0.623-0.239-0.869-0.41
				c-0.247-0.172-0.454-0.365-0.623-0.582s-0.308-0.439-0.417-0.668c-0.256-0.53-0.401-1.135-0.438-1.815l1.747-0.438
				c0.018,0.493,0.091,0.932,0.22,1.315c0.055,0.164,0.124,0.325,0.209,0.482c0.085,0.158,0.188,0.298,0.312,0.422
				c0.123,0.123,0.269,0.223,0.436,0.298s0.36,0.112,0.58,0.112c0.879,0,1.317-0.438,1.317-1.314c0-0.219-0.027-0.424-0.082-0.613
				s-0.137-0.372-0.246-0.548s-0.247-0.347-0.411-0.514c-0.164-0.166-0.356-0.339-0.575-0.517l-2.191-1.754
				c-0.224-0.178-0.419-0.38-0.586-0.605c-0.167-0.227-0.305-0.465-0.414-0.716s-0.19-0.507-0.243-0.768
				c-0.053-0.26-0.079-0.518-0.079-0.773c0-0.393,0.066-0.769,0.198-1.127c0.133-0.358,0.327-0.673,0.585-0.944
				c0.258-0.272,0.578-0.487,0.961-0.647s0.825-0.24,1.327-0.24c0.438,0,0.825,0.046,1.159,0.138
				c0.333,0.091,0.624,0.212,0.87,0.362c0.247,0.151,0.455,0.322,0.624,0.514c0.169,0.192,0.309,0.386,0.419,0.582
				c0.256,0.471,0.401,1.003,0.438,1.596l-1.754,0.438c-0.018-0.41-0.091-0.775-0.22-1.096c-0.055-0.137-0.124-0.271-0.209-0.4
				s-0.188-0.247-0.312-0.35c-0.123-0.103-0.269-0.186-0.436-0.25c-0.167-0.063-0.36-0.096-0.58-0.096
				c-0.229,0-0.427,0.035-0.594,0.106c-0.167,0.07-0.305,0.165-0.412,0.284c-0.107,0.118-0.187,0.258-0.236,0.418
				c-0.051,0.159-0.075,0.328-0.075,0.507c0,0.302,0.07,0.61,0.213,0.927c0.142,0.315,0.364,0.593,0.667,0.831l2.191,1.753
				c0.279,0.224,0.527,0.469,0.744,0.735c0.218,0.267,0.401,0.546,0.553,0.838c0.15,0.292,0.266,0.592,0.343,0.899
				c0.078,0.308,0.117,0.612,0.117,0.913c0,0.379-0.062,0.74-0.186,1.085c-0.123,0.345-0.312,0.649-0.565,0.915
				c-0.254,0.265-0.572,0.476-0.956,0.633C264.822,255.773,264.367,255.852,263.842,255.852z"/>
			<path fill="#FFFFFF" d="M271.738,255.852c-0.438,0-0.823-0.051-1.156-0.154c-0.333-0.103-0.623-0.239-0.869-0.41
				c-0.247-0.172-0.454-0.365-0.623-0.582s-0.308-0.439-0.417-0.668c-0.256-0.53-0.401-1.135-0.438-1.815l1.747-0.438
				c0.018,0.493,0.091,0.932,0.22,1.315c0.055,0.164,0.124,0.325,0.209,0.482c0.085,0.158,0.188,0.298,0.312,0.422
				c0.123,0.123,0.269,0.223,0.436,0.298s0.36,0.112,0.58,0.112c0.879,0,1.317-0.438,1.317-1.314c0-0.219-0.027-0.424-0.082-0.613
				s-0.137-0.372-0.246-0.548s-0.247-0.347-0.411-0.514c-0.164-0.166-0.356-0.339-0.575-0.517l-2.191-1.754
				c-0.224-0.178-0.419-0.38-0.586-0.605c-0.167-0.227-0.305-0.465-0.414-0.716s-0.19-0.507-0.243-0.768
				c-0.053-0.26-0.079-0.518-0.079-0.773c0-0.393,0.066-0.769,0.198-1.127c0.133-0.358,0.327-0.673,0.585-0.944
				c0.258-0.272,0.578-0.487,0.961-0.647s0.825-0.24,1.327-0.24c0.438,0,0.825,0.046,1.159,0.138
				c0.333,0.091,0.624,0.212,0.87,0.362c0.247,0.151,0.455,0.322,0.624,0.514c0.169,0.192,0.309,0.386,0.419,0.582
				c0.256,0.471,0.401,1.003,0.438,1.596l-1.754,0.438c-0.018-0.41-0.091-0.775-0.22-1.096c-0.055-0.137-0.124-0.271-0.209-0.4
				s-0.188-0.247-0.312-0.35c-0.123-0.103-0.269-0.186-0.436-0.25c-0.167-0.063-0.36-0.096-0.58-0.096
				c-0.229,0-0.427,0.035-0.594,0.106c-0.167,0.07-0.305,0.165-0.412,0.284c-0.107,0.118-0.187,0.258-0.236,0.418
				c-0.051,0.159-0.075,0.328-0.075,0.507c0,0.302,0.07,0.61,0.213,0.927c0.142,0.315,0.364,0.593,0.667,0.831l2.191,1.753
				c0.279,0.224,0.527,0.469,0.744,0.735c0.218,0.267,0.401,0.546,0.553,0.838c0.15,0.292,0.266,0.592,0.343,0.899
				c0.078,0.308,0.117,0.612,0.117,0.913c0,0.379-0.062,0.74-0.186,1.085c-0.123,0.345-0.312,0.649-0.565,0.915
				c-0.254,0.265-0.572,0.476-0.956,0.633C272.719,255.773,272.264,255.852,271.738,255.852z"/>
		</g>
	</g>
	<g>
		<g enable-background="new    ">
			<path fill="#FFFFFF" d="M401.959,227.858c0.547,0,1.016,0.079,1.403,0.239s0.706,0.391,0.952,0.691
				c0.246,0.302,0.427,0.669,0.541,1.103c0.114,0.435,0.172,0.925,0.172,1.473s-0.078,1.017-0.233,1.404s-0.37,0.705-0.644,0.952
				c-0.274,0.246-0.599,0.427-0.973,0.541c-0.375,0.114-0.781,0.171-1.219,0.171h-1.315v5.698h-1.753v-12.272H401.959z
				 M401.082,233.118c0.438,0,0.799-0.03,1.082-0.09c0.283-0.059,0.507-0.157,0.671-0.294c0.165-0.137,0.278-0.317,0.343-0.541
				s0.096-0.5,0.096-0.829c0-0.328-0.012-0.627-0.034-0.896s-0.103-0.5-0.239-0.692c-0.138-0.191-0.354-0.34-0.65-0.445
				c-0.297-0.104-0.72-0.157-1.268-0.157h-0.438v3.945H401.082z"/>
			<path fill="#FFFFFF" d="M411.163,234.433h-3.068v5.698h-1.753v-12.272h1.753v5.26h3.068v-5.26h1.753v12.272h-1.753V234.433z"/>
			<path fill="#FFFFFF" d="M417.738,227.858c0.547,0,1.016,0.079,1.403,0.239s0.706,0.391,0.952,0.691
				c0.246,0.302,0.427,0.669,0.541,1.103c0.114,0.435,0.172,0.925,0.172,1.473s-0.078,1.017-0.233,1.404s-0.37,0.705-0.644,0.952
				c-0.274,0.246-0.599,0.427-0.973,0.541c-0.375,0.114-0.781,0.171-1.219,0.171h-1.315v5.698h-1.753v-12.272H417.738z
				 M416.861,233.118c0.438,0,0.799-0.03,1.082-0.09c0.283-0.059,0.507-0.157,0.671-0.294c0.165-0.137,0.278-0.317,0.343-0.541
				s0.096-0.5,0.096-0.829c0-0.328-0.012-0.627-0.034-0.896s-0.103-0.5-0.239-0.692c-0.138-0.191-0.354-0.34-0.65-0.445
				c-0.297-0.104-0.72-0.157-1.268-0.157h-0.438v3.945H416.861z"/>
			<path fill="#FFFFFF" d="M428.429,240.254c-0.421,0-0.794-0.071-1.12-0.216c-0.326-0.144-0.602-0.339-0.825-0.585
				c-0.224-0.247-0.394-0.538-0.51-0.873c-0.117-0.336-0.175-0.695-0.175-1.079c0-0.283,0.034-0.575,0.103-0.877
				c0.068-0.301,0.175-0.603,0.318-0.903c0.144-0.302,0.326-0.599,0.548-0.891s0.482-0.57,0.784-0.836
				c-0.137-0.278-0.283-0.57-0.438-0.876c-0.155-0.307-0.298-0.611-0.428-0.915c-0.13-0.303-0.237-0.602-0.322-0.894
				c-0.084-0.292-0.126-0.565-0.126-0.821c0-0.379,0.059-0.735,0.178-1.068c0.118-0.334,0.29-0.626,0.514-0.877
				s0.499-0.448,0.825-0.593c0.326-0.144,0.697-0.216,1.113-0.216c0.36,0,0.7,0.057,1.02,0.168c0.32,0.112,0.6,0.269,0.84,0.47
				c0.239,0.2,0.428,0.443,0.564,0.729c0.137,0.286,0.206,0.603,0.206,0.949c0,0.319-0.07,0.66-0.21,1.021
				c-0.14,0.36-0.315,0.719-0.528,1.072c-0.213,0.354-0.45,0.692-0.711,1.015s-0.51,0.603-0.748,0.84l1.754,2.63
				c0.092-0.206,0.173-0.488,0.242-0.848c0.069-0.358,0.136-0.808,0.201-1.348h1.753c0,0.224-0.033,0.486-0.1,0.788
				c-0.066,0.301-0.153,0.605-0.26,0.914c-0.107,0.308-0.226,0.604-0.353,0.891c-0.128,0.285-0.254,0.521-0.377,0.708
				c0.045,0.06,0.107,0.127,0.185,0.202c0.078,0.075,0.166,0.146,0.264,0.209c0.099,0.064,0.202,0.119,0.312,0.165
				c0.109,0.045,0.22,0.068,0.329,0.068v1.876c-0.22,0-0.426-0.033-0.62-0.099c-0.194-0.066-0.38-0.154-0.558-0.264
				c-0.179-0.11-0.351-0.236-0.518-0.381c-0.167-0.144-0.332-0.295-0.496-0.455c-0.151,0.191-0.324,0.363-0.521,0.514
				s-0.408,0.276-0.634,0.377s-0.465,0.177-0.716,0.229C428.938,240.228,428.684,240.254,428.429,240.254z M428.216,235.31
				c-0.096,0.128-0.185,0.278-0.267,0.452c-0.082,0.173-0.153,0.358-0.213,0.555c-0.059,0.196-0.104,0.396-0.137,0.599
				s-0.048,0.398-0.048,0.586c0,0.178,0.016,0.346,0.048,0.503c0.032,0.158,0.082,0.297,0.15,0.418
				c0.069,0.121,0.159,0.217,0.271,0.288c0.112,0.07,0.248,0.105,0.408,0.105c0.22,0,0.423-0.045,0.61-0.137
				c0.188-0.092,0.351-0.192,0.488-0.303c0.16-0.128,0.307-0.274,0.439-0.439c-0.311-0.462-0.591-0.881-0.842-1.257
				c-0.104-0.155-0.209-0.312-0.314-0.469s-0.2-0.299-0.283-0.424c-0.084-0.125-0.154-0.23-0.212-0.315
				C428.259,235.387,428.226,235.332,428.216,235.31z M428.654,233.118c0.073-0.092,0.151-0.21,0.236-0.356s0.167-0.31,0.247-0.489
				c0.079-0.181,0.156-0.371,0.229-0.572c0.073-0.201,0.139-0.399,0.195-0.596c0.058-0.196,0.102-0.386,0.134-0.568
				s0.048-0.345,0.048-0.486c0-0.261-0.077-0.472-0.232-0.634s-0.37-0.243-0.644-0.243c-0.146,0-0.274,0.037-0.384,0.109
				c-0.109,0.073-0.201,0.171-0.274,0.291c-0.073,0.121-0.128,0.262-0.164,0.422c-0.037,0.159-0.055,0.324-0.055,0.493
				c0,0.159,0.02,0.348,0.058,0.564c0.039,0.217,0.09,0.445,0.151,0.686c0.062,0.239,0.132,0.479,0.212,0.719
				C428.491,232.696,428.572,232.917,428.654,233.118z"/>
		</g>
		<g enable-background="new    ">
			<path fill="#FFFFFF" d="M400.287,254.156l-1.753-9.684v9.684h-1.753v-12.272h2.377l1.745,9.407l1.745-9.407h2.461v12.272h-1.754
				v-9.684l-1.754,9.684H400.287z"/>
			<path fill="#FFFFFF" d="M409.054,254.156v-3.945l-2.63-8.327h1.753l1.757,6.136l1.75-6.136h1.565l-2.442,8.327v3.945H409.054z"/>
			<path fill="#FFFFFF" d="M418.043,254.279c-0.438,0-0.824-0.051-1.156-0.154c-0.334-0.103-0.623-0.239-0.869-0.41
				c-0.246-0.172-0.454-0.365-0.623-0.582s-0.309-0.439-0.418-0.668c-0.255-0.53-0.4-1.135-0.438-1.815l1.746-0.438
				c0.02,0.493,0.092,0.932,0.221,1.315c0.055,0.164,0.124,0.325,0.209,0.482c0.084,0.158,0.188,0.298,0.312,0.422
				c0.123,0.123,0.269,0.223,0.436,0.298s0.36,0.112,0.58,0.112c0.879,0,1.318-0.438,1.318-1.314c0-0.219-0.027-0.424-0.082-0.613
				c-0.056-0.189-0.138-0.372-0.247-0.548c-0.11-0.176-0.247-0.347-0.411-0.514c-0.164-0.166-0.355-0.339-0.575-0.517l-2.191-1.754
				c-0.224-0.178-0.419-0.38-0.586-0.605c-0.167-0.227-0.305-0.465-0.414-0.716c-0.11-0.251-0.19-0.507-0.243-0.768
				c-0.053-0.26-0.078-0.518-0.078-0.773c0-0.393,0.065-0.769,0.197-1.127c0.133-0.358,0.328-0.673,0.585-0.944
				c0.258-0.272,0.578-0.487,0.962-0.647c0.383-0.16,0.824-0.24,1.326-0.24c0.439,0,0.825,0.046,1.158,0.138
				c0.334,0.091,0.625,0.212,0.871,0.362c0.247,0.151,0.455,0.322,0.624,0.514c0.169,0.192,0.309,0.386,0.419,0.582
				c0.256,0.471,0.402,1.003,0.438,1.596l-1.753,0.438c-0.02-0.41-0.092-0.775-0.221-1.096c-0.055-0.137-0.124-0.271-0.209-0.4
				c-0.084-0.13-0.189-0.247-0.312-0.35s-0.269-0.186-0.436-0.25c-0.167-0.063-0.36-0.096-0.58-0.096
				c-0.229,0-0.427,0.035-0.594,0.106c-0.167,0.07-0.305,0.165-0.412,0.284c-0.107,0.118-0.186,0.258-0.236,0.418
				c-0.051,0.159-0.076,0.328-0.076,0.507c0,0.302,0.071,0.61,0.214,0.927c0.142,0.315,0.364,0.593,0.667,0.831l2.191,1.753
				c0.279,0.224,0.527,0.469,0.744,0.735s0.402,0.546,0.553,0.838s0.266,0.592,0.343,0.899c0.078,0.308,0.117,0.612,0.117,0.913
				c0,0.379-0.062,0.74-0.186,1.085c-0.123,0.345-0.312,0.649-0.565,0.915c-0.254,0.265-0.572,0.476-0.956,0.633
				C419.023,254.201,418.568,254.279,418.043,254.279z"/>
			<path fill="#FFFFFF" d="M429.442,250.211c0,0.549-0.058,1.069-0.172,1.562c-0.114,0.493-0.306,0.925-0.575,1.295
				c-0.183,0.251-0.408,0.468-0.678,0.65c0.109,0.109,0.246,0.21,0.411,0.302c0.164,0.091,0.355,0.137,0.575,0.137v1.315
				c-0.22,0-0.426-0.032-0.62-0.097c-0.194-0.063-0.38-0.152-0.558-0.267c-0.179-0.114-0.353-0.254-0.521-0.418
				c-0.155-0.15-0.309-0.315-0.459-0.493c-0.279,0.055-0.582,0.082-0.911,0.082c-0.457,0-0.86-0.05-1.212-0.15
				s-0.657-0.24-0.915-0.418s-0.476-0.393-0.653-0.644c-0.179-0.251-0.321-0.527-0.429-0.829c-0.107-0.301-0.184-0.623-0.229-0.965
				c-0.045-0.343-0.068-0.696-0.068-1.062v-4.383c0-0.365,0.023-0.719,0.068-1.062c0.046-0.343,0.122-0.664,0.229-0.966
				c0.107-0.301,0.25-0.577,0.429-0.828c0.178-0.251,0.396-0.466,0.653-0.645c0.258-0.178,0.563-0.316,0.915-0.417
				s0.755-0.151,1.212-0.151c0.671,0,1.231,0.11,1.682,0.329c0.449,0.219,0.809,0.514,1.078,0.884
				c0.27,0.369,0.461,0.801,0.575,1.294s0.172,1.014,0.172,1.562V250.211z M424.183,250.649c0,0.329,0.029,0.628,0.089,0.897
				c0.059,0.27,0.157,0.5,0.294,0.691c0.138,0.192,0.317,0.341,0.541,0.445c0.224,0.105,0.5,0.157,0.829,0.157
				s0.604-0.052,0.829-0.157c0.224-0.104,0.403-0.253,0.541-0.445c0.137-0.191,0.234-0.422,0.294-0.691s0.089-0.568,0.089-0.897
				v-5.26c0-0.328-0.029-0.627-0.089-0.896s-0.157-0.5-0.294-0.692c-0.138-0.191-0.317-0.34-0.541-0.445
				c-0.225-0.104-0.5-0.157-0.829-0.157s-0.605,0.053-0.829,0.157c-0.224,0.105-0.403,0.254-0.541,0.445
				c-0.137,0.192-0.235,0.423-0.294,0.692c-0.06,0.27-0.089,0.568-0.089,0.896V250.649z"/>
			<path fill="#FFFFFF" d="M430.977,254.156v-12.272h1.753v10.957h3.068v1.315H430.977z"/>
		</g>
		<g>
			<path fill="#FFFFFF" d="M431.756,179.846h-3.116l-1.696,8.732h2.768c1.832,0,3.198-0.342,4.096-1.035
				c0.897-0.691,1.501-1.844,1.816-3.459c0.3-1.551,0.163-2.645-0.411-3.281C434.635,180.164,433.484,179.846,431.756,179.846z"/>
			<path fill="#FFFFFF" d="M396.275,179.846h-3.117l-1.698,8.732h2.767c1.832,0,3.198-0.342,4.097-1.035
				c0.895-0.691,1.502-1.844,1.813-3.459c0.3-1.551,0.165-2.645-0.41-3.281C399.152,180.164,398,179.846,396.275,179.846z"/>
			<path fill="#FFFFFF" d="M416.07,140.744c-22.254,0-40.293,18.04-40.293,40.293s18.039,40.293,40.293,40.293
				c22.253,0,40.293-18.04,40.293-40.293S438.323,140.744,416.07,140.744z M401.983,189.516c-0.909,0.849-1.918,1.453-3.025,1.814
				c-1.111,0.361-2.523,0.541-4.243,0.541h-3.893l-1.078,5.549h-4.547l4.056-20.868h8.741c2.633,0,4.549,0.69,5.756,2.072
				c1.207,1.379,1.57,3.306,1.088,5.779c-0.197,1.02-0.533,1.949-1.006,2.795C403.363,188.043,402.745,188.815,401.983,189.516z
				 M415.252,191.873l1.795-9.232c0.203-1.051,0.128-1.767-0.226-2.15c-0.354-0.381-1.11-0.572-2.267-0.572h-3.604l-2.325,11.955
				h-4.508l4.059-20.871h4.508l-1.073,5.55h4.017c2.529,0,4.271,0.44,5.232,1.321c0.958,0.883,1.246,2.312,0.86,4.288l-1.889,9.711
				H415.252z M440.322,184.403c-0.199,1.02-0.533,1.949-1.004,2.795c-0.477,0.845-1.093,1.617-1.854,2.318
				c-0.909,0.849-1.917,1.453-3.023,1.814c-1.112,0.361-2.524,0.541-4.242,0.541h-3.896l-1.077,5.549h-4.546l4.061-20.868h8.739
				c2.633,0,4.55,0.69,5.755,2.072C440.44,180.003,440.803,181.93,440.322,184.403z M447.039,178.25
				c-0.357-0.246-0.715-0.537-1.072-0.766c-0.619-0.39-1.335-0.617-1.967-1.007c-0.357-0.225-0.698-0.485-1.041-0.746
				c-0.308-0.229-0.65-0.668-0.842-0.993c-0.118-0.18-0.133-0.393-0.266-0.522c0.035-0.308,0.427-0.308,0.67-0.405
				c0.847-0.357,1.854-0.487,3.151-0.454c-0.047-0.326-0.857-0.733-1.121-0.931c-0.521-0.375-1.075-0.764-1.627-1.106
				c-0.293-0.18-0.797-0.31-1.123-0.454c-0.438-0.18-1.414-0.357-1.657-0.7c-0.484-0.636-0.812-1.414-1.151-2.178
				c-0.341-0.778-0.765-1.592-1.104-2.389c-0.182-0.39-0.26-0.731-0.456-1.104c-1.188-2.29-2.941-4.21-5.069-5.558
				c-0.7-0.44-1.48-0.847-2.343-1.124c-0.486-0.146-1.068-0.066-1.592-0.179c-0.114,0-0.229,0-0.343,0
				c-0.291-0.083-0.534-0.391-0.764-0.554c-0.506-0.343-1.005-0.57-1.61-0.813c-0.208-0.097-0.812-0.326-1.021-0.146
				c-0.133,0.031-0.194,0.083-0.229,0.211c-0.13,0.196-0.015,0.489,0.066,0.667c0.243,0.521,0.586,0.828,0.894,1.268
				c0.277,0.39,0.617,0.828,0.813,1.251c0.421,0.91,0.616,1.918,1.006,2.828c0.147,0.341,0.373,0.731,0.586,1.039
				c0.178,0.246,0.506,0.423,0.599,0.733c0.194,0.326-0.291,1.396-0.403,1.738c-0.422,1.333-0.344,3.186,0.147,4.34
				c0.194,0.456,0.372,0.993,0.893,1.123c0.032-0.033,0-0.017,0.063-0.033c0.115-0.894,0.148-1.755,0.456-2.453
				c0.18-0.438,0.537-0.745,0.78-1.104c0.163,0.095,0.163,0.388,0.261,0.584c0.21,0.506,0.438,1.057,0.697,1.561
				c0.535,1.041,1.138,2.048,1.82,2.958c0.228,0.324,0.554,0.683,0.845,0.977c0.131,0.113,0.276,0.177,0.374,0.324
				c0.019,0,0.019,0,0.03,0c0,0.019,0,0.033,0,0.049c-0.486-0.18-0.793-0.683-1.184-0.975c-0.734-0.553-1.61-1.383-2.116-2.178
				c-0.21-0.457-0.438-0.896-0.664-1.351c0,0,0-0.016,0-0.033c-0.096,0.128-0.063,0.26-0.114,0.454
				c-0.21,0.813-0.049,1.74-0.779,2.034c-0.827,0.338-1.445-0.553-1.705-0.96c-0.83-1.351-1.06-3.625-0.474-5.463
				c0.131-0.405,0.15-0.892,0.374-1.218c-0.05-0.293-0.274-0.375-0.404-0.553c-0.229-0.308-0.421-0.665-0.602-1.007
				c-0.343-0.667-0.586-1.464-0.845-2.178c-0.115-0.293-0.148-0.584-0.262-0.861c-0.196-0.423-0.555-0.844-0.83-1.218
				c-0.374-0.537-1.462-1.575-1.023-2.632c0.684-1.672,3.073-0.405,3.996,0.18c0.229,0.146,0.492,0.454,0.752,0.569
				c0.404,0.017,0.811,0.05,1.216,0.064c0.767,0.18,1.482,0.324,2.081,0.667c2.799,1.644,4.618,3.313,6.293,6.078
				c0.354,0.586,0.534,1.22,0.827,1.854c0.407,0.943,0.859,1.935,1.332,2.828c0.213,0.421,0.376,0.892,0.667,1.249
				c0.113,0.165,0.439,0.213,0.634,0.31c0.534,0.277,1.186,0.49,1.688,0.813c0.943,0.586,1.854,1.282,2.687,1.999
				c0.306,0.277,0.521,0.667,0.812,0.96c0,0.05,0,0.095,0,0.145c-0.26,0.083-0.521,0.165-0.78,0.229
				c-0.566,0.146-1.073,0.115-1.627,0.26c-0.34,0.097-0.762,0.227-1.121,0.26c0.018,0.017,0.033,0.033,0.033,0.033
				c0.213,0.601,1.349,1.09,1.869,1.447c0.634,0.456,1.22,1.007,1.689,1.641c0.163,0.163,0.324,0.31,0.489,0.473
				c0.113,0.163,0.146,0.374,0.26,0.522c0,0.017,0,0.031,0,0.047C447.33,178.59,447.216,178.378,447.039,178.25z M429.729,159.946
				c0,0.39-0.112,0.65-0.341,0.813c0,0-0.019,0.017-0.034,0.033c-0.131-0.26-0.245-0.521-0.376-0.781
				c-0.16-0.229-0.389-0.406-0.519-0.667c-0.017,0-0.017,0-0.033,0c0-0.017,0-0.033,0-0.033c0.196-0.047,0.394-0.083,0.667-0.083
				c0.132,0.132,0.343,0.21,0.439,0.376C429.616,159.719,429.633,159.833,429.729,159.946z"/>
		</g>
	</g>
	<g>
		<g>
			<polygon fill="#FFFFFF" points="81.242,197.822 86.078,197.822 83.694,188.559 			"/>
			<path fill="#FFFFFF" d="M81.888,169.853c0.787,0,1.58-0.355,2.098-0.691c0.479-0.312,0.771-0.639,1.139-1.13
				c0.306-0.407,0.377-0.895,0.553-1.426c0.175-0.529,0.12-0.737,0.12-1.363c0-0.85-0.045-1.695-0.345-2.246
				c-0.3-0.548-0.427-0.741-0.846-1.208c-0.341-0.379-0.937-0.644-1.398-0.791c-0.554-0.176-0.984-0.279-1.496-0.279h-2.104
				l0.017,9.134H81.888z"/>
			<path fill="#FFFFFF" d="M89.471,140.742c-22.254,0-40.294,18.04-40.294,40.294c0,22.253,18.041,40.294,40.294,40.294
				c22.253,0,40.294-18.041,40.294-40.294C129.765,158.782,111.725,140.742,89.471,140.742z M74.898,157.331
				c0.306-0.293,0.942-0.171,1.441-0.171l5.64-0.162c0.976-0.008,1.2,0.11,1.74,0.172c0.516,0.06,1.113,0.193,1.836,0.336
				c0.725,0.144,1.252,0.479,1.92,0.985c0.794,0.604,1.15,1.03,1.675,1.623c0.524,0.593,0.882,1.399,1.156,2.194
				c0.274,0.793,0.397,1.707,0.397,2.693c0,1.362-0.077,2.25-0.501,3.299c-0.424,1.048-0.674,1.691-1.425,2.487
				c-0.745,0.789-1.759,1.505-2.9,1.985c-1.296,0.543-2.572,0.907-4.171,0.907h-2.108v7.047c0,0.124-0.003,0.459-0.106,0.537
				c-0.278,0.207-1.896,0.155-2.383,0.155c-0.476,0-2.217,0.004-2.346-0.194c-0.068-0.104-0.091-0.374-0.091-0.498V158.92
				C74.672,158.334,74.592,157.625,74.898,157.331z M88.761,208.244l-1.938-7.526h-6.348l-1.992,7.526H73.85l6.514-21.712v-2.315
				h6.224l7.382,24.027H88.761L88.761,208.244z M100.63,208.244h-4.922v-17.66h4.922V208.244z M98.17,188.559
				c-1.36,0.001-2.462-1.037-2.462-2.317c0-1.278,1.103-2.316,2.462-2.316c1.358,0,2.46,1.038,2.46,2.316
				C100.63,187.522,99.528,188.559,98.17,188.559z M104.557,178.147c-0.356,0.723-0.818,1.534-1.467,2.021
				c-0.65,0.486-1.419,0.962-2.306,1.205c-0.888,0.243-1.891,0.324-2.927,0.324c-0.625,0-1.232-0.089-1.801-0.182
				c-0.568-0.095-1.066-0.285-1.516-0.428c-0.449-0.144-0.814-0.329-1.113-0.479c-0.3-0.15-0.576-0.31-0.713-0.44
				c-0.137-0.13-0.207-1.366-0.207-1.916c0-0.362,0.054-1.989,0.129-2.034c0.076-0.044,0.164-0.104,0.277-0.104
				c0.138,0,0.51,0.259,0.779,0.414c0.269,0.157,0.597,0.293,0.998,0.48c0.399,0.188,0.706,0.277,1.237,0.439
				c0.53,0.162,1.166,0.324,1.84,0.324c0.424,0,0.772,0.072,1.107,0c1.218-0.259,1.301-0.649,1.444-1.664
				c0.074-0.52-1.152-1.607-2.448-1.971c-1.499-0.42-3.558-1.952-4.179-2.679c-0.358-0.419-0.686-0.881-0.918-1.442
				c-0.231-0.562-0.346-1.237-0.346-2.023c0-0.8,0.156-1.533,0.468-2.202c0.312-0.668,0.761-1.239,1.349-1.714
				c0.588-0.474,1.302-0.843,2.146-1.104c0.843-0.263,1.789-0.394,2.838-0.394c0.524,0,1.033,0.038,1.526,0.113
				c0.494,0.075,0.939,0.167,1.339,0.281c0.4,0.113,0.738,0.234,1.011,0.365c0.275,0.132,0.472,0.245,0.59,0.338
				c0.12,0.094,0.204,0.188,0.253,0.281c0.05,0.093,0.088,0.207,0.113,0.336c0.025,0.132,0.046,1.104,0.046,1.39
				c0,0.336-0.054,1.612-0.104,1.684c-0.078,0.11-0.127,0.162-0.227,0.162c-0.112,0-0.481-0.212-0.718-0.343
				c-0.238-0.131-0.603-0.284-0.959-0.433c-0.325-0.138-1.932-0.489-2.83-0.435c-0.881,0.052-2.135,0.544-2.163,1.483
				c-0.026,0.887,1.881,1.947,2.375,2.123c0.493,0.175,0.993,0.365,1.499,0.571s1.005,0.446,1.499,0.721
				c0.494,0.276,0.934,0.613,1.32,1.013c0.387,0.4,0.7,0.878,0.937,1.433c0.237,0.553,0.356,1.213,0.356,1.974
				C105.091,176.585,104.913,177.422,104.557,178.147z"/>
		</g>
		<g enable-background="new    ">
			<path fill="#FFFFFF" d="M53.743,228.115c0.548,0,1.016,0.079,1.404,0.239s0.706,0.391,0.952,0.691
				c0.247,0.302,0.427,0.669,0.541,1.103c0.114,0.435,0.171,0.925,0.171,1.473s-0.078,1.017-0.233,1.404s-0.37,0.705-0.644,0.952
				c-0.274,0.246-0.598,0.427-0.972,0.541c-0.375,0.114-0.781,0.171-1.219,0.171h-1.315v5.698h-1.753v-12.272H53.743z
				 M52.866,233.375c0.438,0,0.799-0.03,1.082-0.09c0.283-0.059,0.507-0.157,0.671-0.294c0.165-0.137,0.279-0.317,0.343-0.541
				s0.096-0.5,0.096-0.829c0-0.328-0.011-0.627-0.034-0.896s-0.103-0.5-0.24-0.692c-0.137-0.191-0.354-0.34-0.65-0.445
				c-0.297-0.104-0.719-0.157-1.267-0.157h-0.438v3.945H52.866z"/>
			<path fill="#FFFFFF" d="M62.947,234.689h-3.068v5.698h-1.753v-12.272h1.753v5.26h3.068v-5.26H64.7v12.272h-1.753V234.689z"/>
			<path fill="#FFFFFF" d="M73.248,236.442c0,0.549-0.057,1.069-0.171,1.562c-0.114,0.493-0.306,0.925-0.576,1.295
				c-0.269,0.37-0.629,0.664-1.079,0.884c-0.45,0.219-1.01,0.328-1.681,0.328c-0.457,0-0.861-0.05-1.212-0.15
				s-0.656-0.24-0.914-0.418c-0.258-0.178-0.476-0.393-0.654-0.644c-0.178-0.251-0.321-0.527-0.428-0.829
				c-0.107-0.301-0.184-0.623-0.229-0.965c-0.046-0.343-0.068-0.696-0.068-1.062v-4.383c0-0.365,0.022-0.719,0.068-1.062
				c0.045-0.343,0.122-0.664,0.229-0.966c0.107-0.301,0.25-0.577,0.428-0.828c0.178-0.251,0.396-0.466,0.654-0.645
				c0.258-0.178,0.562-0.316,0.914-0.417s0.756-0.151,1.212-0.151c0.671,0,1.231,0.11,1.681,0.329s0.81,0.514,1.079,0.884
				c0.27,0.369,0.461,0.801,0.576,1.294c0.114,0.493,0.171,1.014,0.171,1.562V236.442z M67.988,236.881
				c0,0.329,0.03,0.628,0.089,0.897c0.059,0.27,0.157,0.5,0.294,0.691c0.137,0.192,0.317,0.341,0.541,0.445
				c0.224,0.105,0.5,0.157,0.829,0.157s0.605-0.052,0.829-0.157c0.224-0.104,0.404-0.253,0.541-0.445
				c0.137-0.191,0.235-0.422,0.294-0.691c0.06-0.27,0.089-0.568,0.089-0.897v-5.26c0-0.328-0.03-0.627-0.089-0.896
				c-0.059-0.27-0.157-0.5-0.294-0.692c-0.137-0.191-0.317-0.34-0.541-0.445c-0.224-0.104-0.5-0.157-0.829-0.157
				s-0.605,0.053-0.829,0.157c-0.224,0.105-0.404,0.254-0.541,0.445c-0.137,0.192-0.235,0.423-0.294,0.692
				c-0.06,0.27-0.089,0.568-0.089,0.896V236.881z"/>
			<path fill="#FFFFFF" d="M78.073,240.511c-0.438,0-0.823-0.051-1.156-0.154c-0.333-0.103-0.623-0.239-0.869-0.41
				c-0.247-0.172-0.454-0.365-0.623-0.582s-0.308-0.439-0.417-0.668c-0.256-0.53-0.402-1.135-0.438-1.815l1.747-0.438
				c0.018,0.493,0.091,0.932,0.22,1.315c0.055,0.164,0.124,0.325,0.209,0.482c0.085,0.158,0.188,0.298,0.312,0.422
				c0.123,0.123,0.269,0.223,0.436,0.298s0.36,0.112,0.58,0.112c0.879,0,1.317-0.438,1.317-1.314c0-0.219-0.027-0.424-0.082-0.613
				s-0.137-0.372-0.246-0.548s-0.247-0.347-0.411-0.514c-0.164-0.166-0.356-0.339-0.575-0.517l-2.191-1.754
				c-0.224-0.178-0.419-0.38-0.586-0.605c-0.167-0.227-0.305-0.465-0.414-0.716c-0.11-0.251-0.191-0.507-0.243-0.768
				c-0.053-0.26-0.079-0.518-0.079-0.773c0-0.393,0.066-0.769,0.198-1.127s0.327-0.673,0.584-0.944
				c0.258-0.272,0.578-0.487,0.961-0.647s0.825-0.24,1.327-0.24c0.438,0,0.825,0.046,1.159,0.138
				c0.333,0.091,0.624,0.212,0.87,0.362c0.247,0.151,0.455,0.322,0.624,0.514c0.169,0.192,0.309,0.386,0.419,0.582
				c0.256,0.471,0.401,1.003,0.438,1.596l-1.754,0.438c-0.018-0.41-0.091-0.775-0.22-1.096c-0.055-0.137-0.124-0.271-0.209-0.4
				s-0.188-0.247-0.312-0.35c-0.123-0.103-0.269-0.186-0.436-0.25c-0.167-0.063-0.36-0.096-0.58-0.096
				c-0.229,0-0.427,0.035-0.594,0.106c-0.167,0.07-0.305,0.165-0.412,0.284c-0.107,0.118-0.187,0.258-0.236,0.418
				c-0.051,0.159-0.075,0.328-0.075,0.507c0,0.302,0.07,0.61,0.213,0.927c0.142,0.315,0.364,0.593,0.667,0.831l2.191,1.753
				c0.279,0.224,0.527,0.469,0.744,0.735c0.218,0.267,0.401,0.546,0.553,0.838c0.15,0.292,0.266,0.592,0.343,0.899
				c0.078,0.308,0.117,0.612,0.117,0.913c0,0.379-0.062,0.74-0.186,1.085c-0.123,0.345-0.312,0.649-0.565,0.915
				c-0.254,0.265-0.572,0.476-0.956,0.633C79.054,240.433,78.599,240.511,78.073,240.511z"/>
			<path fill="#FFFFFF" d="M88.377,228.115v1.438h-2.192v10.835h-1.753v-10.835H82.24v-1.438H88.377z"/>
			<path fill="#FFFFFF" d="M96.485,236.442c0,0.549-0.058,1.069-0.172,1.562c-0.114,0.493-0.306,0.925-0.575,1.295
				s-0.629,0.664-1.078,0.884c-0.45,0.219-1.011,0.328-1.682,0.328c-0.457,0-0.86-0.05-1.212-0.15s-0.657-0.24-0.915-0.418
				s-0.476-0.393-0.653-0.644c-0.179-0.251-0.321-0.527-0.429-0.829c-0.107-0.301-0.184-0.623-0.229-0.965
				c-0.045-0.343-0.068-0.696-0.068-1.062v-4.383c0-0.365,0.023-0.719,0.068-1.062c0.046-0.343,0.122-0.664,0.229-0.966
				c0.107-0.301,0.25-0.577,0.429-0.828c0.178-0.251,0.396-0.466,0.653-0.645c0.258-0.178,0.563-0.316,0.915-0.417
				s0.755-0.151,1.212-0.151c0.671,0,1.231,0.11,1.682,0.329c0.449,0.219,0.809,0.514,1.078,0.884
				c0.27,0.369,0.461,0.801,0.575,1.294s0.172,1.014,0.172,1.562V236.442z M91.226,236.881c0,0.329,0.029,0.628,0.089,0.897
				c0.059,0.27,0.157,0.5,0.294,0.691c0.138,0.192,0.317,0.341,0.541,0.445c0.224,0.105,0.5,0.157,0.829,0.157
				s0.604-0.052,0.829-0.157c0.224-0.104,0.403-0.253,0.541-0.445c0.137-0.191,0.234-0.422,0.294-0.691s0.089-0.568,0.089-0.897
				v-5.26c0-0.328-0.029-0.627-0.089-0.896s-0.157-0.5-0.294-0.692c-0.138-0.191-0.317-0.34-0.541-0.445
				c-0.225-0.104-0.5-0.157-0.829-0.157s-0.605,0.053-0.829,0.157c-0.224,0.105-0.403,0.254-0.541,0.445
				c-0.137,0.192-0.235,0.423-0.294,0.692c-0.06,0.27-0.089,0.568-0.089,0.896V236.881z"/>
			<path fill="#FFFFFF" d="M101.311,240.511c-0.438,0-0.823-0.051-1.156-0.154c-0.333-0.103-0.623-0.239-0.869-0.41
				c-0.247-0.172-0.454-0.365-0.623-0.582s-0.308-0.439-0.417-0.668c-0.256-0.53-0.401-1.135-0.438-1.815l1.747-0.438
				c0.018,0.493,0.091,0.932,0.22,1.315c0.055,0.164,0.124,0.325,0.209,0.482c0.085,0.158,0.188,0.298,0.312,0.422
				c0.123,0.123,0.269,0.223,0.436,0.298s0.36,0.112,0.58,0.112c0.879,0,1.317-0.438,1.317-1.314c0-0.219-0.027-0.424-0.082-0.613
				s-0.137-0.372-0.246-0.548s-0.247-0.347-0.411-0.514c-0.164-0.166-0.356-0.339-0.575-0.517l-2.191-1.754
				c-0.224-0.178-0.419-0.38-0.586-0.605c-0.167-0.227-0.305-0.465-0.414-0.716s-0.19-0.507-0.243-0.768
				c-0.053-0.26-0.079-0.518-0.079-0.773c0-0.393,0.066-0.769,0.198-1.127c0.133-0.358,0.327-0.673,0.585-0.944
				c0.258-0.272,0.578-0.487,0.961-0.647s0.825-0.24,1.327-0.24c0.438,0,0.825,0.046,1.159,0.138
				c0.333,0.091,0.624,0.212,0.87,0.362c0.247,0.151,0.455,0.322,0.624,0.514c0.169,0.192,0.309,0.386,0.419,0.582
				c0.256,0.471,0.401,1.003,0.438,1.596l-1.754,0.438c-0.018-0.41-0.091-0.775-0.22-1.096c-0.055-0.137-0.124-0.271-0.209-0.4
				s-0.188-0.247-0.312-0.35c-0.123-0.103-0.269-0.186-0.436-0.25c-0.167-0.063-0.36-0.096-0.58-0.096
				c-0.229,0-0.427,0.035-0.594,0.106c-0.167,0.07-0.305,0.165-0.412,0.284c-0.107,0.118-0.187,0.258-0.236,0.418
				c-0.051,0.159-0.075,0.328-0.075,0.507c0,0.302,0.07,0.61,0.213,0.927c0.142,0.315,0.364,0.593,0.667,0.831l2.191,1.753
				c0.279,0.224,0.527,0.469,0.744,0.735c0.218,0.267,0.401,0.546,0.553,0.838c0.15,0.292,0.266,0.592,0.343,0.899
				c0.078,0.308,0.117,0.612,0.117,0.913c0,0.379-0.062,0.74-0.186,1.085c-0.123,0.345-0.312,0.649-0.565,0.915
				c-0.254,0.265-0.572,0.476-0.956,0.633C102.291,240.433,101.836,240.511,101.311,240.511z"/>
			<path fill="#FFFFFF" d="M110.737,234.689h-3.068v5.698h-1.753v-12.272h1.753v5.26h3.068v-5.26h1.753v12.272h-1.753V234.689z"/>
			<path fill="#FFFFFF" d="M121.038,236.442c0,0.549-0.058,1.069-0.172,1.562c-0.114,0.493-0.306,0.925-0.575,1.295
				s-0.629,0.664-1.078,0.884c-0.45,0.219-1.011,0.328-1.682,0.328c-0.457,0-0.86-0.05-1.212-0.15s-0.657-0.24-0.915-0.418
				s-0.476-0.393-0.653-0.644c-0.179-0.251-0.321-0.527-0.429-0.829c-0.107-0.301-0.184-0.623-0.229-0.965
				c-0.045-0.343-0.068-0.696-0.068-1.062v-4.383c0-0.365,0.023-0.719,0.068-1.062c0.046-0.343,0.122-0.664,0.229-0.966
				c0.107-0.301,0.25-0.577,0.429-0.828c0.178-0.251,0.396-0.466,0.653-0.645c0.258-0.178,0.563-0.316,0.915-0.417
				s0.755-0.151,1.212-0.151c0.671,0,1.231,0.11,1.682,0.329c0.449,0.219,0.809,0.514,1.078,0.884
				c0.27,0.369,0.461,0.801,0.575,1.294s0.172,1.014,0.172,1.562V236.442z M115.778,236.881c0,0.329,0.029,0.628,0.089,0.897
				c0.059,0.27,0.157,0.5,0.294,0.691c0.138,0.192,0.317,0.341,0.541,0.445c0.224,0.105,0.5,0.157,0.829,0.157
				s0.604-0.052,0.829-0.157c0.224-0.104,0.403-0.253,0.541-0.445c0.137-0.191,0.234-0.422,0.294-0.691s0.089-0.568,0.089-0.897
				v-5.26c0-0.328-0.029-0.627-0.089-0.896s-0.157-0.5-0.294-0.692c-0.138-0.191-0.317-0.34-0.541-0.445
				c-0.225-0.104-0.5-0.157-0.829-0.157s-0.605,0.053-0.829,0.157c-0.224,0.105-0.403,0.254-0.541,0.445
				c-0.137,0.192-0.235,0.423-0.294,0.692c-0.06,0.27-0.089,0.568-0.089,0.896V236.881z"/>
			<path fill="#FFFFFF" d="M125.641,228.115c0.548,0,1.016,0.079,1.403,0.239c0.389,0.16,0.706,0.391,0.952,0.691
				c0.246,0.302,0.427,0.669,0.541,1.103c0.114,0.435,0.171,0.925,0.171,1.473s-0.077,1.017-0.232,1.404s-0.37,0.705-0.644,0.952
				c-0.274,0.246-0.599,0.427-0.973,0.541c-0.375,0.114-0.781,0.171-1.219,0.171h-1.315v5.698h-1.753v-12.272H125.641z
				 M124.764,233.375c0.438,0,0.799-0.03,1.082-0.09c0.283-0.059,0.507-0.157,0.671-0.294c0.165-0.137,0.278-0.317,0.343-0.541
				c0.063-0.224,0.096-0.5,0.096-0.829c0-0.328-0.012-0.627-0.034-0.896s-0.103-0.5-0.239-0.692
				c-0.138-0.191-0.354-0.34-0.651-0.445c-0.297-0.104-0.719-0.157-1.267-0.157h-0.438v3.945H124.764z"/>
		</g>
		<g enable-background="new    ">
			<path fill="#FFFFFF" d="M47.304,254.537c-0.42,0-0.793-0.071-1.12-0.216c-0.327-0.144-0.602-0.339-0.825-0.585
				c-0.224-0.247-0.394-0.538-0.51-0.873c-0.116-0.336-0.175-0.695-0.175-1.079c0-0.283,0.034-0.575,0.103-0.877
				c0.068-0.301,0.174-0.603,0.318-0.903c0.144-0.302,0.326-0.599,0.548-0.891c0.221-0.292,0.483-0.57,0.784-0.836
				c-0.137-0.278-0.283-0.57-0.438-0.876c-0.155-0.307-0.298-0.611-0.428-0.915c-0.13-0.303-0.238-0.602-0.322-0.894
				s-0.126-0.565-0.126-0.821c0-0.379,0.059-0.735,0.178-1.068c0.119-0.334,0.29-0.626,0.514-0.877
				c0.224-0.251,0.499-0.448,0.825-0.593c0.326-0.144,0.697-0.216,1.113-0.216c0.361,0,0.701,0.057,1.021,0.168
				c0.319,0.112,0.599,0.269,0.839,0.47c0.24,0.2,0.428,0.443,0.565,0.729c0.137,0.286,0.206,0.603,0.206,0.949
				c0,0.319-0.07,0.66-0.209,1.021c-0.14,0.36-0.316,0.719-0.528,1.072c-0.213,0.354-0.45,0.692-0.71,1.015
				c-0.261,0.322-0.51,0.603-0.749,0.84l1.753,2.63c0.092-0.206,0.173-0.488,0.243-0.848c0.069-0.358,0.136-0.808,0.201-1.348h1.753
				c0,0.224-0.033,0.486-0.1,0.788c-0.066,0.301-0.153,0.605-0.26,0.914c-0.107,0.308-0.225,0.604-0.353,0.891
				c-0.128,0.285-0.253,0.521-0.376,0.708c0.045,0.06,0.107,0.127,0.185,0.202s0.166,0.146,0.264,0.209
				c0.098,0.064,0.202,0.119,0.312,0.165c0.11,0.045,0.219,0.068,0.329,0.068v1.876c-0.219,0-0.426-0.033-0.62-0.099
				c-0.194-0.066-0.38-0.154-0.558-0.264c-0.178-0.11-0.35-0.236-0.517-0.381c-0.167-0.144-0.332-0.295-0.497-0.455
				c-0.15,0.191-0.324,0.363-0.521,0.514s-0.407,0.276-0.633,0.377s-0.465,0.177-0.716,0.229
				C47.813,254.511,47.56,254.537,47.304,254.537z M47.092,249.593c-0.096,0.128-0.185,0.278-0.267,0.452
				c-0.083,0.173-0.153,0.358-0.212,0.555c-0.06,0.196-0.105,0.396-0.137,0.599c-0.032,0.203-0.048,0.398-0.048,0.586
				c0,0.178,0.016,0.346,0.048,0.503c0.032,0.158,0.083,0.297,0.151,0.418s0.159,0.217,0.271,0.288
				c0.112,0.07,0.248,0.105,0.407,0.105c0.22,0,0.424-0.045,0.611-0.137s0.35-0.192,0.488-0.303c0.16-0.128,0.307-0.274,0.439-0.439
				c-0.311-0.462-0.591-0.881-0.842-1.257c-0.104-0.155-0.209-0.312-0.314-0.469s-0.2-0.299-0.284-0.424
				c-0.083-0.125-0.154-0.23-0.211-0.315S47.101,249.615,47.092,249.593z M47.53,247.401c0.073-0.092,0.152-0.21,0.236-0.356
				s0.167-0.31,0.247-0.489c0.08-0.181,0.156-0.371,0.229-0.572c0.073-0.201,0.138-0.399,0.195-0.596
				c0.057-0.196,0.102-0.386,0.133-0.568c0.032-0.183,0.048-0.345,0.048-0.486c0-0.261-0.078-0.472-0.233-0.634
				s-0.37-0.243-0.644-0.243c-0.146,0-0.274,0.037-0.383,0.109c-0.11,0.073-0.201,0.171-0.274,0.291
				c-0.073,0.121-0.128,0.262-0.165,0.422c-0.037,0.159-0.055,0.324-0.055,0.493c0,0.159,0.019,0.348,0.058,0.564
				c0.039,0.217,0.089,0.445,0.15,0.686c0.062,0.239,0.133,0.479,0.212,0.719C47.367,246.979,47.448,247.2,47.53,247.401z"/>
			<path fill="#FFFFFF" d="M57.557,242.142h1.753v12.272h-1.753V242.142z"/>
			<path fill="#FFFFFF" d="M61.063,254.414v-12.272h1.753v10.957h3.068v1.315H61.063z"/>
			<path fill="#FFFFFF" d="M67.2,254.414v-12.272h1.753v10.957h3.068v1.315H67.2z"/>
			<path fill="#FFFFFF" d="M76.843,254.544c-0.511,0-0.953-0.061-1.325-0.182c-0.372-0.12-0.688-0.287-0.948-0.5
				c-0.26-0.212-0.471-0.463-0.63-0.753c-0.16-0.29-0.284-0.602-0.373-0.935c-0.09-0.333-0.15-0.683-0.182-1.048
				c-0.032-0.365-0.048-0.73-0.048-1.096v-7.89h1.753v7.895c0,0.219,0.002,0.447,0.007,0.685c0.005,0.238,0.024,0.47,0.059,0.696
				c0.034,0.226,0.085,0.441,0.153,0.647c0.069,0.205,0.168,0.385,0.298,0.538c0.131,0.152,0.296,0.275,0.497,0.366
				c0.201,0.092,0.447,0.138,0.739,0.138c0.293,0,0.539-0.046,0.74-0.138c0.2-0.091,0.366-0.214,0.496-0.366
				c0.13-0.153,0.229-0.333,0.298-0.538c0.068-0.206,0.12-0.422,0.154-0.647c0.034-0.227,0.054-0.458,0.059-0.696
				c0.004-0.237,0.007-0.466,0.007-0.685v-7.895h1.753v7.89c0,0.365-0.016,0.73-0.048,1.096s-0.093,0.715-0.182,1.048
				s-0.214,0.645-0.373,0.935c-0.16,0.29-0.37,0.541-0.63,0.753c-0.261,0.213-0.577,0.38-0.949,0.5
				C77.796,254.483,77.354,254.544,76.843,254.544z"/>
			<path fill="#FFFFFF" d="M85.394,254.537c-0.438,0-0.823-0.051-1.156-0.154c-0.333-0.103-0.623-0.239-0.869-0.41
				c-0.247-0.172-0.454-0.365-0.623-0.582s-0.308-0.439-0.417-0.668c-0.256-0.53-0.401-1.135-0.438-1.815l1.747-0.438
				c0.018,0.493,0.091,0.932,0.22,1.315c0.055,0.164,0.124,0.325,0.209,0.482c0.085,0.158,0.188,0.298,0.312,0.422
				c0.123,0.123,0.269,0.223,0.436,0.298s0.36,0.112,0.58,0.112c0.879,0,1.317-0.438,1.317-1.314c0-0.219-0.027-0.424-0.082-0.613
				s-0.137-0.372-0.246-0.548s-0.247-0.347-0.411-0.514c-0.164-0.166-0.356-0.339-0.575-0.517l-2.191-1.754
				c-0.224-0.178-0.419-0.38-0.586-0.605c-0.167-0.227-0.305-0.465-0.414-0.716s-0.19-0.507-0.243-0.768
				c-0.053-0.26-0.079-0.518-0.079-0.773c0-0.393,0.066-0.769,0.198-1.127c0.133-0.358,0.327-0.673,0.585-0.944
				c0.258-0.272,0.578-0.487,0.961-0.647s0.825-0.24,1.327-0.24c0.438,0,0.825,0.046,1.159,0.138
				c0.333,0.091,0.624,0.212,0.87,0.362c0.247,0.151,0.455,0.322,0.624,0.514c0.169,0.192,0.309,0.386,0.419,0.582
				c0.256,0.471,0.401,1.003,0.438,1.596l-1.754,0.438c-0.018-0.41-0.091-0.775-0.22-1.096c-0.055-0.137-0.124-0.271-0.209-0.4
				s-0.188-0.247-0.312-0.35c-0.123-0.103-0.269-0.186-0.436-0.25c-0.167-0.063-0.36-0.096-0.58-0.096
				c-0.229,0-0.427,0.035-0.594,0.106c-0.167,0.07-0.305,0.165-0.412,0.284c-0.107,0.118-0.187,0.258-0.236,0.418
				c-0.051,0.159-0.075,0.328-0.075,0.507c0,0.302,0.07,0.61,0.213,0.927c0.142,0.315,0.364,0.593,0.667,0.831l2.191,1.753
				c0.279,0.224,0.527,0.469,0.744,0.735c0.218,0.267,0.401,0.546,0.553,0.838c0.15,0.292,0.266,0.592,0.343,0.899
				c0.078,0.308,0.117,0.612,0.117,0.913c0,0.379-0.062,0.74-0.186,1.085c-0.123,0.345-0.312,0.649-0.565,0.915
				c-0.254,0.265-0.572,0.476-0.956,0.633C86.374,254.459,85.919,254.537,85.394,254.537z"/>
			<path fill="#FFFFFF" d="M95.697,242.142v1.438h-2.192v10.835h-1.753v-10.835h-2.191v-1.438H95.697z"/>
			<path fill="#FFFFFF" d="M101.918,254.414l-1.837-5.698h-1.315v5.698h-1.753v-12.272h2.191c0.767,0,1.404,0.078,1.91,0.236
				c0.507,0.157,0.911,0.38,1.213,0.667c0.301,0.288,0.514,0.634,0.637,1.038s0.185,0.853,0.185,1.346
				c0,0.302-0.021,0.573-0.064,0.815c-0.044,0.242-0.103,0.458-0.176,0.647s-0.156,0.356-0.247,0.5
				c-0.092,0.145-0.186,0.267-0.282,0.367c-0.225,0.242-0.481,0.415-0.77,0.521l1.978,6.135H101.918z M98.766,247.401h0.438
				c0.328,0,0.628-0.031,0.897-0.093c0.269-0.062,0.5-0.168,0.691-0.318s0.34-0.353,0.445-0.606
				c0.104-0.253,0.157-0.571,0.157-0.955s-0.053-0.702-0.157-0.955c-0.105-0.254-0.254-0.456-0.445-0.606s-0.423-0.257-0.691-0.318
				c-0.27-0.062-0.569-0.093-0.897-0.093h-0.438V247.401z"/>
			<path fill="#FFFFFF" d="M106.83,251.346l-0.615,3.068h-1.751l2.569-12.272h1.811l2.633,12.272h-1.688l-0.659-3.068H106.83z
				 M108.847,250.031l-0.876-5.26l-0.877,5.26H108.847z"/>
			<path fill="#FFFFFF" d="M117.613,242.142v1.438h-2.192v10.835h-1.753v-10.835h-2.191v-1.438H117.613z"/>
			<path fill="#FFFFFF" d="M125.722,250.469c0,0.549-0.058,1.069-0.172,1.562c-0.114,0.493-0.306,0.925-0.575,1.295
				s-0.629,0.664-1.078,0.884c-0.45,0.219-1.011,0.328-1.682,0.328c-0.457,0-0.86-0.05-1.212-0.15s-0.657-0.24-0.915-0.418
				s-0.476-0.393-0.653-0.644c-0.179-0.251-0.321-0.527-0.429-0.829c-0.107-0.301-0.184-0.623-0.229-0.965
				c-0.045-0.343-0.068-0.696-0.068-1.062v-4.383c0-0.365,0.023-0.719,0.068-1.062c0.046-0.343,0.122-0.664,0.229-0.966
				c0.107-0.301,0.25-0.577,0.429-0.828c0.178-0.251,0.396-0.466,0.653-0.645c0.258-0.178,0.563-0.316,0.915-0.417
				s0.755-0.151,1.212-0.151c0.671,0,1.231,0.11,1.682,0.329c0.449,0.219,0.809,0.514,1.078,0.884
				c0.27,0.369,0.461,0.801,0.575,1.294s0.172,1.014,0.172,1.562V250.469z M120.462,250.907c0,0.329,0.029,0.628,0.089,0.897
				c0.059,0.27,0.157,0.5,0.294,0.691c0.138,0.192,0.317,0.341,0.541,0.445c0.224,0.105,0.5,0.157,0.829,0.157
				s0.604-0.052,0.829-0.157c0.224-0.104,0.403-0.253,0.541-0.445c0.137-0.191,0.234-0.422,0.294-0.691s0.089-0.568,0.089-0.897
				v-5.26c0-0.328-0.029-0.627-0.089-0.896s-0.157-0.5-0.294-0.692c-0.138-0.191-0.317-0.34-0.541-0.445
				c-0.225-0.104-0.5-0.157-0.829-0.157s-0.605,0.053-0.829,0.157c-0.224,0.105-0.403,0.254-0.541,0.445
				c-0.137,0.192-0.235,0.423-0.294,0.692c-0.06,0.27-0.089,0.568-0.089,0.896V250.907z"/>
			<path fill="#FFFFFF" d="M132.161,254.414l-1.837-5.698h-1.315v5.698h-1.753v-12.272h2.191c0.767,0,1.404,0.078,1.91,0.236
				c0.507,0.157,0.911,0.38,1.213,0.667c0.301,0.288,0.514,0.634,0.637,1.038s0.185,0.853,0.185,1.346
				c0,0.302-0.021,0.573-0.064,0.815c-0.044,0.242-0.103,0.458-0.176,0.647s-0.156,0.356-0.247,0.5
				c-0.092,0.145-0.186,0.267-0.282,0.367c-0.225,0.242-0.481,0.415-0.77,0.521l1.978,6.135H132.161z M129.009,247.401h0.438
				c0.328,0,0.628-0.031,0.897-0.093c0.269-0.062,0.5-0.168,0.691-0.318s0.34-0.353,0.445-0.606
				c0.104-0.253,0.157-0.571,0.157-0.955s-0.053-0.702-0.157-0.955c-0.105-0.254-0.254-0.456-0.445-0.606s-0.423-0.257-0.691-0.318
				c-0.27-0.062-0.569-0.093-0.897-0.093h-0.438V247.401z"/>
		</g>
	</g>
</g>
</svg>
