<?xml version="1.0" encoding="utf-8"?>
<!-- Generator: Adobe Illustrator 15.0.0, SVG Export Plug-In . SVG Version: 6.00 Build 0)  -->
<!DOCTYPE svg PUBLIC "-//W3C//DTD SVG 1.1//EN" "http://www.w3.org/Graphics/SVG/1.1/DTD/svg11.dtd">
<svg version="1.1" id="Calque_1" xmlns="http://www.w3.org/2000/svg" xmlns:xlink="http://www.w3.org/1999/xlink" x="0px" y="0px"
	 width="500px" height="300px" viewBox="0 50 500 300" enable-background="new 0 50 500 300" xml:space="preserve">
<g id="Layer_1">
	<g>
		<path fill="#FFFFFF" d="M149.232,265.565c0.532-0.623,0.292-1.445-0.084-2.114C149.543,264.131,149.802,264.956,149.232,265.565z"
			/>
		<path fill="#FFFFFF" d="M185.864,264.709c-0.378,0.427-1.135,0.728-2.466,0.829c-0.226,0.023-0.554,0.023-0.954,0.053
			c-1.032,0.026-2.616,0.051-4.628,0.1c-1.105,0-2.312,0-3.644,0.027c-2.039,0-4.827,0-8.117,0.026
			c-4.861,0.024-10.233,0.024-15.564,0.024c-9.203,0-18.178-0.024-23.784-0.055c-1.559,0-2.842-0.025-3.821-0.025
			c-3.244-0.03-5.708-0.073-6.965-0.129c-0.177,0-0.378,0-0.579-0.023c-0.227-0.03-0.427-0.057-0.603-0.08
			c-4.35-0.598-0.905-4.066-0.905-4.066s5.28-4.127,7.895-8.244c0,0,0.778-0.026,1.507-6.389c1.007-8.998,1.886-15.988,1.886-15.988
			h48.499c0,0,0.86,6.99,1.886,15.988c0.702,6.359,1.488,6.389,1.488,6.389c2.461,3.873,7.24,7.742,7.837,8.224
			c0.032,0,0.054,0.026,0.054,0.026s0.177,0.172,0.403,0.473C185.833,262.544,186.61,263.828,185.864,264.709z"/>
		<path fill="#FFFFFF" d="M149.104,262.437c0.161,0.196,0.34,0.447,0.497,0.727C149.445,262.89,149.265,262.638,149.104,262.437z"/>
		<path fill="#FFFFFF" d="M149.678,227.507c-7.968,0.032-111.997,0.361-117.065,0c-5.267-0.369-5.648-5.646-5.648-5.646V83.715
			c0-4.518,5.645-4.778,5.645-4.778h115.943h1.604h115.938c0,0,5.646,0.261,5.646,4.778V221.86c0,0-0.379,5.279-5.646,5.646
			C261.141,227.86,161.414,227.542,149.678,227.507 M262.234,88.231H36.752V215.84h225.482V88.231L262.234,88.231z"/>
	</g>
	<g id="Calque_1_1_" display="none">
	</g>
	<g id="Calque_2">
		<circle fill="#FFFFFF" cx="404.424" cy="299.985" r="1.875"/>
		<path fill="#FFFFFF" d="M413.188,268.31h-17.534c-3.629,0-6.57,3.405-6.57,7.604v37.545c0,4.2,2.938,7.605,6.57,7.605h17.534
			c3.632,0,6.574-3.405,6.574-7.605v-37.547C419.762,271.715,416.818,268.31,413.188,268.31z M400.615,271.435h7.615
			c0.461,0,0.834,0.375,0.834,0.834c0,0.461-0.373,0.832-0.834,0.832h-7.615c-0.461,0-0.834-0.371-0.834-0.832
			C399.781,271.81,400.154,271.435,400.615,271.435z M391.514,303.999c1.052,0.197,2.095,0.367,3.136,0.518v2.854
			c-1.041-0.148-2.082-0.325-3.136-0.521V303.999z M391.605,299.906v-1.875c0-0.611,0.5-1.11,1.108-1.11h3.381v5.141
			c-1.1-0.293-2.223-0.638-3.381-1.045C392.146,300.817,391.605,300.519,391.605,299.906z M391.514,308.539
			c1.05,0.196,2.095,0.364,3.136,0.515v2.547c-1.041-0.15-2.082-0.324-3.136-0.522V308.539z M398.334,317.433h-1.064
			c-1.831,0-3.331-1.152-3.331-2.559c0-0.629,0-1.2,0-1.646c1.475,0.252,2.938,0.438,4.396,0.586V317.433z M398.334,312.033
			c-0.855-0.079-1.713-0.175-2.576-0.285v-2.551c0.861,0.108,1.722,0.202,2.576,0.278V312.033z M398.334,307.804
			c-0.855-0.078-1.713-0.174-2.576-0.285v-2.854c0.861,0.108,1.722,0.204,2.576,0.283V307.804z M413.086,304.62v2.855
			c-0.861,0.116-1.721,0.217-2.576,0.297v-2.857C411.367,304.834,412.225,304.733,413.086,304.62z M412.883,302.026v-5.105h3.248
			c0.609,0,1.109,0.5,1.109,1.11v1.875c0,0.612-0.543,0.911-1.109,1.112C415.025,301.407,413.945,301.74,412.883,302.026z
			 M413.086,309.156v2.549c-0.861,0.118-1.721,0.216-2.576,0.296v-2.554C411.367,309.368,412.225,309.271,413.086,309.156z
			 M411.219,302.437c-4.547,1.012-8.828,1.037-13.455,0.028v-5.544h13.455V302.437z M403.133,308.063v-2.862
			c0.861,0.016,1.719,0.013,2.578-0.007v2.861C404.852,308.077,403.992,308.079,403.133,308.063z M405.711,309.728v2.559
			c-0.859,0.02-1.719,0.021-2.578,0.008v-2.561c0.377,0.006,0.754,0.013,1.129,0.013
			C404.746,309.745,405.229,309.738,405.711,309.728z M399.445,307.896v-2.86c0.862,0.062,1.721,0.106,2.578,0.134v2.862
			C401.166,308.004,400.307,307.959,399.445,307.896z M402.023,309.702v2.561c-0.859-0.031-1.718-0.074-2.578-0.136v-2.558
			C400.307,309.631,401.166,309.674,402.023,309.702z M409.4,317.433h-9.955v-3.512c1.612,0.133,3.217,0.206,4.819,0.206
			c1.709,0,3.416-0.081,5.134-0.229v3.535H409.4L409.4,317.433z M409.4,312.101c-0.861,0.067-1.722,0.116-2.578,0.149v-2.56
			c0.858-0.033,1.717-0.08,2.578-0.148V312.101z M409.4,307.872c-0.861,0.066-1.722,0.115-2.578,0.148v-2.86
			c0.858-0.034,1.719-0.081,2.578-0.146V307.872z M414.906,314.874c0,1.405-1.502,2.559-3.332,2.559h-1.064v-3.653
			c1.459-0.154,2.92-0.349,4.396-0.604C414.906,313.622,414.906,314.22,414.906,314.874z M417.332,311.013
			c-1.051,0.204-2.094,0.383-3.135,0.538v-2.547c1.041-0.153,2.084-0.325,3.135-0.524V311.013z M417.332,306.782
			c-1.051,0.206-2.094,0.385-3.135,0.54v-2.854c1.041-0.154,2.084-0.328,3.135-0.533V306.782z M417.332,294.729h-25.814v-17.916
			h25.814V294.729z"/>
	</g>
	<path fill="#FFFFFF" d="M469.811,209.073h-43.846c-1.781,0-3.225,1.443-3.225,3.226v58.03c0,1.779,1.442,3.225,3.225,3.225h43.846
		c1.779,0,3.226-1.443,3.226-3.225v-58.03C473.033,210.519,471.59,209.073,469.811,209.073z M447.887,272.587
		c-0.891,0-1.612-0.722-1.612-1.613c0-0.891,0.723-1.61,1.612-1.61c0.894,0,1.613,0.721,1.613,1.61
		C449.5,271.865,448.779,272.587,447.887,272.587z M467.877,267.726c0,0.371-0.301,0.67-0.668,0.67h-38.643
		c-0.369,0-0.67-0.299-0.67-0.67v-52.824c0-0.368,0.299-0.668,0.67-0.668h38.643c0.365,0,0.668,0.3,0.668,0.668V267.726z"/>
	<path fill="#FFFFFF" d="M91.24,252.158H68.524c-2.788,0-5.048,2.259-5.048,5.048v54.32c0,2.787,2.261,5.048,5.048,5.048H91.24
		c2.788,0,5.048-2.261,5.048-5.048v-54.32C96.288,254.417,94.027,252.158,91.24,252.158z M77.399,257.513h4.966
		c0.371,0,0.671,0.303,0.671,0.676c0,0.371-0.301,0.672-0.671,0.672h-4.966c-0.372,0-0.672-0.301-0.672-0.672
		C76.727,257.815,77.027,257.513,77.399,257.513z M74.506,257.256c0.441,0,0.801,0.361,0.801,0.804c0,0.44-0.359,0.801-0.801,0.801
		c-0.443,0-0.801-0.359-0.801-0.801C73.704,257.615,74.063,257.256,74.506,257.256z M79.882,313.851
		c-1.743,0-3.155-1.412-3.155-3.153c0-1.743,1.412-3.155,3.155-3.155c1.742,0,3.154,1.412,3.154,3.155
		C83.036,312.438,81.624,313.851,79.882,313.851z M93.763,305.296H66v-41.857h27.763V305.296z"/>
	<g>
		<path fill="#FFFFFF" d="M369.562,196.351c-0.095-1.237-1.115-2.215-2.378-2.215h-91.049c-1.264,0-2.286,0.977-2.379,2.215
			l-0.021,61.519h95.841L369.562,196.351z M277.848,198.377h87.627v50.386h-87.627V198.377L277.848,198.377z"/>
		<path fill="#FFFFFF" d="M369.58,259.646h-95.84l-15.744,15.058h63.666h63.668L369.58,259.646z"/>
		<path fill="#FFFFFF" d="M388.064,278.61c0,1.135-0.947,2.053-2.115,2.053H257.373c-1.17,0-2.115-0.918-2.115-2.053l0,0
			c0-1.135,0.945-2.053,2.115-2.053h128.578C387.117,276.556,388.064,277.476,388.064,278.61L388.064,278.61z"/>
	</g>
	<g id="Your_Icon">
		<path fill="#FFFFFF" d="M242.359,290.829l0.02-48.023c0-3.959-1.171-7.015-3.483-9.084c-3.058-2.736-6.921-2.636-7.875-2.556
			c-1.735-0.002-21.407-0.024-26.866-0.024c-3.96,0-7.017,1.172-9.082,3.483c-2.735,3.06-2.627,6.919-2.555,7.877l-0.023,47.438
			c0,3.931,1.154,7.031,3.434,9.217c2.371,2.271,5.239,2.798,6.805,2.932l0.157,0.031h29.229l0.292-0.096
			c3.127-0.307,5.638-1.375,7.391-3.334C242.538,295.628,242.433,291.789,242.359,290.829z M218.153,299.467v0.022
			c0,0,0.039-0.006,0.002-0.006c-0.04,0-0.002,0.006-0.002,0.006V299.467c-1.974-0.165-3.536-1.788-3.536-3.803
			c0-2.022,1.562-3.653,3.536-3.813v-0.022c0,0.005-0.038,0.009,0.002,0.009c0.037,0-0.002-0.004-0.002-0.009v0.022
			c1.973,0.16,3.532,1.791,3.532,3.813C221.685,297.681,220.125,299.304,218.153,299.467z M236.963,289.288H197.89l0.024-46.828
			l-0.012-0.316c-0.004-0.021-0.198-2.379,1.217-3.93c1.004-1.099,2.695-1.665,5.036-1.665c5.707,0,26.982,0.021,26.982,0.021
			l0.301-0.02c0.024-0.005,2.316-0.189,3.856,1.195c1.124,1,1.688,2.777,1.688,5.136L236.963,289.288z"/>
	</g>
</g>
</svg>
