<?xml version="1.0" encoding="utf-8"?>
<!-- Generator: Adobe Illustrator 15.0.0, SVG Export Plug-In . SVG Version: 6.00 Build 0)  -->
<!DOCTYPE svg PUBLIC "-//W3C//DTD SVG 1.1//EN" "http://www.w3.org/Graphics/SVG/1.1/DTD/svg11.dtd">
<svg version="1.1" id="Calque_1" xmlns="http://www.w3.org/2000/svg" xmlns:xlink="http://www.w3.org/1999/xlink" x="0px" y="0px"
	 width="40px" height="40px" viewBox="0 0 40 40" enable-background="new 0 0 40 40" xml:space="preserve">
<g>
	<circle fill="#333333" cx="20" cy="20" r="19"/>
	<g id="Layer_1">
		<g id="Calque_1_1_" display="none">
		</g>
		<path fill="#FFFFFF" d="M24.625,6.878h-9.25c-1.141,0-2.059,0.918-2.059,2.056v22.13c0,1.141,0.918,2.059,2.059,2.059h9.25
			c1.139,0,2.059-0.918,2.059-2.059V8.934C26.684,7.796,25.764,6.878,24.625,6.878z M18.988,9.06h2.023
			c0.152,0,0.272,0.125,0.272,0.276c0,0.148-0.126,0.273-0.272,0.273h-2.023c-0.15,0-0.274-0.125-0.274-0.273
			C18.714,9.185,18.838,9.06,18.988,9.06z M17.809,8.953c0.183,0,0.325,0.148,0.325,0.328c0,0.179-0.143,0.328-0.325,0.328
			c-0.184,0-0.326-0.148-0.326-0.328C17.482,9.103,17.631,8.953,17.809,8.953z M20,32.013c-0.71,0-1.287-0.572-1.287-1.285
			c0-0.707,0.577-1.283,1.287-1.283c0.709,0,1.285,0.576,1.285,1.283C21.285,31.44,20.71,32.013,20,32.013z M25.658,28.526H14.348
			V11.471h11.311V28.526z"/>
	</g>
</g>
<g>
	<g>
		<path fill="#FFFFFF" d="M-66.549,31.817c0.066-0.077,0.036-0.179-0.01-0.262C-66.51,31.64-66.478,31.742-66.549,31.817z"/>
		<path fill="#FFFFFF" d="M-62.009,31.712c-0.046,0.053-0.141,0.09-0.305,0.103c-0.028,0.003-0.069,0.003-0.118,0.007
			c-0.128,0.003-0.325,0.006-0.574,0.012c-0.137,0-0.287,0-0.452,0.004c-0.252,0-0.598,0-1.006,0.003
			c-0.603,0.003-1.268,0.003-1.929,0.003c-1.141,0-2.253-0.003-2.948-0.006c-0.193,0-0.352-0.004-0.474-0.004
			c-0.402-0.004-0.708-0.009-0.863-0.016c-0.022,0-0.046,0-0.071-0.003c-0.028-0.004-0.053-0.008-0.075-0.011
			c-0.539-0.073-0.112-0.504-0.112-0.504s0.654-0.512,0.979-1.021c0,0,0.096-0.003,0.187-0.792c0.125-1.115,0.234-1.98,0.234-1.98
			h6.01c0,0,0.106,0.865,0.234,1.98c0.087,0.788,0.185,0.792,0.185,0.792c0.305,0.479,0.897,0.96,0.971,1.02
			c0.004,0,0.007,0.003,0.007,0.003s0.022,0.021,0.05,0.059C-62.013,31.443-61.917,31.603-62.009,31.712z"/>
		<path fill="#FFFFFF" d="M-66.564,31.43c0.02,0.024,0.042,0.056,0.062,0.091C-66.522,31.486-66.544,31.455-66.564,31.43z"/>
		<path fill="#FFFFFF" d="M-66.494,27.102c-0.987,0.003-13.88,0.044-14.508,0c-0.652-0.047-0.7-0.701-0.7-0.701V9.28
			c0-0.56,0.7-0.592,0.7-0.592h14.369h0.199h14.369c0,0,0.7,0.032,0.7,0.592V26.4c0,0-0.047,0.655-0.7,0.701
			C-52.68,27.145-65.039,27.105-66.494,27.102 M-52.544,9.84h-27.945v15.815h27.945V9.84L-52.544,9.84z"/>
	</g>
	<path fill="#FFFFFF" d="M-49.428,19.197h-8.919c-0.362,0-0.656,0.294-0.656,0.656v11.806c0,0.361,0.293,0.655,0.656,0.655h8.919
		c0.362,0,0.656-0.293,0.656-0.655V19.853C-48.772,19.492-49.066,19.197-49.428,19.197z M-53.888,32.118
		c-0.181,0-0.328-0.147-0.328-0.328c0-0.182,0.147-0.328,0.328-0.328c0.182,0,0.328,0.146,0.328,0.328
		C-53.56,31.971-53.707,32.118-53.888,32.118z M-49.821,31.129c0,0.076-0.061,0.137-0.136,0.137h-7.862
		c-0.075,0-0.136-0.061-0.136-0.137V20.383c0-0.075,0.061-0.136,0.136-0.136h7.862c0.074,0,0.136,0.062,0.136,0.136V31.129z"/>
	<path fill="#FFFFFF" d="M-47.912,23.117h-3.189c-0.391,0-0.708,0.316-0.708,0.708v7.625c0,0.392,0.317,0.709,0.708,0.709h3.189
		c0.392,0,0.708-0.317,0.708-0.709v-7.625C-47.204,23.434-47.521,23.117-47.912,23.117z M-49.855,23.868h0.697
		c0.052,0,0.094,0.042,0.094,0.095c0,0.052-0.042,0.095-0.094,0.095h-0.697c-0.052,0-0.094-0.043-0.094-0.095
		C-49.949,23.91-49.907,23.868-49.855,23.868z M-50.261,23.832c0.062,0,0.112,0.051,0.112,0.113c0,0.062-0.05,0.112-0.112,0.112
		s-0.112-0.051-0.112-0.112C-50.374,23.883-50.323,23.832-50.261,23.832z M-49.506,31.776c-0.245,0-0.443-0.197-0.443-0.442
		c0-0.244,0.198-0.442,0.443-0.442c0.244,0,0.442,0.198,0.442,0.442C-49.064,31.579-49.262,31.776-49.506,31.776z M-47.558,30.576
		h-3.897V24.7h3.897V30.576z"/>
</g>
</svg>
