<?xml version="1.0" encoding="utf-8"?>
<!-- Generator: Adobe Illustrator 15.0.0, SVG Export Plug-In . SVG Version: 6.00 Build 0)  -->
<!DOCTYPE svg PUBLIC "-//W3C//DTD SVG 1.1//EN" "http://www.w3.org/Graphics/SVG/1.1/DTD/svg11.dtd">
<svg version="1.1" id="Calque_1" xmlns="http://www.w3.org/2000/svg" xmlns:xlink="http://www.w3.org/1999/xlink" x="0px" y="0px"
	 width="40px" height="40px" viewBox="0 0 40 40" enable-background="new 0 0 40 40" xml:space="preserve">
<path id="twitter-4-icon" fill="#FFFFFF" d="M20,0.5C9.23,0.5,0.5,9.23,0.5,20S9.23,39.5,20,39.5S39.5,30.77,39.5,20
	S30.77,0.5,20,0.5z M29.807,16.64c0.286,6.361-4.458,13.454-12.855,13.454c-2.554,0-4.931-0.749-6.933-2.032
	c2.399,0.282,4.794-0.383,6.696-1.873c-1.979-0.036-3.65-1.344-4.225-3.141c0.708,0.136,1.406,0.096,2.042-0.077
	c-2.175-0.438-3.677-2.396-3.627-4.492c0.609,0.339,1.307,0.542,2.048,0.566c-2.014-1.346-2.584-4.006-1.399-6.038
	c2.23,2.736,5.563,4.537,9.321,4.725c-0.659-2.829,1.486-5.553,4.406-5.553c1.301,0,2.477,0.549,3.301,1.428
	c1.031-0.203,1.998-0.579,2.873-1.098c-0.338,1.056-1.055,1.942-1.989,2.502c0.915-0.109,1.786-0.353,2.598-0.712
	C31.457,15.206,30.69,16.002,29.807,16.64z"/>
</svg>
