<?xml version="1.0" encoding="utf-8"?>
<!-- Generator: Adobe Illustrator 15.0.0, SVG Export Plug-In . SVG Version: 6.00 Build 0)  -->
<!DOCTYPE svg PUBLIC "-//W3C//DTD SVG 1.1//EN" "http://www.w3.org/Graphics/SVG/1.1/DTD/svg11.dtd">
<svg version="1.1" id="Calque_1" xmlns="http://www.w3.org/2000/svg" xmlns:xlink="http://www.w3.org/1999/xlink" x="0px" y="0px"
	 width="40px" height="40px" viewBox="0 0 40 40" enable-background="new 0 0 40 40" xml:space="preserve">
<g>
	<circle fill="#333333" cx="20" cy="20" r="19"/>
	<g>
		<g>
			<path fill="#FFFFFF" d="M18.059,28.691c0.05-0.058,0.027-0.131-0.006-0.192C18.088,28.561,18.112,28.637,18.059,28.691z"/>
			<path fill="#FFFFFF" d="M21.408,28.614c-0.034,0.039-0.104,0.064-0.225,0.076c-0.021,0.001-0.052,0.001-0.089,0.003
				c-0.093,0.002-0.239,0.006-0.42,0.01c-0.104,0-0.213,0-0.335,0.003c-0.187,0-0.441,0-0.742,0.002
				c-0.444,0.003-0.936,0.003-1.422,0.003c-0.842,0-1.663-0.003-2.175-0.005c-0.143,0-0.26-0.003-0.349-0.003
				c-0.297-0.004-0.523-0.008-0.637-0.012c-0.017,0-0.035,0-0.053-0.001c-0.02-0.004-0.039-0.008-0.056-0.01
				c-0.397-0.054-0.082-0.372-0.082-0.372s0.483-0.376,0.722-0.753c0,0,0.07-0.002,0.137-0.582c0.091-0.824,0.173-1.462,0.173-1.462
				h4.434c0,0,0.076,0.638,0.171,1.462c0.065,0.58,0.137,0.582,0.137,0.582c0.224,0.353,0.661,0.709,0.716,0.753
				c0.002,0,0.007,0.003,0.007,0.003s0.016,0.015,0.034,0.044C21.405,28.415,21.477,28.533,21.408,28.614z"/>
			<path fill="#FFFFFF" d="M18.049,28.405c0.014,0.02,0.03,0.041,0.045,0.066C18.079,28.446,18.063,28.425,18.049,28.405z"/>
			<path fill="#FFFFFF" d="M18.101,25.212c-0.729,0.004-10.24,0.034-10.704,0c-0.48-0.033-0.515-0.517-0.515-0.517V12.067
				c0-0.413,0.515-0.437,0.515-0.437h10.601h0.146h10.6c0,0,0.515,0.024,0.515,0.437v12.628c0,0-0.035,0.483-0.515,0.517
				C28.29,25.244,19.174,25.216,18.101,25.212 M28.39,12.48H7.777v11.667H28.39V12.48L28.39,12.48z"/>
		</g>
		<g>
			<path fill="#333333" d="M31,17.938h-7.02c-0.067,0-0.121,0.055-0.121,0.121v9.595c0,0.065,0.054,0.12,0.121,0.12H31
				c0.064,0,0.12-0.055,0.12-0.12v-9.595C31.12,17.993,31.064,17.938,31,17.938z"/>
			<circle fill="none" cx="27.489" cy="28.242" r="0.292"/>
			<path fill="#FFFFFF" d="M31.471,17h-7.963c-0.324,0-0.584,0.262-0.584,0.586v10.541c0,0.322,0.26,0.584,0.584,0.584h7.963
				c0.326,0,0.589-0.262,0.589-0.584V17.586C32.056,17.263,31.797,17,31.471,17z M27.489,28.534c-0.162,0-0.293-0.131-0.293-0.29
				c0-0.163,0.133-0.295,0.293-0.295c0.161,0,0.293,0.132,0.293,0.295C27.782,28.403,27.65,28.534,27.489,28.534z M31.12,27.653
				c0,0.065-0.056,0.12-0.12,0.12h-7.02c-0.067,0-0.121-0.055-0.121-0.12v-9.595c0-0.066,0.054-0.121,0.121-0.121H31
				c0.064,0,0.12,0.055,0.12,0.121V27.653z"/>
		</g>
		<g>
			<circle fill="none" cx="30.746" cy="22.329" r="0.094"/>
			<path fill="#333333" d="M31.377,28.13c-0.208,0-0.371,0.166-0.371,0.37c0,0.205,0.163,0.368,0.371,0.368
				c0.205,0,0.37-0.163,0.37-0.368C31.747,28.296,31.582,28.13,31.377,28.13z"/>
			<path fill="none" d="M31.667,22.423c0.045,0,0.08-0.033,0.08-0.078c0-0.043-0.035-0.077-0.08-0.077h-0.581
				c-0.044,0-0.08,0.034-0.08,0.077c0,0.045,0.036,0.078,0.08,0.078H31.667z"/>
			<rect x="29.748" y="22.963" fill="#333333" width="3.255" height="4.904"/>
			<path fill="#FFFFFF" d="M32.708,21.641h-2.662c-0.326,0-0.591,0.263-0.591,0.591v6.366c0,0.325,0.265,0.592,0.591,0.592h2.662
				c0.326,0,0.591-0.267,0.591-0.592v-6.366C33.299,21.903,33.034,21.641,32.708,21.641z M31.086,22.268h0.581
				c0.045,0,0.08,0.034,0.08,0.077c0,0.045-0.035,0.078-0.08,0.078h-0.581c-0.044,0-0.08-0.033-0.08-0.078
				C31.006,22.302,31.042,22.268,31.086,22.268z M30.746,22.234c0.053,0,0.094,0.045,0.094,0.096c0,0.052-0.041,0.093-0.094,0.093
				c-0.051,0-0.093-0.041-0.093-0.093C30.653,22.279,30.695,22.234,30.746,22.234z M31.377,28.868c-0.208,0-0.371-0.163-0.371-0.368
				c0-0.204,0.163-0.37,0.371-0.37c0.205,0,0.37,0.166,0.37,0.37C31.747,28.705,31.582,28.868,31.377,28.868z M33.003,27.867h-3.255
				v-4.904h3.255V27.867z"/>
		</g>
	</g>
</g>
</svg>
