<?xml version="1.0" encoding="utf-8"?>
<!-- Generator: Adobe Illustrator 15.0.0, SVG Export Plug-In . SVG Version: 6.00 Build 0)  -->
<!DOCTYPE svg PUBLIC "-//W3C//DTD SVG 1.1//EN" "http://www.w3.org/Graphics/SVG/1.1/DTD/svg11.dtd">
<svg version="1.1" id="Calque_1" xmlns="http://www.w3.org/2000/svg" xmlns:xlink="http://www.w3.org/1999/xlink" x="0px" y="0px"
	 width="40px" height="40px" viewBox="5 5 40 40" enable-background="new 5 5 40 40" xml:space="preserve">
<circle fill="#333333" cx="25" cy="25" r="19"/>
<g>
	<path fill="#FFFFFF" d="M29.784,15.312l4.903,4.901c1.354-1.353,1.354-3.548,0-4.901C33.333,13.958,31.139,13.958,29.784,15.312z"
		/>
	<path fill="#FFFFFF" d="M33.346,21.556l-4.901-4.902L17.766,27.331l-3.469,8.372l8.372-3.469L33.346,21.556z M22.157,31.398
		l-4.81,1.993l-0.738-0.737l1.995-4.81c0,0,0.891,0.158,1.335,0.604c0.446,0.446,0.325,1.29,0.139,1.476
		c0.187-0.187,1.03-0.308,1.475,0.14C21.998,30.507,22.157,31.398,22.157,31.398z"/>
</g>
</svg>
