<?xml version="1.0" encoding="utf-8"?>
<!-- Generator: Adobe Illustrator 15.0.0, SVG Export Plug-In . SVG Version: 6.00 Build 0)  -->
<!DOCTYPE svg PUBLIC "-//W3C//DTD SVG 1.1//EN" "http://www.w3.org/Graphics/SVG/1.1/DTD/svg11.dtd">
<svg version="1.1" id="Calque_1" xmlns="http://www.w3.org/2000/svg" xmlns:xlink="http://www.w3.org/1999/xlink" x="0px" y="0px"
	 width="40px" height="40px" viewBox="0 0 40 40" enable-background="new 0 0 40 40" xml:space="preserve">
<path id="facebook-circle-icon" fill="#FFFFFF" d="M20,0.5C9.23,0.5,0.5,9.23,0.5,20c0,10.77,8.73,19.5,19.5,19.5
	c10.77,0,19.5-8.73,19.5-19.5C39.5,9.23,30.77,0.5,20,0.5z M25.771,11.973c0,0-1.951,0-2.727,0c-0.962,0-1.162,0.394-1.162,1.389
	c0,0.828,0,2.405,0,2.405h3.889l-0.375,4.222h-3.514V32.6h-5.036V20.041h-2.619v-4.274h2.619c0,0,0-0.615,0-3.367
	c0-3.159,1.689-4.81,5.438-4.81c0.613,0,3.486,0,3.486,0V11.973L25.771,11.973z"/>
</svg>
