<?xml version="1.0" encoding="utf-8"?>
<!-- Generator: Adobe Illustrator 15.0.0, SVG Export Plug-In . SVG Version: 6.00 Build 0)  -->
<!DOCTYPE svg PUBLIC "-//W3C//DTD SVG 1.1//EN" "http://www.w3.org/Graphics/SVG/1.1/DTD/svg11.dtd">
<svg version="1.1" id="Calque_1" xmlns="http://www.w3.org/2000/svg" xmlns:xlink="http://www.w3.org/1999/xlink" x="0px" y="0px"
	 width="40px" height="40px" viewBox="230 180 40 40" enable-background="new 230 180 40 40" xml:space="preserve">
<circle fill="#333333" cx="250" cy="200" r="19"/>
<g>
	<g>
		<path fill="#FFFFFF" d="M250,186.834c-7.261,0-13.166,5.906-13.166,13.166c0,7.261,5.904,13.166,13.166,13.166
			c7.259,0,13.166-5.905,13.166-13.166C263.166,192.74,257.259,186.834,250,186.834z"/>
		<g>
			<g>
				<g>
					<path fill="#333333" d="M238.706,200c0,4.471,2.599,8.336,6.366,10.163l-5.389-14.759
						C239.058,196.808,238.706,198.364,238.706,200z"/>
					<path fill="#333333" d="M257.624,199.43c0-1.396-0.501-2.362-0.929-3.114c-0.576-0.93-1.112-1.719-1.112-2.647
						c0-1.04,0.788-2.008,1.897-2.008c0.053,0,0.099,0.007,0.149,0.009c-2.014-1.839-4.689-2.963-7.63-2.963
						c-3.946,0-7.418,2.024-9.438,5.091c0.266,0.008,0.516,0.014,0.728,0.014c1.182,0,3.011-0.143,3.011-0.143
						c0.606-0.035,0.679,0.857,0.071,0.929c0,0-0.611,0.072-1.293,0.109l4.112,12.233l2.47-7.41l-1.758-4.823
						c-0.608-0.035-1.185-0.108-1.185-0.108c-0.609-0.034-0.537-0.967,0.071-0.93c0,0,1.863,0.143,2.975,0.143
						c1.182,0,3.009-0.143,3.009-0.143c0.609-0.034,0.684,0.859,0.073,0.93c0,0-0.615,0.071-1.292,0.108l4.081,12.141l1.127-3.763
						C257.254,201.521,257.624,200.396,257.624,199.43z"/>
					<path fill="#333333" d="M250.201,200.988l-3.391,9.845c1.012,0.299,2.081,0.459,3.189,0.459c1.315,0,2.576-0.226,3.753-0.641
						c-0.029-0.046-0.06-0.098-0.08-0.155L250.201,200.988z"/>
					<path fill="#333333" d="M259.91,194.581c0.048,0.359,0.076,0.746,0.076,1.161c0,1.145-0.217,2.433-0.857,4.046l-3.452,9.972
						c3.358-1.959,5.615-5.595,5.615-9.762C261.294,198.036,260.793,196.191,259.91,194.581z"/>
				</g>
			</g>
		</g>
	</g>
</g>
</svg>
