<?xml version="1.0" encoding="utf-8"?>
<!-- Generator: Adobe Illustrator 15.0.0, SVG Export Plug-In . SVG Version: 6.00 Build 0)  -->
<!DOCTYPE svg PUBLIC "-//W3C//DTD SVG 1.1//EN" "http://www.w3.org/Graphics/SVG/1.1/DTD/svg11.dtd">
<svg version="1.1" id="Calque_1" xmlns="http://www.w3.org/2000/svg" xmlns:xlink="http://www.w3.org/1999/xlink" x="0px" y="0px"
	 width="40px" height="40px" viewBox="0 0 40 40" enable-background="new 0 0 40 40" xml:space="preserve">
<path id="linkedin-circle-icon" fill="#FFFFFF" d="M20,1C9.506,1,1,9.506,1,20s8.506,19,19,19c10.493,0,19-8.506,19-19
	S30.493,1,20,1z M14.932,29.186H10.76V15.709h4.172V29.186z M12.825,13.943c-1.362,0-2.468-1.113-2.468-2.487
	s1.104-2.487,2.468-2.487c1.362,0,2.467,1.113,2.467,2.487S14.188,13.943,12.825,13.943z M30.564,29.186h-4.152c0,0,0-5.135,0-7.074
	s-0.736-3.023-2.271-3.023c-1.668,0-2.541,1.128-2.541,3.023c0,2.076,0,7.074,0,7.074h-4V15.709h4v1.814
	c0,0,1.203-2.226,4.062-2.226s4.903,1.745,4.903,5.354S30.564,29.186,30.564,29.186z"/>
</svg>
