<?xml version="1.0" encoding="utf-8"?>
<!-- Generator: Adobe Illustrator 15.0.0, SVG Export Plug-In . SVG Version: 6.00 Build 0)  -->
<!DOCTYPE svg PUBLIC "-//W3C//DTD SVG 1.1//EN" "http://www.w3.org/Graphics/SVG/1.1/DTD/svg11.dtd">
<svg version="1.1" id="Calque_1" xmlns="http://www.w3.org/2000/svg" xmlns:xlink="http://www.w3.org/1999/xlink" x="0px" y="0px"
	 width="200px" height="45px" viewBox="0 0 200 45" enable-background="new 0 0 200 45" xml:space="preserve">
<g>
	<rect x="-41.833" y="-36.167" display="none" fill="#935151" width="275" height="98.667"/>
	<path fill="#FFFFFF" d="M8.228,37.333c0.258,0.312,0.52,0.617,0.799,0.899c2.766,2.832,6.717,5.263,10.68,5.85
		c5.682,0.846,12.074-0.857,15.842-5.379c0.937-1.126,1.832-2.494,2.404-3.848c1.654-3.883,1.705-9.129,0.411-13.123
		C35.865,14.014,27.966,9.533,20.271,8.648C18.387,8.43,16.59,8.76,14.741,8.195c-0.228-0.068-3.116-1.014-3.096-1.114
		c0,0,0.121-0.544-0.229-0.901c-0.546-0.552-1.134-0.744-1.864-0.666C8.875,4.468,6.107,1.043,6.107,1.043L4.982,2.154l3.223,4.054
		C7.931,6.621,7.514,7.59,7.942,8.18C8.107,8.404,8.377,8.539,8.642,8.6c-0.222,1.688-0.12,3.584-0.988,5.127
		c-1.614,2.863-2.611,5.723-3.009,9.002C4.139,26.92,4.688,31.707,6.87,35.395C7.265,36.057,7.723,36.723,8.228,37.333z"/>
	<g enable-background="new    ">
		<path fill="#FFFFFF" d="M58.452,4.922l0.324-3.024h2.376v14.958h-2.916V9.944c0-3.51-1.566-5.13-4.158-5.13
			c-2.484,0-4.212,1.566-4.212,5.13v26.407c0,2.376,1.782,4.212,4.104,4.212c2.376,0,4.266-1.836,4.266-4.212v-7.074h2.916v7.074
			c0,3.996-2.862,7.128-7.182,7.128c-4.428,0-7.236-3.132-7.236-7.128V9.026c0-3.942,2.16-7.128,6.804-7.128
			c2.43,0,4.158,1.296,4.806,3.024H58.452z"/>
		<path fill="#FFFFFF" d="M86.045,2.438v2.916h-2.916v30.942c0,3.996-3.187,7.183-7.182,7.183h-0.379
			c-3.888,0-7.182-3.187-7.182-7.183V5.354h-2.916V2.438h8.694v2.916h-2.754v30.942c0,2.377,1.89,4.32,4.157,4.32h0.379
			c2.376,0,4.157-1.943,4.157-4.32V5.354h-2.754V2.438H86.045z"/>
		<path fill="#FFFFFF" d="M113.207,2.438v2.916h-3.51l-7.02,21.384v13.284h3.834v2.916H95.71v-2.916h3.834V26.738L92.47,5.354
			h-3.456V2.438h9.505v2.916h-3.024l5.562,17.982l5.67-17.982h-3.023V2.438H113.207z"/>
		<path fill="#FFFFFF" d="M132.701,40.022v2.916h-9.504v-2.916h3.023l-1.729-12.42h-4.967l-1.729,12.42h3.023v2.916h-9.504v-2.916
			h3.348l3.348-24.625l1.783-12.96h4.428l5.131,37.584H132.701z M124.277,25.28l-1.189-9.882l-1.08-10.692l-1.08,10.692
			l-1.188,9.882H124.277z"/>
		<path fill="#FFFFFF" d="M152.141,28.683v6.912c0,3.348-0.756,7.344-6.211,7.344H134.32v-2.916h3.889V5.354h-3.889V2.438h11.609
			c4.32,0,5.887,3.618,5.887,7.668v5.346c0,0.972-0.27,5.454-4.697,5.67C148.307,21.176,152.141,21.824,152.141,28.683z
			 M145.768,5.354h-4.428V19.88h3.727c3.295,0,3.672-3.402,3.672-4.32V9.836C148.738,5.57,146.309,5.354,145.768,5.354z
			 M149.008,35.864v-6.858c0-6.317-3.617-6.642-4.32-6.642h-3.348v17.658h3.348C148.469,40.022,149.008,36.729,149.008,35.864z"/>
		<path fill="#FFFFFF" d="M175.469,40.022v2.916h-5.725V28.143c0-5.509-2.592-5.94-3.887-5.94h-3.51v17.82h3.672v2.916h-10.639
			v-2.916h3.834V5.354h-3.834V2.438h12.203c1.189,0,5.562,0.486,5.562,7.668v4.968c0,0,0,5.616-4.967,5.886
			c1.133,0.054,4.697,0.702,4.697,7.561v11.502H175.469z M170.016,15.344V9.836c0-4.05-2.107-4.482-3.619-4.482h-4.049v14.364h3.51
			C169.637,19.718,170.068,16.424,170.016,15.344z"/>
		<path fill="#FFFFFF" d="M193.828,9.08v27.162c0,4.104-3.348,7.236-7.451,7.236c-4.051,0-7.398-3.132-7.398-7.236V9.134
			c0-4.158,3.348-7.236,7.398-7.236C190.48,1.898,193.828,4.976,193.828,9.08z M190.75,9.134c0-2.538-1.943-4.32-4.373-4.32
			c-2.432,0-4.32,1.782-4.32,4.266v27.162c0,2.538,1.889,4.32,4.32,4.32c2.43,0,4.373-1.782,4.373-4.32V9.134z"/>
	</g>
</g>
</svg>
