<?xml version="1.0" encoding="utf-8"?>
<!-- Generator: Adobe Illustrator 15.0.0, SVG Export Plug-In . SVG Version: 6.00 Build 0)  -->
<!DOCTYPE svg PUBLIC "-//W3C//DTD SVG 1.1//EN" "http://www.w3.org/Graphics/SVG/1.1/DTD/svg11.dtd">
<svg version="1.1" id="Calque_1" xmlns="http://www.w3.org/2000/svg" xmlns:xlink="http://www.w3.org/1999/xlink" x="0px" y="0px"
	 width="130px" height="130px" viewBox="0 0 130 130" enable-background="new 0 0 130 130" xml:space="preserve">
<g>
	<g id="Your_Icon_1_">
		<polygon fill="#333333" points="126.808,67.427 130,65 126.808,62.572 129.804,59.899 126.428,57.726 129.2,54.831 
			125.668,52.931 128.206,49.824 124.533,48.209 126.818,44.914 123.035,43.591 125.052,40.124 121.172,39.103 122.914,35.492 
			118.968,34.777 120.423,31.038 116.432,30.632 117.586,26.795 113.576,26.708 114.428,22.784 110.421,23.012 110.962,19.039 
			106.988,19.578 107.217,15.572 103.295,16.424 103.208,12.416 99.365,13.57 98.962,9.578 95.225,11.028 94.507,7.085 
			90.897,8.827 89.874,4.949 86.409,6.966 85.083,3.183 81.792,5.466 80.175,1.794 77.065,4.332 75.166,0.801 72.272,3.572 
			70.102,0.197 67.429,3.191 64.998,0 62.573,3.191 59.9,0.197 57.728,3.572 54.829,0.801 52.932,4.332 49.825,1.794 48.208,5.466 
			44.912,3.183 43.59,6.966 40.125,4.947 39.103,8.827 35.49,7.085 34.775,11.028 31.037,9.578 30.634,13.57 26.794,12.415 
			26.705,16.424 22.782,15.571 23.011,19.578 19.037,19.039 19.578,23.012 15.571,22.784 16.421,26.707 12.415,26.795 
			13.568,30.632 9.575,31.036 11.03,34.777 7.086,35.492 8.825,39.101 4.945,40.124 6.964,43.591 3.181,44.915 5.465,48.209 
			1.793,49.824 4.33,52.931 0.8,54.831 3.569,57.726 0.197,59.897 3.189,62.572 0,65 3.189,67.427 0.195,70.1 3.571,72.271 
			0.8,75.166 4.33,77.065 1.793,80.174 5.465,81.791 3.181,85.087 6.964,86.408 4.945,89.869 8.825,90.896 7.086,94.508 
			11.03,95.222 9.575,98.963 13.568,99.365 12.413,103.204 16.421,103.295 15.571,107.215 19.578,106.988 19.037,110.961 
			23.011,110.42 22.782,114.427 26.705,113.578 26.792,117.587 30.634,116.432 31.037,120.422 34.775,118.969 35.49,122.913 
			39.103,121.172 40.125,125.055 43.592,123.033 44.915,126.816 48.207,124.533 49.823,128.205 52.932,125.666 54.829,129.198 
			57.728,126.43 59.898,129.801 62.572,126.809 64.998,130 67.429,126.809 70.1,129.801 72.272,126.428 75.166,129.198 
			77.065,125.666 80.175,128.205 81.792,124.533 85.085,126.816 86.409,123.035 89.874,125.055 90.897,121.172 94.507,122.913 
			95.223,118.969 98.962,120.422 99.365,116.432 103.205,117.587 103.295,113.58 107.217,114.427 106.988,110.42 110.962,110.961 
			110.421,106.988 114.428,107.215 113.576,103.295 117.586,103.206 116.432,99.365 120.423,98.963 118.968,95.222 122.914,94.508 
			121.174,90.896 125.052,89.871 123.033,86.408 126.818,85.084 124.535,81.791 128.206,80.174 125.668,77.065 129.2,75.166 
			126.428,72.271 129.804,70.1 		"/>
		<path fill="none" stroke="#FFFFFF" stroke-width="2" stroke-miterlimit="10" d="M65,13.098c-28.621,0-51.902,23.283-51.902,51.898
			c0,28.62,23.28,51.906,51.902,51.906c28.617,0,51.901-23.286,51.901-51.906C116.902,36.379,93.617,13.098,65,13.098z"/>
	</g>
	<path fill="#FFFFFF" d="M56.563,49.46c0.159,0.194,0.322,0.381,0.494,0.556c1.71,1.75,4.153,3.255,6.604,3.619
		c3.515,0.523,7.465-0.532,9.795-3.326c0.582-0.698,1.134-1.543,1.488-2.381c1.023-2.401,1.055-5.645,0.255-8.114
		c-1.546-4.773-6.431-7.544-11.188-8.092c-1.166-0.135-2.277,0.069-3.42-0.279c-0.141-0.043-1.927-0.628-1.914-0.691
		c0,0,0.074-0.336-0.143-0.557c-0.337-0.34-0.701-0.459-1.152-0.412c-0.419-0.646-2.13-2.764-2.13-2.764l-0.696,0.687l1.994,2.506
		c-0.171,0.255-0.428,0.854-0.164,1.218c0.103,0.139,0.27,0.223,0.433,0.26c-0.136,1.044-0.075,2.215-0.611,3.17
		c-0.998,1.771-1.614,3.539-1.86,5.566c-0.314,2.593,0.026,5.553,1.376,7.833C55.968,48.671,56.252,49.083,56.563,49.46z"/>
	<g enable-background="new    ">
		<path fill="#FFFFFF" d="M37.486,68.166l0.145-1.346h1.058v6.656h-1.298V70.4c0-1.562-0.697-2.282-1.85-2.282
			c-1.105,0-1.875,0.696-1.875,2.282v11.751c0,1.058,0.793,1.874,1.826,1.874c1.058,0,1.898-0.816,1.898-1.874v-3.147h1.298v3.147
			c0,1.778-1.274,3.173-3.196,3.173c-1.971,0-3.22-1.395-3.22-3.173V69.992c0-1.754,0.961-3.172,3.028-3.172
			c1.081,0,1.85,0.576,2.139,1.346H37.486z"/>
		<path fill="#FFFFFF" d="M49.766,67.061v1.298h-1.298v13.769c0,1.779-1.417,3.197-3.196,3.197h-0.168
			c-1.73,0-3.196-1.418-3.196-3.197V68.358H40.61v-1.298h3.869v1.298h-1.226v13.769c0,1.059,0.841,1.924,1.85,1.924h0.168
			c1.058,0,1.85-0.865,1.85-1.924V68.358h-1.225v-1.298H49.766z"/>
		<path fill="#FFFFFF" d="M61.852,67.061v1.298h-1.562l-3.124,9.516v5.911h1.706v1.299h-4.806v-1.299h1.706v-5.911l-3.148-9.516
			h-1.538v-1.298h4.229v1.298H53.97l2.476,8.003l2.522-8.003h-1.345v-1.298H61.852z"/>
		<path fill="#FFFFFF" d="M70.527,83.785v1.299h-4.229v-1.299h1.345l-0.769-5.526h-2.21l-0.769,5.526h1.346v1.299h-4.229v-1.299
			h1.49l1.49-10.957l0.793-5.768h1.97l2.283,16.725H70.527z M66.778,77.226l-0.528-4.397l-0.48-4.758l-0.481,4.758l-0.528,4.397
			H66.778z"/>
		<path fill="#FFFFFF" d="M79.177,78.739v3.076c0,1.489-0.336,3.269-2.763,3.269h-5.167v-1.299h1.729V68.358h-1.729v-1.298h5.167
			c1.922,0,2.619,1.61,2.619,3.412v2.379c0,0.434-0.12,2.428-2.091,2.523C77.471,75.398,79.177,75.688,79.177,78.739z
			 M76.342,68.358h-1.971v6.464h1.658c1.466,0,1.635-1.514,1.635-1.922v-2.547C77.664,68.455,76.582,68.358,76.342,68.358z
			 M77.783,81.936v-3.053c0-2.811-1.609-2.955-1.922-2.955h-1.49v7.857h1.49C77.543,83.785,77.783,82.32,77.783,81.936z"/>
		<path fill="#FFFFFF" d="M89.558,83.785v1.299h-2.547v-6.585c0-2.451-1.153-2.644-1.729-2.644h-1.562v7.93h1.634v1.299h-4.733
			v-1.299h1.705V68.358h-1.705v-1.298h5.43c0.529,0,2.477,0.217,2.477,3.412v2.211c0,0,0,2.5-2.211,2.619
			c0.504,0.024,2.09,0.312,2.09,3.365v5.117H89.558z M87.131,72.804v-2.45c0-1.803-0.938-1.995-1.609-1.995h-1.803v6.392h1.562
			C86.963,74.75,87.154,73.285,87.131,72.804z"/>
		<path fill="#FFFFFF" d="M97.729,70.016v12.088c0,1.826-1.49,3.221-3.316,3.221c-1.803,0-3.293-1.395-3.293-3.221V70.041
			c0-1.852,1.49-3.221,3.293-3.221C96.238,66.82,97.729,68.189,97.729,70.016z M96.358,70.041c0-1.13-0.865-1.923-1.946-1.923
			c-1.082,0-1.923,0.793-1.923,1.897v12.088c0,1.129,0.841,1.922,1.923,1.922c1.081,0,1.946-0.793,1.946-1.922V70.041z"/>
	</g>
	<g>
		<path fill="#FFFFFF" d="M40.82,97.625l-1.129,2.84c-0.26,0.615-0.492,1.19-0.762,1.738l0.029,0.021
			c0.457-0.395,0.982-0.783,1.508-1.172l2.527-1.82l0.715,0.527l-1.004,2.873c-0.24,0.689-0.47,1.282-0.713,1.834l0.029,0.021
			c0.427-0.416,0.917-0.816,1.479-1.252l2.402-1.854l0.84,0.622l-4.963,3.561l-0.772-0.572l0.935-2.76
			c0.221-0.643,0.429-1.206,0.72-1.842l-0.019-0.016c-0.531,0.475-1.032,0.852-1.568,1.232l-2.396,1.664l-0.772-0.571l2.047-5.718
			L40.82,97.625z"/>
		<path fill="#FFFFFF" d="M46.782,105.305c-0.577,1.309-0.005,2.22,0.966,2.668c0.687,0.316,1.168,0.394,1.588,0.401l-0.143,0.769
			c-0.409-0.004-1.083-0.09-1.924-0.478c-1.625-0.75-2.098-2.278-1.364-3.87c0.735-1.594,2.247-2.404,3.785-1.695
			c1.735,0.801,1.488,2.513,1.04,3.483c-0.09,0.196-0.167,0.333-0.239,0.433L46.782,105.305z M49.914,105.916
			c0.288-0.596,0.464-1.666-0.617-2.164c-0.981-0.453-1.804,0.24-2.187,0.87L49.914,105.916z"/>
		<path fill="#FFFFFF" d="M53.603,101.972l1.015,0.251l-0.878,3.546l0.023,0.005c0.518-0.539,1.269-0.774,2.179-0.549
			c1.411,0.35,2.102,1.758,1.68,3.461c-0.5,2.018-2.031,2.703-3.291,2.391c-0.816-0.201-1.392-0.679-1.641-1.521l-0.023-0.005
			l-0.287,0.906l-0.875-0.217c0.119-0.379,0.284-0.945,0.408-1.446L53.603,101.972z M53.126,108.24
			c-0.032,0.129-0.052,0.26-0.046,0.385c0.01,0.758,0.495,1.398,1.242,1.583c1.084,0.269,1.931-0.45,2.252-1.745
			c0.28-1.131-0.063-2.242-1.171-2.518c-0.688-0.17-1.463,0.158-1.863,0.875c-0.067,0.12-0.125,0.254-0.165,0.418L53.126,108.24z"/>
		<path fill="#FFFFFF" d="M64.645,103.612l-0.37,7.018c-0.027,0.516-0.034,1.104-0.031,1.501l-0.936-0.049l0.005-1.01l-0.036-0.002
			c-0.347,0.631-1.068,1.086-2.016,1.037c-1.403-0.074-2.432-1.319-2.339-3.083c0.09-1.932,1.363-3.044,2.767-2.97
			c0.9,0.048,1.465,0.498,1.705,0.969h0.024l0.183-3.466L64.645,103.612z M63.334,108.631c0.007-0.131,0.004-0.312-0.025-0.445
			c-0.121-0.668-0.667-1.25-1.459-1.293c-1.091-0.057-1.79,0.869-1.856,2.141c-0.062,1.175,0.475,2.178,1.602,2.236
			c0.708,0.038,1.381-0.408,1.614-1.178c0.044-0.142,0.063-0.285,0.072-0.453L63.334,108.631z"/>
		<path fill="#FFFFFF" d="M67.021,109.28c0.148,1.422,1.097,1.93,2.162,1.837c0.754-0.065,1.209-0.238,1.578-0.439l0.257,0.738
			c-0.356,0.199-0.985,0.459-1.907,0.539c-1.783,0.156-2.951-0.936-3.104-2.684c-0.153-1.747,0.758-3.201,2.445-3.348
			c1.902-0.167,2.537,1.441,2.631,2.507c0.018,0.216,0.02,0.372,0.006,0.493L67.021,109.28z M70.043,108.256
			c-0.045-0.658-0.424-1.675-1.608-1.571c-1.077,0.094-1.447,1.103-1.468,1.841L70.043,108.256z"/>
		<path fill="#FFFFFF" d="M72.883,110.273c0.357,0.123,0.941,0.223,1.459,0.115c0.741-0.153,1.019-0.591,0.919-1.073
			c-0.103-0.494-0.45-0.692-1.262-0.818c-1.112-0.161-1.71-0.614-1.851-1.297c-0.19-0.917,0.406-1.826,1.618-2.077
			c0.576-0.119,1.114-0.071,1.461,0.065l-0.091,0.804c-0.253-0.095-0.706-0.209-1.234-0.1c-0.612,0.127-0.869,0.548-0.781,0.971
			c0.098,0.471,0.471,0.614,1.272,0.755c1.052,0.163,1.672,0.55,1.847,1.396c0.211,1.012-0.432,1.881-1.761,2.156
			c-0.624,0.129-1.233,0.084-1.683-0.068L72.883,110.273z"/>
		<path fill="#FFFFFF" d="M77.291,102.629c0.104,0.346-0.056,0.694-0.459,0.815c-0.367,0.11-0.692-0.093-0.796-0.438
			s0.063-0.709,0.442-0.823C76.848,102.072,77.184,102.272,77.291,102.629z M78.305,110.104l-1.672-5.57l1.013-0.305l1.672,5.57
			L78.305,110.104z"/>
		<path fill="#FFFFFF" d="M85.79,106.357c0.532,1.236,0.597,2.084,0.292,2.777c-0.325,0.702-1.005,1.19-1.678,1.48
			c-0.641,0.275-1.413,0.424-1.967,0.322l-0.08-0.855c0.453,0.08,1.09,0.041,1.752-0.242c0.994-0.428,1.499-1.26,0.915-2.617
			l-0.251-0.585l-0.022,0.009c-0.073,0.621-0.487,1.27-1.315,1.625c-1.324,0.57-2.758-0.148-3.393-1.627
			c-0.779-1.81-0.035-3.333,1.201-3.864c0.928-0.399,1.628-0.138,2.061,0.199l0.021-0.009l-0.312-0.82l0.86-0.371
			c0.128,0.391,0.308,0.836,0.583,1.477L85.79,106.357z M83.766,104.324c-0.072-0.165-0.145-0.305-0.24-0.406
			c-0.424-0.498-1.086-0.762-1.804-0.453c-0.927,0.398-1.253,1.467-0.721,2.703c0.45,1.048,1.366,1.688,2.403,1.241
			c0.607-0.261,0.986-0.869,0.92-1.572c-0.016-0.19-0.074-0.387-0.146-0.552L83.766,104.324z"/>
		<path fill="#FFFFFF" d="M86.061,102.392c-0.33-0.517-0.6-0.914-0.889-1.3l0.789-0.505l0.568,0.776l0.021-0.012
			c-0.049-0.611,0.227-1.43,1.036-1.947c0.678-0.434,1.989-0.703,3.064,0.977l1.865,2.914l-0.891,0.57l-1.807-2.823
			c-0.506-0.789-1.221-1.259-2.06-0.722c-0.577,0.369-0.767,1.076-0.61,1.675c0.029,0.138,0.107,0.302,0.204,0.454l1.885,2.943
			l-0.89,0.57L86.061,102.392z"/>
	</g>
</g>
</svg>
