<?xml version="1.0" encoding="utf-8"?>
<!-- Generator: Adobe Illustrator 15.0.0, SVG Export Plug-In . SVG Version: 6.00 Build 0)  -->
<!DOCTYPE svg PUBLIC "-//W3C//DTD SVG 1.1//EN" "http://www.w3.org/Graphics/SVG/1.1/DTD/svg11.dtd">
<svg version="1.1" id="Layer_1" xmlns="http://www.w3.org/2000/svg" xmlns:xlink="http://www.w3.org/1999/xlink" x="0px" y="0px"
	 width="25px" height="25px" viewBox="2.5 2.5 25 25" enable-background="new 2.5 2.5 25 25" xml:space="preserve">
<g>
	<path fill="#E44D42" d="M3.686,3.686c-1.581,1.581-1.581,4.145,0,5.725l5.726-5.725C7.83,2.105,5.267,2.105,3.686,3.686z"/>
	<path fill="#E44D42" d="M17.724,23.45L27.5,27.5l-4.05-9.776L10.978,5.254l-5.726,5.725L17.724,23.45z M19.026,20.913
		c0.52-0.522,1.505-0.381,1.722-0.162c-0.217-0.218-0.359-1.201,0.16-1.722c0.521-0.521,1.561-0.708,1.561-0.708l2.329,5.618
		l-0.859,0.862l-5.618-2.328C18.32,22.474,18.506,21.433,19.026,20.913z"/>
</g>
</svg>
